<?xml version="1.0" encoding="utf-8"?>
<!-- Generator: Adobe Illustrator 19.2.1, SVG Export Plug-In . SVG Version: 6.00 Build 0)  -->
<svg version="1.1" id="Camada_1" xmlns="http://www.w3.org/2000/svg" xmlns:xlink="http://www.w3.org/1999/xlink" x="0px" y="0px"
	 viewBox="0 0 500 500" style="enable-background:new 0 0 500 500;" xml:space="preserve">
<style type="text/css">
	.st0{fill:#FF9C47;}
	.st1{opacity:0.7;fill:#FFFFFF;enable-background:new    ;}
	.st2{fill:none;stroke:#676F74;stroke-linecap:round;stroke-linejoin:round;}
	.st3{fill:#0E1C30;stroke:#676F74;stroke-linecap:round;stroke-linejoin:round;}
	.st4{fill:#0E1C30;stroke:#0E1C30;stroke-linecap:round;stroke-linejoin:round;}
	.st5{fill:#E5E5E5;stroke:#0E1C30;stroke-linecap:round;stroke-linejoin:round;}
	.st6{fill:#919191;stroke:#0E1C30;stroke-linecap:round;stroke-linejoin:round;}
	.st7{fill:none;stroke:#0E1C30;stroke-linecap:round;stroke-linejoin:round;}
	.st8{fill:#FFFFFF;stroke:#0E1C30;stroke-linecap:round;stroke-linejoin:round;}
	.st9{fill:#DD6326;stroke:#0E1C30;stroke-linecap:round;stroke-linejoin:round;}
	.st10{fill:#DD6326;}
	.st11{fill:#FFFFFF;}
	.st12{fill:#0E1C30;}
	.st13{fill:#437A67;stroke:#0E1C30;stroke-linecap:round;stroke-linejoin:round;}
	.st14{fill:#787878;stroke:#0E1C30;stroke-linecap:round;stroke-linejoin:round;}
	.st15{fill:#437A67;}
	.st16{fill:#FFB95C;stroke:#0E1C30;stroke-linecap:round;stroke-linejoin:round;}
	.st17{fill:#ABABAB;}
</style>
<g id="freepik--background-simple--inject-43">
	<path class="st0" d="M329,34.6c0,0-77.4-27.5-153.4,16.3S61.3,181.7,28.4,251.3s-14,140.6,44,172.9s97.4-15.3,178.8-17.6
		S354.5,415.9,422,370s79.7-154.5,26.5-234.8S329,34.6,329,34.6z"/>
	<path class="st1" d="M329,34.6c0,0-77.4-27.5-153.4,16.3S61.3,181.7,28.4,251.3s-14,140.6,44,172.9s97.4-15.3,178.8-17.6
		S354.5,415.9,422,370s79.7-154.5,26.5-234.8S329,34.6,329,34.6z"/>
</g>
<g id="freepik--bookshelf-2--inject-43">
	<line class="st2" x1="162" y1="26" x2="162" y2="461"/>
	<line class="st2" x1="212" y1="26" x2="212" y2="461"/>
	<line class="st2" x1="243" y1="26" x2="243" y2="461"/>
	<rect x="287" y="99" class="st2" width="176" height="363"/>
	<rect x="462.7" y="99" class="st3" width="8.3" height="363"/>
	<rect x="287.2" y="132.7" class="st2" width="175.7" height="4.8"/>
	<line class="st2" x1="287.5" y1="143.2" x2="462" y2="143.2"/>
	<rect x="291" y="101.6" class="st2" width="22" height="31"/>
	<rect x="313" y="101.6" class="st2" width="2.3" height="31"/>
	<rect x="318" y="101.6" class="st2" width="22" height="31"/>
	<rect x="340" y="101.6" class="st2" width="2.3" height="31"/>
	<rect x="347" y="107.2" class="st2" width="18.1" height="25.5"/>
	<rect x="365.1" y="107.2" class="st2" width="1.9" height="25.5"/>
	<rect x="372" y="101.6" class="st2" width="22" height="31"/>
	<rect x="394" y="101.6" class="st2" width="2.3" height="31"/>
	<rect x="403.3" y="107.2" class="st2" width="18.1" height="25.5"/>
	<rect x="421.4" y="107.2" class="st2" width="1.9" height="25.5"/>
	<rect x="430.3" y="107.2" class="st2" width="18.1" height="25.5"/>
	<rect x="448.4" y="107.2" class="st2" width="1.9" height="25.5"/>
	<rect x="287.2" y="184.7" class="st2" width="175.7" height="4.8"/>
	<line class="st2" x1="287.5" y1="195.2" x2="462" y2="195.2"/>
	<rect x="289" y="151.1" class="st2" width="23.8" height="33.5"/>
	<rect x="312.8" y="151.1" class="st2" width="2.5" height="33.5"/>
	<rect x="318" y="153.6" class="st2" width="22" height="31"/>
	<rect x="340" y="153.6" class="st2" width="2.3" height="31"/>
	<rect x="345" y="153.6" class="st2" width="22" height="31"/>
	<rect x="367" y="153.6" class="st2" width="2.3" height="31"/>
	<rect x="372" y="154.1" class="st2" width="21.7" height="30.6"/>
	<rect x="393.7" y="154.1" class="st2" width="2.3" height="30.6"/>
	<rect x="401.6" y="156.9" class="st2" width="19.6" height="27.7"/>
	<rect x="421.3" y="156.9" class="st2" width="2.1" height="27.7"/>
	<rect x="426" y="147.4" class="st2" width="26.4" height="37.3"/>
	<rect x="452.4" y="147.4" class="st2" width="2.8" height="37.3"/>
	<rect x="287.2" y="236.7" class="st2" width="175.7" height="4.8"/>
	<line class="st2" x1="287.5" y1="247.2" x2="462" y2="247.2"/>
	<rect x="291" y="205.6" class="st2" width="22" height="31"/>
	<rect x="313" y="205.6" class="st2" width="2.3" height="31"/>
	<rect x="318" y="205.6" class="st2" width="22" height="31"/>
	<rect x="340" y="205.6" class="st2" width="2.3" height="31"/>
	<rect x="345" y="205.6" class="st2" width="22" height="31"/>
	<rect x="367" y="205.6" class="st2" width="2.3" height="31"/>
	<rect x="374.5" y="208.8" class="st2" width="19.7" height="27.8"/>
	<rect x="394.2" y="208.8" class="st2" width="2.1" height="27.8"/>
	<rect x="399" y="205.6" class="st2" width="22" height="31"/>
	<rect x="421" y="205.6" class="st2" width="2.3" height="31"/>
	<rect x="426" y="205.6" class="st2" width="22" height="31"/>
	<rect x="448" y="205.6" class="st2" width="2.3" height="31"/>
	<rect x="287.2" y="288.7" class="st2" width="175.7" height="4.8"/>
	<line class="st2" x1="287.5" y1="299.2" x2="462" y2="299.2"/>
	<rect x="291" y="257.6" class="st2" width="22" height="31"/>
	<rect x="313" y="257.6" class="st2" width="2.3" height="31"/>
	<rect x="318" y="257.6" class="st2" width="22" height="31"/>
	<rect x="340" y="257.6" class="st2" width="2.3" height="31"/>
	<rect x="345" y="257.6" class="st2" width="22" height="31"/>
	<rect x="367" y="257.6" class="st2" width="2.3" height="31"/>
	<rect x="372" y="257.6" class="st2" width="22" height="31"/>
	<rect x="394" y="257.6" class="st2" width="2.3" height="31"/>
	<rect x="399" y="257.6" class="st2" width="22" height="31"/>
	<rect x="421" y="257.6" class="st2" width="2.3" height="31"/>
	<rect x="426" y="257.6" class="st2" width="22" height="31"/>
	<rect x="448" y="257.6" class="st2" width="2.3" height="31"/>
	<rect x="287.2" y="340.7" class="st2" width="175.7" height="4.8"/>
	<line class="st2" x1="287.5" y1="351.2" x2="462" y2="351.2"/>
	<rect x="291" y="309.6" class="st2" width="22" height="31"/>
	<rect x="313" y="309.6" class="st2" width="2.3" height="31"/>
	<rect x="318" y="309.6" class="st2" width="22" height="31"/>
	<rect x="340" y="309.6" class="st2" width="2.3" height="31"/>
	<rect x="345" y="309.6" class="st2" width="22" height="31"/>
	<rect x="367" y="309.6" class="st2" width="2.3" height="31"/>
	<rect x="372" y="309.6" class="st2" width="22" height="31"/>
	<rect x="394" y="309.6" class="st2" width="2.3" height="31"/>
	<rect x="399" y="309.6" class="st2" width="22" height="31"/>
	<rect x="421" y="309.6" class="st2" width="2.3" height="31"/>
	<rect x="426" y="309.6" class="st2" width="22" height="31"/>
	<rect x="448" y="309.6" class="st2" width="2.3" height="31"/>
	<rect x="287.2" y="392.7" class="st2" width="175.7" height="4.8"/>
	<line class="st2" x1="287.5" y1="403.2" x2="462" y2="403.2"/>
	<rect x="291" y="361.6" class="st2" width="22" height="31"/>
	<rect x="313" y="361.6" class="st2" width="2.3" height="31"/>
	<rect x="318" y="361.6" class="st2" width="22" height="31"/>
	<rect x="340" y="361.6" class="st2" width="2.3" height="31"/>
	<rect x="345" y="361.6" class="st2" width="22" height="31"/>
	<rect x="367" y="361.6" class="st2" width="2.3" height="31"/>
	<rect x="372" y="361.6" class="st2" width="22" height="31"/>
	<rect x="394" y="361.6" class="st2" width="2.3" height="31"/>
	<rect x="399" y="361.6" class="st2" width="22" height="31"/>
	<rect x="421" y="361.6" class="st2" width="2.3" height="31"/>
	<rect x="426" y="361.6" class="st2" width="22" height="31"/>
	<rect x="448" y="361.6" class="st2" width="2.3" height="31"/>
	<rect x="287.2" y="444.7" class="st2" width="175.7" height="4.8"/>
	<line class="st2" x1="287.5" y1="455.2" x2="462" y2="455.2"/>
	<rect x="291" y="413.6" class="st2" width="22" height="31"/>
	<rect x="313" y="413.6" class="st2" width="2.3" height="31"/>
	<rect x="318" y="413.6" class="st2" width="22" height="31"/>
	<rect x="340" y="413.6" class="st2" width="2.3" height="31"/>
	<rect x="345" y="413.6" class="st2" width="22" height="31"/>
	<rect x="367" y="413.6" class="st2" width="2.3" height="31"/>
	<rect x="372" y="413.6" class="st2" width="22" height="31"/>
	<rect x="394" y="413.6" class="st2" width="2.3" height="31"/>
	<rect x="399" y="413.6" class="st2" width="22" height="31"/>
	<rect x="421" y="413.6" class="st2" width="2.3" height="31"/>
	<rect x="426" y="413.6" class="st2" width="22" height="31"/>
	<rect x="448" y="413.6" class="st2" width="2.3" height="31"/>
</g>
<g id="freepik--character-2--inject-43">
	<rect x="179.9" y="205" class="st4" width="14.2" height="63.3"/>
	<rect x="144.7" y="179.7" class="st4" width="84.7" height="63.3"/>
	<rect x="151.1" y="184.5" class="st5" width="71.8" height="53.7"/>
	<path class="st4" d="M278.3,449.1l-1.1,12.9H230c0,0-1.1-5.1,1.4-7.1s12-3.7,14-4.3s6-3.7,6-3.7L278.3,449.1z"/>
	<path class="st6" d="M277.4,459.1l-0.3,2.9h-47.2c-0.2-1-0.3-1.9-0.2-2.9C243.2,459,268.8,459,277.4,459.1z"/>
	<path class="st4" d="M278,314.7c0,0-1.4,33.8-1.4,42.6s7.1,25.5,7.4,35.2s-4.9,50.9-4.9,50.9l-21.5-0.3c0,0-1.7-17.1-2.3-33.5
		s-7.1-55.8-8.6-68.9s-4.6-27.2-4.6-27.2L278,314.7z"/>
	<polygon class="st6" points="281.7,440.5 280,450 257.7,448.8 257.7,438.3 	"/>
	<path class="st6" d="M284,292.1c0,0-2.6,12.9-3.7,18.6s-6.9,20.9-7.1,27.5s-2.6,31.5-2.6,45.2s-0.6,17.2-3.4,28.9
		s-5.7,30.6-5.7,30.6c-4.3,0.1-8.6-0.2-12.9-0.9c-4.6-0.7-9.1-2.2-13.2-4.6l-0.3-5.4c0,0-1.4-7.7-2-10s3.4-12.6,3.4-13.7
		s-3.1-4.9-4.3-10.6s-5.1-39.5-5.1-44.3s-1.7-38.6-1.7-38.6s-3.4-21.7-3.4-24.3s46.6-2.9,54.3-3.4S286.6,287.8,284,292.1z"/>
	<path class="st7" d="M244,298.4c0,0,6.3,10.3,13.7,13.5"/>
	<line class="st7" x1="254.7" y1="336.4" x2="254.3" y2="338.7"/>
	<line class="st7" x1="262" y1="299.5" x2="255.5" y2="332.4"/>
	<path class="st7" d="M268,340.1c-4.4,0.6-8.8,1-13.2,1.1h-17.5l-0.3,6.3c4.8,0.9,9.7,1.3,14.6,1.1c5.5-0.3,10.9-0.9,16.3-2
		L268,340.1z"/>
	<path class="st7" d="M268,346.7c0,0-0.6,11.1-0.3,19.5s-3.1,9.7-6.9,9.7s-20.3,2-22.6,0.3s-3.1-6.3-2.3-10s1.1-18.6,1.1-18.6"/>
	<path class="st4" d="M259.7,452l-0.9,10h-47.2c0,0-1.1-5.1,1.4-7.1s12-3.7,14-4.3s6-3.7,6-3.7L259.7,452z"/>
	<path class="st8" d="M259.1,459.1l-0.3,2.9h-47.2c-0.2-1-0.3-1.9-0.3-2.9C224.9,459,250.5,459,259.1,459.1z"/>
	<path class="st8" d="M264.5,439.1c0,0-0.6,13.2-2.9,13.7s-31.5-4.3-31.8-6.6s2.6-6.6,2.9-8s0.3-3.7,1.4-5.4
		S257.1,436.3,264.5,439.1z"/>
	<path class="st5" d="M146.5,261.4c0,0-4.6,1.2-5.9,2.3s-3,3.9-2.4,5.1s1.6,0.7,2,0.1c1.1-1.7,2.5-3.2,4.1-4.4c1.7-1,3.5-2,5.4-2.8
		C148.7,261.2,147.6,261.1,146.5,261.4z"/>
	<path class="st8" d="M230.3,191.9l-19.9,45.8c0,0-6.6,2.7-19.9,7.6s-27.2,11.3-30.5,12.3s-11.3,2.6-15.3,5s-7.4,7.1-4.8,7.4
		c0.9,0.1,1,1.1,3.3,0.8c0.9-0.2,1.8-0.6,2.6-1.3c1.8-1.3,3.7-2.3,5.8-3c2.9-0.8,5.9-0.9,8.8-0.5c1.3,0.2,2.7,0.2,4,0
		c1.6-1,3-2.2,4.4-3.5c0,0,23.2-2,32.5-3.6s23.2-6.3,23.2-6.3l14.9-60.4L230.3,191.9z"/>
	<path class="st7" d="M151.3,262.5c0,0-9.6,3.3-10.3,7.3"/>
	<path class="st8" d="M168.9,262.5c-1.4,1.4-3,2.6-4.6,3.6c-2.3,1.3-5.3,0.7-7.6,2s-3,2.3-5.6,2s-2.7-2.6,0.7-3.6
		c1.5-0.4,2.9-0.9,4.3-1.7l2-2.3"/>
	<polygon class="st9" points="183.4,208.6 116.9,209.9 107.7,268.5 189.4,269.2 	"/>
	<polyline class="st7" points="175.6,268.5 178.2,208.6 144,249 116.9,209.9 	"/>
	<path class="st4" d="M267.4,156.8c0,0,5.4,2,13.4,9.4s14.3,26.9,15.2,37.2s-5.4,41.8-5.4,49.5c0,7.7-2.3,40.9-3.4,41.8
		s-37.2,3.7-53.2,2.9s-16.9-7.2-18.6-13.2s-2.9-21.7-0.3-39.8s5.7-41.5,12.9-53.5s12-18.3,18-23.8S263.1,156.2,267.4,156.8z"/>
	<polygon class="st10" points="256.7,221 243.1,220.1 243.1,197.2 256.7,198 	"/>
	<rect x="248.9" y="194" class="st8" width="2.6" height="7"/>
	<polygon class="st11" points="253.8,216.1 246,215.4 246,203.5 253.8,204.2 	"/>
	<path class="st4" d="M256.8,192.3l20.7,46.1l-37.8,17.8c0,0-21.6,0.1-23.2-0.2s-16.5,9-17.2,9.8c-0.4,0.4-0.4,1.1,0.1,1.6l0,0
		c0,0-1.9,1.8-0.6,2.8l1.3,1c0,0-0.1,0.8,1.8,1.9s2.8,0.6,2.8,0.6c1.3-0.3,2.5-0.6,3.7-1.1c1.6-0.7,6.4-4.5,7.3-4.4s10.3,1.5,14,1.4
		s6.6-3.8,6.6-3.8s32.4-0.4,43.6-3.4s24.9-10.9,27.4-13.9s-6.3-41.4-9.5-49.9s-8.1-17.5-9.5-18.9"/>
	<path class="st8" d="M204.7,273.7c0,0-0.9,0.5-2.8-0.6s-1.8-1.9-1.8-1.9l-1.3-1c-1.3-1,0.6-2.8,0.6-2.8c-0.5-0.4-0.5-1.1-0.1-1.6
		l0,0c0.8-0.8,15.5-10.1,17.2-9.8s23.2,0.2,23.2,0.2l37.8-17.8l-8.7-19.4l31-13.4c3.8,14.1,9.4,40.4,7.3,42.8
		c-2.5,3-16.3,10.9-27.4,13.9s-43.6,3.4-43.6,3.4s-2.9,3.7-6.6,3.8s-13.2-1.2-14-1.4s-5.7,3.7-7.3,4.4
		C207.1,273,205.9,273.4,204.7,273.7z"/>
	<line class="st7" x1="199.4" y1="267.5" x2="211.2" y2="261"/>
	<line class="st7" x1="200.5" y1="270.9" x2="211.6" y2="263.5"/>
	<path class="st7" d="M203.3,273.6c-0.3-0.6,0-1.2,0.5-1.5c0,0,0,0,0.1,0c1-0.5,9.1-6.3,9.1-6.3"/>
	<path class="st8" d="M237.2,164.2l4.8,3.7c0,0-8.8,17-4.8,17.8s17.6-17.3,22.6-23.2c5.1-5.9,7.6-5.7,7.6-5.7s-6.2-7-8.4-12.4
		s-3.4-8.8-3.4-8.8L237.2,164.2z"/>
	<path class="st8" d="M220.9,120.1c0,0-0.5,22.3,0.1,26.3s6.1,14.9,8.1,17.2s10.5,2.7,13.6,0.9s10.9-11.9,12.3-15.8
		c0.8-2.4,1.4-4.8,1.5-7.3c0,0,4.9,1.2,7.7-4.6s0-10.5-3.7-10.2l-3.1,1.5c0,0,4.3-11.1,1.6-15.4s-26.6-2.2-31.6-1.4
		S220.9,120.1,220.9,120.1z"/>
	<path class="st7" d="M238.7,133c0,0,3.4-2.5,6.7-0.6"/>
	<path class="st7" d="M222.6,131.3c0,0,4.2-1.1,5,2"/>
	<path class="st12" d="M226.2,132.7c0,0.8-0.7,1.5-1.5,1.5s-1.5-0.7-1.5-1.5s0.7-1.5,1.5-1.5C225.6,131.2,226.2,131.9,226.2,132.7z"
		/>
	<path class="st12" d="M242.9,133.5c0,0.8-0.7,1.5-1.5,1.5s-1.5-0.7-1.5-1.5s0.7-1.5,1.5-1.5S242.9,132.7,242.9,133.5L242.9,133.5z"
		/>
	<path class="st4" d="M241.2,121.4l5.6,1.5c0.8,0.2,1.2,1,1,1.7v0.1l-0.1,0.4c-0.3,0.7-1.1,1.1-1.8,0.9l-5.5-1.9
		c-0.8-0.3-1.2-1.1-0.9-1.8l0,0l0,0C239.8,121.6,240.5,121.2,241.2,121.4z"/>
	<path class="st4" d="M228.8,122L228.8,122c0.3,0.7,0,1.4-0.6,1.6l0,0l-3.9,1.6c-0.6,0.2-1.3-0.1-1.5-0.7c0-0.1-0.1-0.2-0.1-0.2l0,0
		c-0.1-0.5,0.2-1,0.7-1.3l3.9-1.7C227.8,121.1,228.5,121.4,228.8,122L228.8,122z"/>
	<path class="st7" d="M242.8,143.2c0,0-2.4,5.2-9.3,4.8"/>
	<path class="st8" d="M229.8,127.7c0,0-0.9,13.6-1,14.6s2.9,4.2,5.1,1.8c1.3-1.1,2.1-2.7,2.4-4.3"/>
	<path class="st7" d="M229.7,127.3c-2.6-3.3-7.4-3.9-10.7-1.3c-3.3,2.6-3.9,7.4-1.3,10.7c1.4,1.8,3.6,2.9,5.9,2.9
		c2.1,0.1,4.2-0.8,5.5-2.6L229.7,127.3z"/>
	<circle class="st7" cx="242" cy="132" r="7.6"/>
	<line class="st7" x1="249.7" y1="130.5" x2="261.5" y2="126.8"/>
	<line class="st7" x1="216.2" y1="131.2" x2="220.7" y2="130.3"/>
	<path class="st7" d="M229.7,129c1.5-0.9,3.5-0.7,4.9,0.3"/>
	<path class="st4" d="M258.5,99.7c0,0,9.9,7.2,7.8,14.9s-8.2,22.6-8.2,22.6l-1.6,0.3l-0.6-5.6c0,0-5.6-1.1-5.3-5.9
		c0.1-2.8,0.8-5.6,2.1-8.1c0,0-4.9,5.2-11.6,5.2s-10.9-7.4-12.8-4.4s-5.2,5.2-12.7,2.7s-19.5-18.8-12.8-24.9s20.2,1.8,24.3,2.2
		s6-6.7,15.3-5.5C248.1,94,253.7,96.2,258.5,99.7z"/>
	<rect x="74.3" y="265.8" class="st8" width="214.1" height="196.5"/>
	<rect x="74.3" y="265.8" class="st4" width="214.1" height="13.2"/>
	<rect x="220.6" y="265.8" class="st7" width="67.8" height="196.5"/>
	<rect x="65.1" y="265.8" class="st8" width="232.5" height="7.5"/>
	<rect x="212.3" y="265.8" class="st8" width="85.3" height="7.5"/>
</g>
<g id="freepik--bookshelf-1--inject-43">
	<path class="st13" d="M336.8,180c0,0-0.2-5.1-2.4-8.6s-10-6.1-14.1-4.3c-2.1,0.9-4.1,1.8-6.1,2.9c4.1,1.3,8,3.1,11.6,5.5
		C329.1,177.7,332.8,179.3,336.8,180z"/>
	<path class="st13" d="M345,182.6c0,0-4.7-4.5-5.5-10.8s5.9-16.1,5.9-16.1c2.2,4.2,4,8.6,5.3,13.1C352.6,175.9,345,182.6,345,182.6z
		"/>
	<path class="st13" d="M354,180.6c0,0-1.2-5.9,1-10s7.8-3.7,13.5-2s7.5,1.8,7.5,1.8c-3.9,2.6-8.1,4.9-12.4,6.9
		C360.5,178.6,357.3,179.7,354,180.6z"/>
	<path class="st12" d="M345,201.7c-0.3,0-0.5-0.2-0.5-0.5l0,0v-28c0.1-0.3,0.3-0.5,0.6-0.4c0.2,0,0.4,0.2,0.4,0.4v28
		C345.5,201.5,345.3,201.7,345,201.7z"/>
	<path class="st12" d="M347.4,201.7L347.4,201.7c-0.4,0-0.5-0.3-0.5-0.6c0.1-0.7,2.5-17.3,10.5-26.5c0.2-0.2,0.5-0.2,0.7-0.1
		c0.2,0.2,0.2,0.5,0,0.7c-7.9,9-10.3,25.8-10.3,26C347.9,201.5,347.7,201.7,347.4,201.7z"/>
	<path class="st12" d="M342.7,201.3L342.7,201.3c-0.3,0-0.5-0.2-0.5-0.5l0,0c0-0.2,0.1-16.1-9.4-23.7c-0.2-0.2-0.3-0.5-0.1-0.7
		c0.2-0.2,0.5-0.3,0.7-0.1c9.9,7.9,9.8,23.9,9.8,24.5C343.2,201.1,343,201.3,342.7,201.3L342.7,201.3z"/>
	<path class="st12" d="M350.5,201.1h-0.1c-0.3-0.1-0.4-0.3-0.4-0.6c1-3.4,2.5-6.7,4.6-9.6c0.2-0.2,0.5-0.3,0.7-0.1s0.3,0.5,0.1,0.7
		c-2,2.8-3.5,5.9-4.4,9.2C351,201,350.8,201.2,350.5,201.1z"/>
	<path class="st13" d="M353.6,193.3c0,0-0.2-5.5,2.1-6.3s4.5,1.2,6.3,2.4s3.7,2.4,3.7,5.9c-0.2,3.4-0.7,6.7-1.4,10
		c0,0-2-6.1-5.3-8.8S353.6,193.3,353.6,193.3z"/>
	<path class="st12" d="M339.2,201.3c-0.2,0-0.4-0.1-0.5-0.4c-1-2.9-2.8-5.6-5.1-7.6c-0.2-0.2-0.2-0.5,0-0.7s0.4-0.2,0.6-0.1
		c2.5,2.2,4.4,5,5.5,8.1c0.1,0.3-0.1,0.5-0.3,0.6l0,0C339.3,201.3,339.2,201.3,339.2,201.3z"/>
	<path class="st13" d="M336.8,195.1c0,0,0.8-3.5-1.2-6.1s-6.7-2-9,0.8s-5.7,11-5.7,11s4.7-3.7,10.2-3.7S336.8,195.1,336.8,195.1z"/>
	<polygon class="st8" points="352.4,231.4 336.7,231.4 328.9,205.5 360.2,205.5 	"/>
	<rect x="328.8" y="201.2" class="st8" width="31.5" height="4.3"/>
	<rect x="382.5" y="231.2" class="st4" width="38.1" height="77.1"/>
	<rect x="273.2" y="231.2" class="st8" width="113.7" height="77.1"/>
	<rect x="279.1" y="236.5" class="st5" width="102.1" height="66"/>
	<rect x="329.4" y="236.5" class="st5" width="51.8" height="66"/>
	<rect x="279.1" y="267.3" class="st8" width="102.1" height="4.4"/>
	<rect x="408.9" y="308.2" class="st4" width="38.1" height="77.1"/>
	<polygon class="st4" points="236.3,341.8 248.6,384.9 224.7,384.9 	"/>
	<polygon class="st8" points="237.2,337.2 235.6,335.8 194.6,384.9 228.4,384.9 	"/>
	<polygon class="st13" points="235.6,335.8 201.9,335.8 193,384.9 226.7,384.9 	"/>
	<line class="st7" x1="206" y1="345.4" x2="227.6" y2="345.4"/>
	<line class="st7" x1="204.6" y1="350.9" x2="226.2" y2="350.9"/>
	<line class="st7" x1="203.3" y1="356.5" x2="224.8" y2="356.5"/>
	<rect x="242" y="308.2" class="st8" width="171.3" height="77.1"/>
	<rect x="247.8" y="313.5" class="st5" width="159.7" height="66"/>
	<rect x="286.1" y="313.5" class="st8" width="121.4" height="66"/>
	<rect x="291.9" y="313.5" class="st5" width="115.7" height="66"/>
	<rect x="332.7" y="313.5" class="st5" width="74.9" height="66"/>
	<rect x="362" y="313.5" class="st8" width="45.6" height="66"/>
	<rect x="367.8" y="313.5" class="st5" width="39.8" height="66"/>
	<rect x="437.5" y="384.9" class="st4" width="38.1" height="77.1"/>
	<rect x="185.7" y="384.9" class="st8" width="256.3" height="77.1"/>
	<rect x="191.6" y="390.2" class="st5" width="244.7" height="66"/>
	<rect x="260.2" y="390.2" class="st5" width="176" height="66"/>
	<rect x="280.7" y="390.2" class="st8" width="155.6" height="66"/>
	<rect x="286.4" y="390.2" class="st5" width="149.9" height="66"/>
	<rect x="324.4" y="390.2" class="st5" width="111.9" height="66"/>
	<rect x="358.8" y="390.2" class="st8" width="77.4" height="66"/>
	<rect x="365.3" y="390.2" class="st5" width="71" height="66"/>
	<rect x="402.9" y="390.2" class="st5" width="33.4" height="66"/>
	<polygon class="st14" points="433.2,264.7 445.6,307.8 421.7,307.8 	"/>
	<polygon class="st8" points="434.1,260.2 432.6,258.7 391.6,307.8 425.3,307.8 	"/>
	<polygon class="st13" points="432.6,258.7 398.8,258.7 389.9,307.8 423.6,307.8 	"/>
	<line class="st7" x1="403.3" y1="266.4" x2="424.9" y2="266.4"/>
	<line class="st7" x1="401.9" y1="272" x2="423.5" y2="272"/>
	<line class="st7" x1="400.5" y1="277.5" x2="422.1" y2="277.5"/>
	<polygon class="st4" points="341.4,335.7 353.8,378.8 329.9,378.8 	"/>
	<polygon class="st8" points="342.4,331.1 340.8,329.7 299.8,378.8 333.6,378.8 	"/>
	<polygon class="st13" points="340.8,329.7 307.1,329.7 298.1,378.8 331.9,378.8 	"/>
	<path class="st11" d="M311.2,357.6l0.1-0.1l0.5,0.6l5.3-4.4l-1.1-1.3l-5.1,4.3l-0.5-1.5l-1,1.3l-3.1-4l-1.6,1.3l3.4,4.3l-2,2.6
		l-3.4,2.8l1.1,1.3l1.8-1.4l-1.5,7.3h6.5l1.5-7.5l1.4,1.7l1.6-1.3l-2.7-3.4L311.2,357.6z M312.9,362.5l0.4-0.4l0.5,0.7l-0.4,0.4
		L312.9,362.5z M313.1,363.4l-0.4,0.4l-0.5-0.7l0.4-0.4L313.1,363.4z M312.7,362.3l-0.5-0.7l0.4-0.4l0.5,0.7L312.7,362.3z
		 M306,360.9h0.7l-0.4,0.4h-0.2l-0.2-0.3L306,360.9z M307.1,360.9l0.3,0.3h-0.7L307.1,360.9z M305.7,361.4l-0.1,0.4l-0.5,0.4
		l-0.3-0.4l0.8-0.7L305.7,361.4z M305.6,362.2l-0.1,0.5l-0.2-0.2L305.6,362.2z M304.9,362.4l-0.8,0.7l-0.3-0.4l0.8-0.7L304.9,362.4z
		 M305,362.7l0.3,0.4l-0.8,0.7l-0.3-0.4L305,362.7z M307.6,361.1l-0.1-0.2h0.4L307.6,361.1z M310.9,360.9l-0.3,0.2l-0.2-0.2H310.9z
		 M311.2,361l0.2,0.3h-0.6L311.2,361z M312.2,361.3h-0.3l-0.3-0.4h0.7l0.1,0.2L312.2,361.3z M311.5,357.3l0.8-0.7l0.3,0.4l-0.8,0.7
		L311.5,357.3z M314.7,354.7l0.8-0.7l0.3,0.4l-0.8,0.7L314.7,354.7z M314.7,355.2l-0.8,0.7l-0.3-0.4l0.8-0.7L314.7,355.2z
		 M314.5,354.5l-0.3-0.4l0.8-0.7l0.3,0.4L314.5,354.5z M314.2,354.7l-0.8,0.7l-0.3-0.4l0.8-0.6L314.2,354.7z M313.2,355.5l-0.8,0.7
		l-0.3-0.4l0.8-0.7L313.2,355.5z M313.4,355.7l0.3,0.4l-0.8,0.6l-0.3-0.4L313.4,355.7z M316,354.2l-0.3-0.4l0.6-0.5l0.3,0.4
		L316,354.2z M316.2,353.1l-0.6,0.5l-0.3-0.4l0.6-0.5L316.2,353.1z M311.9,356.1l0.3,0.4l-0.8,0.7l-0.3-0.4L311.9,356.1z
		 M311.1,357.3L311.1,357.3l-0.1-0.2L311.1,357.3z M308.7,357.1l-0.5-0.6l0.4-0.4l0.4,0.5L308.7,357.1z M306.7,354.6l-0.5-0.7
		l0.4-0.4l0.5,0.7L306.7,354.6z M307.3,354.4l0.5,0.7l-0.4,0.4l-0.5-0.6L307.3,354.4z M306.5,354.8l-0.4,0.4l-0.5-0.7l0.4-0.4
		L306.5,354.8z M306.6,355l0.5,0.7l-0.4,0.4l-0.5-0.7L306.6,355z M307.3,355.9l0.5,0.7l-0.4,0.4l-0.5-0.7L307.3,355.9z M307.6,355.6
		l0.4-0.4l0.5,0.6l-0.4,0.4L307.6,355.6z M306.5,353.4l-0.4,0.4l-0.4-0.5l0.4-0.4L306.5,353.4z M305.4,353.4l0.4,0.5l-0.4,0.4
		l-0.4-0.5L305.4,353.4z M308.1,357.7l-0.5-0.7l0.4-0.4l0.5,0.6v0.1L308.1,357.7z M303.5,363l0.3,0.4l-0.6,0.5l-0.3-0.4L303.5,363z
		 M303.4,364.1l0.6-0.5l0.3,0.4l-0.6,0.5L303.4,364.1z M307.8,361.3l0.4-0.4h1.8l0.3,0.4H307.8z M312.1,362.1l0.4,0.5l-0.4,0.4
		l-0.1-0.1L312.1,362.1z M312.9,364l0.4-0.4l0.4,0.5l-0.4,0.4L312.9,364z M314,363.9l-0.4-0.5l0.5-0.4l0.4,0.5L314,363.9z"/>
	<path class="st11" d="M327.8,352.9l0.1-0.1l0.6,0.8l7.1-6l-1.5-1.8l-7,5.8l-0.8-2l-1.3,1.7l-4.2-5.4l-2.2,1.8l4.7,5.9l-2.7,3.5
		l-4.6,3.8l1.5,1.8l2.4-2l-2,9.9h8.8l2.1-10.2l1.8,2.3l2.2-1.8l-3.6-4.6L327.8,352.9z M330.1,359.6l0.6-0.5l0.7,0.9l-0.6,0.5
		L330.1,359.6z M330.5,360.8l-0.6,0.5l-0.7-0.9l0.6-0.5L330.5,360.8z M329.9,359.3l-0.7-0.9l0.6-0.5l0.7,0.9L329.9,359.3z
		 M320.8,357.4h1l-0.6,0.5h-0.3l-0.3-0.3L320.8,357.4z M322.3,357.4l0.4,0.5h-0.9L322.3,357.4z M320.5,358l-0.1,0.6l-0.7,0.6
		l-0.4-0.5l1.1-0.9L320.5,358z M320.2,359.2l-0.1,0.6l-0.3-0.3L320.2,359.2z M319.3,359.5l-1.1,0.9l-0.4-0.5l1.1-0.9L319.3,359.5z
		 M319.5,359.8l0.4,0.5l-1.1,0.9l-0.4-0.5L319.5,359.8z M323.1,357.7l-0.2-0.3h0.5L323.1,357.7z M327.5,357.4l-0.4,0.3l-0.3-0.3
		H327.5z M328,357.5l0.3,0.4h-0.8L328,357.5z M329.3,357.9h-0.5l-0.4-0.5h1l0.2,0.2L329.3,357.9z M328.3,352.5l1.1-0.9l0.4,0.5
		l-1.1,0.9L328.3,352.5z M332.5,349l1.1-0.9l0.4,0.5l-1.1,0.9L332.5,349z M332.6,349.7l-1.1,0.9l-0.4-0.5l1.1-0.9L332.6,349.7z
		 M332.3,348.7l-0.4-0.5l1.1-0.9l0.4,0.5L332.3,348.7z M332,349l-1.1,0.9l-0.4-0.5l1.1-0.9L332,349z M330.6,350.2l-1.1,0.9l-0.4-0.5
		l1.1-0.9L330.6,350.2z M330.8,350.4l0.4,0.5l-1.1,0.9l-0.4-0.5L330.8,350.4z M334.4,348.3l-0.4-0.5l0.8-0.7l0.4,0.5L334.4,348.3z
		 M334.6,346.8l-0.8,0.7l-0.4-0.5l0.8-0.7L334.6,346.8z M328.8,350.8l0.4,0.5l-1.1,0.9l-0.4-0.5L328.8,350.8z M327.8,352.5
		L327.8,352.5l-0.1-0.2L327.8,352.5z M324.5,352.3l-0.6-0.8l0.6-0.5l0.5,0.7L324.5,352.3z M321.8,348.8L321,348l0.6-0.5l0.7,0.9
		L321.8,348.8z M322.6,348.6l0.7,0.9l-0.6,0.5l-0.7-0.9L322.6,348.6z M321.5,349.1l-0.6,0.5l-0.7-0.9l0.6-0.5L321.5,349.1z
		 M321.7,349.4l0.7,0.9l-0.6,0.5l-0.7-0.9L321.7,349.4z M322.6,350.6l0.7,0.9l-0.6,0.5l-0.7-0.9L322.6,350.6z M323,350.3l0.6-0.5
		l0.7,0.9l-0.6,0.5L323,350.3z M321.5,347.2l-0.6,0.5l-0.5-0.7l0.6-0.5L321.5,347.2z M320,347.3l0.6,0.7l-0.6,0.5l-0.6-0.7
		L320,347.3z M323.7,353.1l-0.7-0.9l0.6-0.5l0.7,0.9l-0.1,0.1L323.7,353.1z M317.6,360.2l0.4,0.5l-0.8,0.7l-0.4-0.5L317.6,360.2z
		 M317.3,361.7l0.8-0.7l0.4,0.5l-0.8,0.7L317.3,361.7z M323.3,357.9l0.6-0.5h2.4l0.4,0.5H323.3z M329.1,358.9l0.5,0.6L329,360
		l-0.1-0.2L329.1,358.9z M330.2,361.5l0.6-0.5l0.6,0.7l-0.6,0.5L330.2,361.5z M331.6,361.5l-0.6-0.7l0.6-0.5l0.6,0.7L331.6,361.5z"
		/>
	<path class="st11" d="M337.4,341.9c-0.1-0.7-1.1-1.3-2.4-1.4c0-0.2,0.1-0.4,0.1-0.6c0-2.2-2.2-4-4.8-4c-2.2-0.1-4.1,1.3-4.7,3.3
		c-0.2,0-0.3,0-0.5,0c-1.3-0.1-2.5,0.7-2.8,2c-1-0.9-2.5-0.9-3.5,0c-0.5-0.1-0.9-0.2-1.4-0.2c-1.1,0-2.1,0.3-2.1,0.7
		c0,0.1,0.1,0.2,0.1,0.2H337.4z"/>
	<path class="st11" d="M317.7,345.2c0-0.3-0.5-0.6-1-0.6c0-0.1,0-0.2,0-0.3c-0.1-1.1-1.1-1.9-2.1-1.8c-1-0.1-1.8,0.6-2.1,1.5h-0.2
		c-0.6,0-1.1,0.3-1.3,0.9c-0.4-0.4-1.1-0.4-1.5,0c-0.2-0.1-0.4-0.1-0.6-0.1c-0.5,0-0.9,0.1-0.9,0.3c0,0,0,0.1,0.1,0.1H317.7z"/>
	<polygon class="st4" points="338.9,412.7 351.3,455.9 327.4,455.9 	"/>
	<polygon class="st8" points="339.8,408.2 338.3,406.8 297.3,455.9 331,455.9 	"/>
	<polygon class="st8" points="338.3,406.8 304.5,406.8 295.6,455.9 329.3,455.9 	"/>
	<polygon class="st15" points="329.9,419.3 307,419.3 301,452.6 323.9,452.6 	"/>
	<polygon class="st15" points="308.7,412 307.8,417.1 330.6,417.1 331.5,412 	"/>
	<polygon class="st4" points="265.4,412.7 277.8,455.9 253.9,455.9 	"/>
	<polygon class="st8" points="266.3,408.2 264.8,406.8 223.8,455.9 257.5,455.9 	"/>
	<polygon class="st8" points="264.8,406.8 231,406.8 222.1,455.9 255.8,455.9 	"/>
	<path class="st15" d="M252.3,424.4c-0.8,2.9-2.8,5.3-5.4,6.8c-4.4,2.4-11.2-1-16.6,3.8s-5.6,15,5.8,16.2s13.8-7.4,13.8-7.4
		s5.2,1,5-0.6s-3.6-2.8-3.6-2.8c1.5-2.5,2.4-5.3,2.6-8.2c0.1-4.3,0-7.2,0-7.2s2.8,0.6,3.8,0s3-6.2,3-6.2s-3.4,2.4-5,2.4
		s-5.8-3.4-5.8-3.4S249.1,424.4,252.3,424.4z"/>
	<polygon class="st15" points="233,411.6 232.1,416.8 254.9,416.8 255.8,411.6 	"/>
	<polygon class="st15" points="231.6,419.1 230.7,424.2 244.4,424.2 245.4,419.1 	"/>
	<polygon class="st4" points="414.9,412.7 427.3,455.9 403.4,455.9 	"/>
	<polygon class="st8" points="415.9,408.2 414.3,406.8 373.3,455.9 407.1,455.9 	"/>
	<polygon class="st13" points="414.3,406.8 380.6,406.8 371.6,455.9 405.4,455.9 	"/>
	<path class="st11" d="M389.5,421.1c0.2,2.4-1.5,4.5-3.9,4.7s-4.5-1.5-4.7-3.9s1.5-4.5,3.9-4.7c0.1,0,0.3,0,0.4,0
		C387.5,417.1,389.4,418.9,389.5,421.1z"/>
	<path class="st11" d="M398.7,428.3c0.2,2.4-1.5,4.5-3.9,4.7s-4.5-1.5-4.7-3.9s1.5-4.5,3.9-4.7c0.1,0,0.3,0,0.4,0
		C396.7,424.3,398.6,426,398.7,428.3z"/>
	<path class="st11" d="M405,422.4c0.2,2-1.2,3.7-3.2,3.9s-3.7-1.2-3.9-3.2c-0.2-2,1.2-3.7,3.2-3.9c0.1,0,0.2,0,0.3,0
		C403.3,419.1,404.9,420.5,405,422.4z"/>
	<ellipse class="st11" cx="385.9" cy="440.3" rx="8.1" ry="7.3"/>
	<rect x="249.8" y="328" class="st13" width="4.6" height="51.5"/>
	<rect x="253.2" y="328" class="st13" width="25.3" height="51.5"/>
	<rect x="255" y="328" class="st8" width="4.6" height="51.5"/>
	<rect x="258.4" y="328" class="st8" width="25.3" height="51.5"/>
	<rect x="260.3" y="328" class="st8" width="4.6" height="51.5"/>
	<rect x="263.6" y="328" class="st8" width="22.2" height="51.5"/>
	<rect x="265.5" y="328" class="st13" width="4.6" height="51.5"/>
	<rect x="268.9" y="328" class="st13" width="17.3" height="51.5"/>
	<rect x="368.5" y="328" class="st8" width="4.6" height="51.5"/>
	<rect x="371.9" y="328" class="st8" width="25.3" height="51.5"/>
	<rect x="373.8" y="328" class="st13" width="4.6" height="51.5"/>
	<rect x="377.1" y="328" class="st13" width="25.3" height="51.5"/>
	<rect x="379" y="328" class="st13" width="4.6" height="51.5"/>
	<rect x="382.4" y="328" class="st13" width="22.2" height="51.5"/>
	<rect x="384.2" y="328" class="st8" width="4.6" height="51.5"/>
	<rect x="387.6" y="328" class="st8" width="20" height="51.5"/>
	<rect x="286.3" y="276.5" class="st8" width="16.6" height="25.7"/>
	<rect x="282.8" y="276.5" class="st8" width="16.6" height="25.7"/>
	<rect x="309.4" y="292" class="st8" width="34.8" height="10.2"/>
	<rect x="308.2" y="288.1" class="st4" width="36.1" height="7.2"/>
	<rect x="344.4" y="292" class="st8" width="21.2" height="10.2"/>
	<rect x="344.4" y="288.1" class="st4" width="23" height="7.2"/>
	<rect x="285.3" y="263.3" class="st4" width="60" height="3.9"/>
	<rect x="321.9" y="263.3" class="st8" width="25.9" height="3.9"/>
	<rect x="285.3" y="259.3" class="st8" width="60" height="3.9"/>
	<rect x="321.9" y="259.3" class="st8" width="25.9" height="3.9"/>
	<rect x="285.3" y="255.3" class="st13" width="60" height="3.9"/>
	<rect x="321.9" y="255.3" class="st8" width="25.9" height="3.9"/>
	<rect x="285.3" y="251.3" class="st8" width="60" height="3.9"/>
	<rect x="321.9" y="251.3" class="st8" width="25.9" height="3.9"/>
	<rect x="285.3" y="247.3" class="st13" width="60" height="3.9"/>
	<rect x="321.9" y="247.3" class="st8" width="25.9" height="3.9"/>
</g>
<g id="freepik--characters-1--inject-43">
	<path class="st4" d="M56.8,349.3c0,0,2.9,14.9,2.9,20.5S56,385.4,56,397.4s3.4,43.6,3.4,43.6l12.8,0.5c0,0,3.7-38.8,7.7-47.9
		s5.6-27.9,5.6-33.2c0.1-3.9,0.8-7.7,1.9-11.4L56.8,349.3z"/>
	<path class="st16" d="M53.6,431.2h21.3l-0.3,16.5c0,0,12.2,7.7,15.2,8.8s4.5,3.5,4.3,4.3s-1.6,1.3-1.6,1.3H55.7
		c-0.8-2.1-1-4.4-0.8-6.6c0.4-2.2,1-4.3,1.9-6.4L53.6,431.2z"/>
	<path class="st4" d="M63.6,349.3c0,0,2.9,14.9,2.9,20.5s-3.7,15.7-3.7,27.6s3.5,43.6,3.5,43.6l12.8,0.5c0,0,3.7-38.8,7.7-47.9
		s5.6-27.9,5.6-33.2c0.1-3.9,0.8-7.7,1.9-11.4L63.6,349.3z"/>
	<path class="st17" d="M94.5,227.5c0,0,8.2,54.5,11.2,64.6s14.3,54.2,14.3,54.2c-10.4,4.5-21.4,7.2-32.7,8
		c-18.9,1.3-43.3-0.3-50.5-3.5s-12.2-5.3-12.2-5.3l7.7-39.4c0,0,16.8-47.1,16.8-57.7S48,227,54.1,219s13.3-11.7,18.3-10.1
		S94.5,227.5,94.5,227.5z"/>
	<path class="st11" d="M111,311.8c-0.1-0.3-0.2-0.6-0.3-1c-1.8,0.4-3.5,0.9-5.3,1.2l2.4-4.9l2.8,3.3c-0.2-0.8-0.4-1.5-0.6-2.3
		l-1.6-1.9c0.3-0.1,0.7-0.2,1-0.3c-0.1-0.3-0.2-0.6-0.3-1c-34.7,8.4-62.2,3.6-76.4-0.4c-0.3,1-0.5,1.5-0.5,1.5l-0.1,0.7l2.2,4.4
		c-1-0.3-2-0.5-2.9-0.8l-0.2,1c12.9,3.7,26.3,5.5,39.7,5.5C84.5,316.8,97.9,315.1,111,311.8z M107,306.7l-2.4,5l-4.2-3.7
		C102.6,307.6,104.8,307.2,107,306.7z M103.9,312.4c-3,0.6-5.9,1.1-8.8,1.6l4.7-5.3L103.9,312.4z M98.8,308.3l-4.8,5.4l-3.2-4.2
		C93.4,309.2,96.1,308.8,98.8,308.3L98.8,308.3z M93.2,314.3c-3.3,0.5-6.5,0.8-9.7,1.1L90,310L93.2,314.3z M88.7,309.8l-6.2,5.2
		l-5.3-4.3C80.9,310.5,84.8,310.2,88.7,309.8L88.7,309.8z M32.7,305.8c2.3,0.6,5,1.3,8,2l-5.3,3.4L32.7,305.8z M36.2,311.8l4.8-3
		l3.5,4.8C41.5,313,38.7,312.4,36.2,311.8L36.2,311.8z M41.6,307.9c3,0.6,6.3,1.2,10,1.6l-5.8,4L41.6,307.9z M46.8,313.9l5.3-3.6
		l4.9,4.9C53.4,314.9,50,314.4,46.8,313.9L46.8,313.9z M53,309.7c3,0.4,6.2,0.6,9.5,0.8l-4.5,4.2L53,309.7z M58.8,315.4l4.5-4.1
		l5.4,4.6C65.1,315.8,61.8,315.6,58.8,315.4L58.8,315.4z M64,310.6c2.3,0.1,4.6,0.2,7.1,0.2c1.1,0,2.3,0,3.5,0l-5.2,4.4L64,310.6z
		 M75.9,310.8l5.7,4.6c-4.1,0.3-8,0.4-11.7,0.4L75.9,310.8z"/>
	<path class="st11" d="M117.2,335.2c-0.2-0.6-0.3-1.2-0.5-1.8l-2.8-3.4l1.8-0.5c-0.1-0.3-0.2-0.6-0.3-1c-0.8,0.2-1.6,0.5-2.4,0.7
		c0,0-0.1,0-0.2,0s-0.1,0.1-0.2,0.1c-40.9,10.8-72.4,3.1-84.7-1l-0.2,1c1.1,0.4,2.5,0.8,3.9,1.2l-4.7,3.6h-0.1l-0.2,1
		c0.1,0.1,0.3,0.2,0.5,0.1c7.6,2.6,23,6.7,43.9,6.7C86.7,341.9,102.2,339.7,117.2,335.2z M113.2,330.8l3,3.6
		c-1.4,0.4-2.8,0.8-4.1,1.1L113.2,330.8z M112.3,330.5l-1,4.3l-2.8-3.3C109.7,331.1,111,330.8,112.3,330.5z M110.9,335.9
		c-1.8,0.5-3.7,0.9-5.4,1.3l2.4-4.9L110.9,335.9z M107,331.7l-2.4,5.1l-4.2-3.7C102.6,332.7,104.8,332.2,107,331.7z M103.9,337.5
		c-3,0.6-5.9,1.1-8.8,1.6l4.7-5.3L103.9,337.5z M98.8,333.4l-4.8,5.4l-3.2-4.2C93.4,334.3,96.1,333.9,98.8,333.4L98.8,333.4z
		 M93.2,339.4c-3.3,0.5-6.5,0.8-9.7,1.1l6.5-5.3L93.2,339.4z M88.7,334.8l-6.2,5.2l-5.3-4.3C80.9,335.6,84.8,335.3,88.7,334.8
		L88.7,334.8z M28.1,334.5l3.9-3l2.4,4.8C31.9,335.7,29.9,335.1,28.1,334.5L28.1,334.5z M32.7,330.8c2.3,0.6,5,1.3,8,1.9l-5.3,3.4
		L32.7,330.8z M36.2,336.8l4.8-3l3.5,4.8C41.5,338,38.7,337.4,36.2,336.8L36.2,336.8z M41.6,332.9c3,0.6,6.3,1.2,10,1.6l-5.8,4
		L41.6,332.9z M46.8,339l5.3-3.6l4.9,4.9C53.4,340,50,339.5,46.8,339z M53,334.8c3,0.4,6.2,0.6,9.5,0.8l-4.5,4.2L53,334.8z
		 M58.8,340.4l4.5-4.1l5.4,4.6C65.1,340.9,61.8,340.7,58.8,340.4L58.8,340.4z M64,335.7c2.3,0.1,4.6,0.2,7.1,0.2c1.1,0,2.3,0,3.5,0
		l-5.2,4.4L64,335.7z M75.9,335.9l5.7,4.6c-4.1,0.3-8,0.4-11.7,0.4L75.9,335.9z"/>
	<path class="st11" d="M119.3,343.6l-0.3-1c-38.6,13.5-82.1,3.4-93.9,0.1l-0.2,1c16.4,4.4,33.3,6.6,50.3,6.7
		C89.3,350.4,104.7,348.7,119.3,343.6z"/>
	<path class="st11" d="M25.7,340l-0.2,1c16.2,4.3,32.9,6.5,49.7,6.5c13.9,0,29-1.7,43.4-6.6c-0.1-0.3-0.2-0.6-0.3-1
		C80.5,352.9,38.2,343.3,25.7,340z"/>
	<path class="st11" d="M114,323.2c-0.1-0.3-0.2-0.6-0.3-1c-33.9,11.3-73,3.9-84.8,1.2l-0.2,1c14.3,3.2,28.9,4.9,43.5,4.9
		C85.6,329.3,100.2,327.8,114,323.2z"/>
	<path class="st11" d="M113.5,321.1c-0.1-0.3-0.2-0.6-0.3-1c-33.4,10.9-71.6,3.9-83.9,1.1l-0.2,1c14.2,3.1,28.6,4.8,43.1,4.8
		C85.4,327.1,99.9,325.6,113.5,321.1z"/>
	<path class="st7" d="M94.5,227.5c0,0,8.2,54.5,11.2,64.6s14.3,54.2,14.3,54.2c-10.4,4.5-21.4,7.2-32.7,8
		c-18.9,1.3-43.3-0.3-50.5-3.5s-12.2-5.3-12.2-5.3l7.7-39.4c0,0,16.8-47.1,16.8-57.7S48,227,54.1,219s13.3-11.7,18.3-10.1
		S94.5,227.5,94.5,227.5z"/>
	<path class="st16" d="M60.4,431.2h21.3l-0.3,16.5c0,0,12.2,7.7,15.2,8.8s4.5,3.5,4.3,4.3s-1.6,1.3-1.6,1.3H62.5
		c-0.8-2.1-1-4.4-0.8-6.6c0.4-2.2,1-4.3,1.9-6.4L60.4,431.2z"/>
	<path class="st8" d="M64.5,204.1c0,0-14.6,10.4-18.1,21.8s-4.5,32.7-5.3,37.5s-13.3,48.9-13.3,48.9s10.4,7.2,28.7,9
		s38.6-2.7,39.3-2.7s-6.7-91.7-6.4-92.5s-14.9-18.4-17.6-20.7S64.5,204.1,64.5,204.1z"/>
	<path class="st4" d="M97.3,186.5c0,0,0.4,9.9,2.2,13.2s1.5,6.6-3.3,5.5s-11-11-11.7-16.9S94.4,179.5,97.3,186.5z"/>
	<path class="st16" d="M89,217.2l8.6,72.1l15.6-1.8l-18.3-70.6C94.9,216.8,91.2,212.1,89,217.2z"/>
	<path class="st8" d="M97.5,155.7c1.1,2.1,2.1,4.3,2.9,6.5c0.9,2.6,0.7,7.5,1,8.3s4.2,5.5,4.2,6.5s-3.6,2.8-3.6,2.8
		s-0.9,6.5-1.6,9.3s-0.6,4.3-4.2,4.2s-8.5-1.5-14.6-4.7s-10.7-7.8-11.8-14.1S85,156,87.4,154.4S97.5,155.7,97.5,155.7z"/>
	<path class="st12" d="M99.1,170.7c-0.1,1.2-0.5,2.2-1,2.2s-0.9-1.1-0.8-2.3s0.5-2.2,1-2.2S99.1,169.4,99.1,170.7z"/>
	<path class="st7" d="M94.7,167.6c0,0,1.8-4.6,4.6-3"/>
	<path class="st7" d="M101.1,182.2c0,0-3.4,1.4-5.2-1.4"/>
	<path class="st16" d="M67.3,192.7c0,0,31.3,8.1,30.7,11.7s-1.3,14.3-5.4,14.9S57.5,208,55.1,207.2s1.9-11.4,4.2-14.1
		S67.3,192.7,67.3,192.7z"/>
	<path class="st4" d="M83.7,164.6c0,0,3.5,23,7.6,32.3s8.3,11.8,6.8,13.6s-10.6-4-10.6-4s7.7,10.9,2.6,13.9S72,217,69.3,214.6
		l-2.7-2.3c0,0-0.9,7-9.7,11.2s-21.1-3.1-13.1-13s11.3-21.4,9.9-28.3S75.3,156.9,83.7,164.6z"/>
	<path class="st8" d="M58.6,240.3c2,4.5,6.4,8.6,9.8,12.1c5.4,5.7,11.7,10,17.3,15.4c1,1,12.1,10.6,13.4,10c0,0,11-5,18.8-12.1
		s27-29.2,27-29.2c4.8-1.3,12.5-7.7,12.5-7.7l7.1-0.9c0.5-0.1,0.8-0.6,0.7-1.1c-0.1-0.4-0.5-0.7-0.9-0.7l-6.6,0.5l9-4.7
		c0.4-0.2,0.6-0.8,0.4-1.2l0,0c-0.2-0.4-0.6-0.5-1-0.4l-9.6,2.5l8.2-4.5c0.5-0.3,0.7-0.9,0.4-1.4s-0.9-0.7-1.4-0.4l-9.4,4.7l4.7-4
		l1.6-1.9c0.2-0.4,0.1-0.8-0.2-1.1c-0.2-0.1-0.5-0.2-0.8,0l-1.9,1.4c-3.4,2.6-11.5,8.8-12.3,9.8c-1,1.3-5.8,6.8-5.8,6.8
		s-8.3,6.6-19.3,14.3c-5.2,3.8-10.6,7.1-16.3,10.1c-3.4-4.2-13.5-17.2-17.4-25.2c-3-5.8-8-10.4-14.1-12.8"/>
	<path class="st8" d="M166,220.1l-9.6,2.5l8.2-4.5c0.5-0.3,0.7-0.9,0.4-1.4s-0.9-0.7-1.4-0.4l-9.4,4.7l4.7-4l1.6-1.9
		c0.2-0.4,0.1-0.8-0.2-1.1c-0.2-0.1-0.5-0.2-0.8,0l-1.9,1.4c-3.4,2.6-11.5,8.8-12.3,9.8c-1,1.3-5.8,6.8-5.8,6.8s-8.3,6.6-19.3,14.3
		c-4.3,3-7.7,5.2-10.3,6.8l6.7,13.8c0.5-0.4,0.9-0.8,1.4-1.3c7.7-7.2,27-29.2,27-29.2c4.8-1.3,12.5-7.7,12.5-7.7l7.1-0.9
		c0.5-0.1,0.8-0.6,0.7-1.1c-0.1-0.4-0.5-0.7-0.9-0.7l-6.6,0.5l9-4.7c0.4-0.2,0.6-0.8,0.4-1.2l0,0C166.9,220.1,166.4,220,166,220.1z"
		/>
	<path class="st16" d="M53.6,182.2c0,0-6.8,1.1-10.4-2.9s2.1-8.9,7.9-19.1s9.6-19.8,21-22.2s25,6.9,28.1,9.4s3.1,4.8,1.6,5.4
		c0,0-36.1,14.3-47.9,31"/>
	<line class="st7" x1="71.2" y1="167" x2="53.2" y2="174.9"/>
	<path class="st16" d="M53.6,185.7c0,0,15.4-13.6,30.1-19.6s20.3-6.7,20.3-8.7s-2.2-4.6-2.2-4.6s-23.9,9-33.3,16.1
		S48,181.4,53.6,185.7z"/>
</g>
<g id="freepik--Floor--inject-43">
	<line class="st7" x1="22" y1="462" x2="488" y2="462"/>
</g>
</svg>
