<?xml version="1.0" encoding="utf-8"?>
<!-- Generator: Adobe Illustrator 19.2.1, SVG Export Plug-In . SVG Version: 6.00 Build 0)  -->
<svg version="1.1" id="Camada_1" xmlns="http://www.w3.org/2000/svg" xmlns:xlink="http://www.w3.org/1999/xlink" x="0px" y="0px"
	 viewBox="0 0 688 679" style="enable-background:new 0 0 688 679;" xml:space="preserve">
<style type="text/css">
	.st0{opacity:0.8;fill:#F5CD66;}
	.st1{opacity:0.8;}
	.st2{fill:#A5A163;}
	.st3{fill:#F6925C;}
</style>
<g id="Hierarchy">
	<path class="st0" d="M301,662V490h172v172H301z"/>
	<path class="st0" d="M301,425.5v-172h172v172H301z"/>
	<path class="st0" d="M301,189V17h172v172H301z"/>
	<path class="st0" d="M301,124.5c59,0,168.1,0,172,0h46h83v-43h-83c-2.2,6.9-3,14.2-3,21.5c0-7.3,0.9-14.6,3-21.5h-46
		c-7.5,0-162,0-172,0h-0.5H215V318h-43H86v43h86h43v236.5h86c59,0,168.1,0,172,0c0.1,0,0.1,0,0.1,0H519h83v-43h-83
		c-2.2,6.9-3,14.2-3,21.5c0-7.3,0.9-14.6,3-21.5h-46c-7.5,0-162,0-172,0h-0.5H258V361h43c59,0,168.1,0,172,0h46h83v-43h-83
		c-2.2,6.9-3,14.2-3,21.5c0-7.3,0.9-14.6,3-21.5h-46c-7.5,0-162,0-172,0h-0.5H258V124.5H301z"/>
	<g class="st1">
		<path class="st2" d="M602,490c23.7,0,45.2,9.5,60.6,25.4c15.9,15.5,25.4,37,25.4,60.6c0,47.3-38.7,86-86,86
			c-23.7,0-45.2-9.5-60.6-25.4c-10.8-10.8-18.9-24.1-22.4-39.1c-2.2-6.9-3-14.2-3-21.5s0.9-14.6,3-21.5c3.4-15,11.6-28.4,22.4-39.1
			C556.8,499.5,578.3,490,602,490z"/>
		<path class="st2" d="M602,253.5c23.7,0,45.2,9.5,60.6,25.4c15.9,15.5,25.4,37,25.4,60.6c0,47.3-38.7,86-86,86
			c-23.7,0-45.2-9.5-60.6-25.4C530.6,389.4,522.4,376,519,361c-2.2-6.9-3-14.2-3-21.5c0-7.3,0.9-14.6,3-21.5
			c3.4-15,11.6-28.4,22.4-39.1C556.8,263,578.3,253.5,602,253.5z"/>
		<path class="st2" d="M602,17c23.7,0,45.2,9.5,60.6,25.4c15.9,15.5,25.4,37,25.4,60.6c0,47.3-38.7,86-86,86
			c-23.7,0-45.2-9.5-60.6-25.4c-10.8-10.8-18.9-24.1-22.4-39.1c-2.2-6.9-3-14.2-3-21.5c0-7.3,0.9-14.6,3-21.5
			c3.4-15,11.6-28.4,22.4-39.1C556.8,26.5,578.3,17,602,17z"/>
		<path class="st3" d="M0,468.5l0-258h172v258H0z"/>
	</g>
</g>
</svg>
