<?xml version="1.0" encoding="utf-8"?>
<!-- Generator: Adobe Illustrator 19.2.1, SVG Export Plug-In . SVG Version: 6.00 Build 0)  -->
<svg version="1.1" id="Camada_1" xmlns="http://www.w3.org/2000/svg" xmlns:xlink="http://www.w3.org/1999/xlink" x="0px" y="0px"
	 viewBox="0 0 1008.7 301.5" style="enable-background:new 0 0 1008.7 301.5;" xml:space="preserve">
<style type="text/css">
	.st0{fill:none;stroke:#EAEAEA;stroke-width:1.067;stroke-linejoin:round;stroke-miterlimit:10;stroke-dasharray:7.4688,3.2009;}
	.st1{fill:none;stroke:#DBDBDB;stroke-width:1.067;stroke-linejoin:round;stroke-miterlimit:10;stroke-dasharray:7.4688,3.2009;}
	.st2{fill:none;stroke:#BEBEBE;stroke-width:1.067;stroke-linejoin:round;stroke-miterlimit:10;stroke-dasharray:7.4688,3.2009;}
	.st3{font-family:'ArialMT';}
	.st4{font-size:11.3811px;}
	.st5{opacity:0.2;fill:#D7D6D1;}
	.st6{fill:none;stroke:#BEBEBE;stroke-width:1.067;stroke-linejoin:round;stroke-miterlimit:10;}
	.st7{fill:none;stroke:#B0B0B0;stroke-width:2.134;stroke-linejoin:round;stroke-miterlimit:10;}
	.st8{fill:none;stroke:#B0B0B0;stroke-width:0.7087;stroke-linecap:round;stroke-linejoin:round;stroke-miterlimit:10;}
	.st9{fill:#B0B0B0;}
	.st10{opacity:0.2;fill:#B0B0B0;}
	.st11{fill:#7C7C7C;}
	.st12{font-size:9.1049px;}
	.st13{fill:none;stroke:#437A67;stroke-width:2.134;stroke-linejoin:round;stroke-miterlimit:10;}
	.st14{fill:none;stroke:#437A67;stroke-width:0.7087;stroke-linecap:round;stroke-linejoin:round;stroke-miterlimit:10;}
	.st15{fill:#437A67;}
	.st16{opacity:0.2;fill:#437A67;}
	.st17{opacity:0.2;fill:#DD6326;}
	.st18{fill:none;stroke:#DD6326;stroke-width:2.134;stroke-linejoin:round;stroke-miterlimit:10;}
	.st19{fill:#DD6326;}
	.st20{fill:none;stroke:#DD6326;stroke-width:0.7087;stroke-linecap:round;stroke-linejoin:round;stroke-miterlimit:10;}
	.st21{fill:none;stroke:#FFB95C;stroke-width:2.134;stroke-linejoin:round;stroke-miterlimit:10;}
	.st22{fill:#FFB95C;}
	.st23{opacity:0.2;fill:#FFB95C;}
</style>
<g>
	<polyline class="st0" points="157.5,149.7 157.5,149.5 157.5,149.1 157.5,148.6 157.5,148.4 157.4,148 157.4,147.8 157.3,147.5 
		157.3,147.3 157.3,147.1 157.2,146.9 157.2,146.7 157.1,146.3 156.9,145.8 156.9,145.6 156.8,145.4 156.6,145 156.5,144.6 
		156.4,144.4 156.3,144.2 156.2,144 156.1,143.8 156,143.6 155.7,143.3 155.6,143.1 155.5,142.9 155.4,142.7 155.3,142.5 
		155.1,142.3 154.9,142 154.7,141.8 154.6,141.6 154.5,141.5 154.2,141.2 154,141 153.9,140.8 153.7,140.7 153.5,140.5 153.4,140.4 
		153.2,140.2 152.9,140 152.7,139.8 152.5,139.7 152.4,139.6 152,139.3 151.8,139.2 151.6,139.1 151.4,139 151.1,138.7 150.9,138.6 
		150.5,138.4 150.3,138.4 150.1,138.3 149.7,138.1 149.3,137.9 149.1,137.9 148.8,137.8 148.6,137.7 148.4,137.7 148.2,137.6 
		148,137.6 147.8,137.5 147.6,137.5 147.4,137.4 147.1,137.4 146.9,137.3 146.7,137.3 146.5,137.3 146.3,137.3 146.1,137.2 
		145.6,137.2 145.4,137.2 145.2,137.2 144.7,137.2 144.5,137.2 144.3,137.2 143.9,137.2 143.4,137.3 143.2,137.3 143,137.4 
		142.8,137.4 142.4,137.5 142.1,137.5 141.9,137.6 141.7,137.6 141.3,137.8 141.1,137.8 140.9,137.9 140.7,138 140.5,138.1 
		140.3,138.1 140.1,138.2 139.9,138.3 139.7,138.4 139.5,138.5 139.3,138.6 138.9,138.8 138.7,138.9 138.5,139 138.3,139.1 
		138.1,139.3 138,139.4 137.8,139.5 137.4,139.8 137.1,140 136.9,140.2 136.7,140.3 136.6,140.5 136.4,140.6 136.3,140.8 
		136.1,140.9 136,141.1 135.8,141.2 135.7,141.4 135.5,141.6 135.4,141.7 135.2,141.9 135.1,142.1 135,142.3 134.8,142.4 
		134.7,142.6 134.5,143 134.3,143.2 134.2,143.3 134.1,143.5 134,143.7 133.9,143.9 133.7,144.3 133.6,144.5 133.5,144.7 
		133.5,144.9 133.4,145.1 133.3,145.3 133.2,145.5 133.1,145.9 133,146.4 132.8,146.8 132.8,147 132.7,147.4 132.7,147.6 
		132.6,147.9 132.6,148.1 132.6,148.3 132.6,148.5 132.5,148.7 132.5,149 132.5,149.2 132.5,149.4 132.5,149.6 132.5,149.8 
		132.5,150 132.5,150.3 132.5,150.5 132.5,150.7 132.6,150.9 132.6,151.1 132.6,151.4 132.6,151.6 132.7,151.8 132.7,152 
		132.8,152.4 132.8,152.6 132.9,152.9 133,153.1 133.1,153.5 133.2,153.9 133.3,154.1 133.4,154.3 133.5,154.5 133.5,154.7 
		133.6,154.9 133.7,155.1 133.9,155.5 134,155.7 134.1,155.9 134.2,156.1 134.3,156.3 134.5,156.5 134.6,156.6 134.7,156.8 
		134.8,157 135,157.2 135.1,157.4 135.4,157.7 135.5,157.9 135.7,158 135.8,158.2 136,158.4 136.1,158.5 136.3,158.7 136.4,158.8 
		136.6,159 136.7,159.1 136.9,159.3 137.1,159.4 137.2,159.5 137.4,159.7 137.6,159.8 137.8,159.9 138,160.1 138.3,160.3 
		138.7,160.5 138.9,160.6 139.1,160.7 139.3,160.8 139.5,160.9 139.7,161 139.9,161.1 140.1,161.2 140.3,161.3 140.5,161.4 
		140.7,161.5 140.9,161.5 141.1,161.6 141.3,161.7 141.5,161.7 141.9,161.9 142.1,161.9 142.4,162 142.8,162 143,162.1 143.2,162.1 
		143.4,162.1 143.7,162.2 144.1,162.2 144.3,162.2 144.7,162.2 145,162.2 145.2,162.2 145.6,162.2 145.8,162.2 146.1,162.2 
		146.3,162.2 146.5,162.2 146.7,162.1 146.9,162.1 147.1,162.1 147.4,162 147.6,162 147.8,161.9 148,161.9 148.2,161.8 148.4,161.8 
		148.6,161.7 148.8,161.6 149.1,161.6 149.3,161.5 149.5,161.4 149.9,161.3 150.1,161.2 150.3,161.1 150.5,161 150.7,160.9 
		150.9,160.8 151.1,160.7 151.4,160.5 151.6,160.4 151.8,160.2 152,160.1 152.4,159.9 152.7,159.6 152.9,159.5 153,159.3 
		153.2,159.2 153.4,159 153.5,158.9 153.7,158.7 153.9,158.6 154,158.4 154.3,158.1 154.5,158 154.7,157.6 154.9,157.4 155,157.3 
		155.1,157.1 155.4,156.7 155.6,156.4 155.7,156.2 155.9,156 156,155.8 156.1,155.6 156.2,155.4 156.3,155.2 156.5,154.8 
		156.5,154.6 156.6,154.4 156.7,154.2 156.8,154 156.9,153.8 156.9,153.6 157,153.4 157.1,153.2 157.2,152.8 157.2,152.5 
		157.3,152.3 157.3,152.1 157.4,151.7 157.4,151.5 157.4,151.3 157.5,151 157.5,150.8 157.5,150.4 157.5,149.9 157.5,149.7 	"/>
	<polyline class="st1" points="213.9,149.7 213.9,148.5 213.9,147.3 213.8,146.1 213.7,144.9 213.6,143.7 213.5,142.5 213.4,141.3 
		213.2,140.1 213,138.9 212.8,137.7 212.6,136.5 212.4,135.4 212.1,134.2 211.8,133 211.5,131.8 211.2,130.7 210.9,129.5 
		210.5,128.4 210.1,127.2 209.7,126.1 209.3,125 208.9,123.8 208.4,122.7 207.9,121.6 207.4,120.5 206.9,119.4 206.3,118.4 
		205.8,117.3 205.2,116.2 204.6,115.2 204,114.2 203.4,113.1 202.7,112.1 202.1,111.1 201.4,110.1 200.7,109.1 200,108.2 
		199.2,107.2 198.5,106.3 197.7,105.3 196.9,104.4 196.1,103.5 195.3,102.6 194.5,101.8 193.6,100.9 192.8,100.1 191.9,99.2 
		191,98.4 190.1,97.6 189.2,96.8 188.2,96.1 187.3,95.3 186.3,94.6 185.4,93.9 184.4,93.2 183.4,92.5 182.4,91.8 181.4,91.2 
		180.3,90.6 179.3,90 178.2,89.4 177.2,88.8 176.1,88.3 175,87.7 173.9,87.2 172.8,86.7 171.7,86.2 170.6,85.8 169.5,85.3 
		168.4,84.9 167.2,84.5 166.1,84.1 164.9,83.8 163.8,83.4 162.6,83.1 161.4,82.8 160.3,82.5 159.1,82.3 157.9,82.1 156.7,81.8 
		155.5,81.6 154.3,81.5 153.1,81.3 151.9,81.2 150.7,81.1 149.5,81 148.3,80.9 147.1,80.9 145.9,80.8 144.7,80.8 143.5,80.9 
		142.3,80.9 141.1,81 139.9,81 138.7,81.1 137.5,81.3 136.3,81.4 135.1,81.6 133.9,81.7 132.7,81.9 131.5,82.2 130.4,82.4 
		129.2,82.7 128,83 126.8,83.3 125.7,83.6 124.5,84 123.4,84.3 122.2,84.7 121.1,85.1 120,85.5 118.9,86 117.8,86.5 116.7,87 
		115.6,87.5 114.5,88 113.4,88.5 112.3,89.1 111.3,89.7 110.2,90.3 109.2,90.9 108.2,91.5 107.2,92.2 106.2,92.8 105.2,93.5 
		104.2,94.2 103.2,95 102.3,95.7 101.3,96.5 100.4,97.2 99.5,98 98.6,98.8 97.7,99.6 96.8,100.5 96,101.3 95.2,102.2 94.3,103.1 
		93.5,104 92.7,104.9 92,105.8 91.2,106.7 90.4,107.7 89.7,108.6 89,109.6 88.3,110.6 87.6,111.6 87,112.6 86.3,113.6 85.7,114.7 
		85.1,115.7 84.5,116.8 84,117.8 83.4,118.9 82.9,120 82.4,121.1 81.9,122.2 81.4,123.3 81,124.4 80.5,125.5 80.1,126.7 79.7,127.8 
		79.3,129 79,130.1 78.7,131.3 78.3,132.4 78,133.6 77.8,134.8 77.5,136 77.3,137.1 77.1,138.3 76.9,139.5 76.7,140.7 76.6,141.9 
		76.5,143.1 76.3,144.3 76.3,145.5 76.2,146.7 76.2,147.9 76.1,149.1 76.1,150.3 76.2,151.5 76.2,152.7 76.3,153.9 76.3,155.1 
		76.5,156.3 76.6,157.5 76.7,158.7 76.9,159.9 77.1,161.1 77.3,162.3 77.5,163.5 77.8,164.7 78,165.8 78.3,167 78.7,168.2 79,169.3 
		79.3,170.5 79.7,171.6 80.1,172.8 80.5,173.9 81,175 81.4,176.1 81.9,177.3 82.4,178.4 82.9,179.5 83.4,180.5 84,181.6 84.5,182.7 
		85.1,183.7 85.7,184.8 86.3,185.8 87,186.8 87.6,187.8 88.3,188.8 89,189.8 89.7,190.8 90.4,191.8 91.2,192.7 92,193.6 92.7,194.6 
		93.5,195.5 94.3,196.4 95.2,197.2 96,198.1 96.8,199 97.7,199.8 98.6,200.6 99.5,201.4 100.4,202.2 101.3,203 102.3,203.7 
		103.2,204.5 104.2,205.2 105.2,205.9 106.2,206.6 107.2,207.3 108.2,207.9 109.2,208.6 110.2,209.2 111.3,209.8 112.3,210.4 
		113.4,210.9 114.5,211.5 115.6,212 116.7,212.5 117.8,213 118.9,213.4 120,213.9 121.1,214.3 122.2,214.7 123.4,215.1 124.5,215.5 
		125.7,215.8 126.8,216.2 128,216.5 129.2,216.8 130.4,217 131.5,217.3 132.7,217.5 133.9,217.7 135.1,217.9 136.3,218 137.5,218.2 
		138.7,218.3 139.9,218.4 141.1,218.5 142.3,218.5 143.5,218.6 144.7,218.6 145.9,218.6 147.1,218.6 148.3,218.5 149.5,218.5 
		150.7,218.4 151.9,218.3 153.1,218.1 154.3,218 155.5,217.8 156.7,217.6 157.9,217.4 159.1,217.1 160.3,216.9 161.4,216.6 
		162.6,216.3 163.8,216 164.9,215.7 166.1,215.3 167.2,214.9 168.4,214.5 169.5,214.1 170.6,213.7 171.7,213.2 172.8,212.7 
		173.9,212.2 175,211.7 176.1,211.2 177.2,210.6 178.2,210.1 179.3,209.5 180.3,208.9 181.4,208.2 182.4,207.6 183.4,206.9 
		184.4,206.3 185.4,205.6 186.3,204.8 187.3,204.1 188.2,203.4 189.2,202.6 190.1,201.8 191,201 191.9,200.2 192.8,199.4 
		193.6,198.5 194.5,197.7 195.3,196.8 196.1,195.9 196.9,195 197.7,194.1 198.5,193.2 199.2,192.2 200,191.3 200.7,190.3 
		201.4,189.3 202.1,188.3 202.7,187.3 203.4,186.3 204,185.3 204.6,184.2 205.2,183.2 205.8,182.1 206.3,181.1 206.9,180 
		207.4,178.9 207.9,177.8 208.4,176.7 208.9,175.6 209.3,174.5 209.7,173.3 210.1,172.2 210.5,171.1 210.9,169.9 211.2,168.8 
		211.5,167.6 211.8,166.4 212.1,165.3 212.4,164.1 212.6,162.9 212.8,161.7 213,160.5 213.2,159.3 213.4,158.1 213.5,156.9 
		213.6,155.7 213.7,154.5 213.8,153.3 213.9,152.1 213.9,150.9 213.9,149.7 	"/>
	<polyline class="st2" points="270.3,149.7 270.2,147.5 270.2,145.3 270.1,143.1 270,141 269.8,138.8 269.6,136.6 269.3,134.4 
		269,132.2 268.7,130.1 268.3,127.9 267.9,125.8 267.5,123.6 267,121.5 266.5,119.3 266,117.2 265.4,115.1 264.8,113 264.1,110.9 
		263.4,108.8 262.7,106.8 261.9,104.7 261.1,102.7 260.2,100.7 259.4,98.6 258.5,96.7 257.5,94.7 256.5,92.7 255.5,90.8 254.5,88.8 
		253.4,86.9 252.3,85.1 251.1,83.2 249.9,81.3 248.7,79.5 247.5,77.7 246.2,75.9 244.9,74.2 243.6,72.4 242.2,70.7 240.8,69 
		239.4,67.4 237.9,65.7 236.4,64.1 234.9,62.5 233.4,61 231.8,59.4 230.2,57.9 228.6,56.5 227,55 225.3,53.6 223.6,52.2 221.9,50.8 
		220.1,49.5 218.4,48.2 216.6,46.9 214.8,45.7 212.9,44.5 211.1,43.3 209.2,42.2 207.3,41.1 205.4,40 203.5,39 201.5,38 199.6,37 
		197.6,36 195.6,35.1 193.6,34.3 191.5,33.4 189.5,32.6 187.5,31.9 185.4,31.2 183.3,30.5 181.2,29.8 179.1,29.2 177,28.6 
		174.9,28.1 172.7,27.6 170.6,27.1 168.4,26.7 166.3,26.3 164.1,25.9 162,25.6 159.8,25.4 157.6,25.1 155.4,24.9 153.2,24.8 
		151,24.6 148.9,24.5 146.7,24.5 144.5,24.5 142.3,24.5 140.1,24.6 137.9,24.7 135.7,24.8 133.5,25 131.3,25.2 129.2,25.5 127,25.8 
		124.8,26.1 122.7,26.5 120.5,26.9 118.4,27.3 116.2,27.8 114.1,28.4 112,28.9 109.9,29.5 107.8,30.1 105.7,30.8 103.6,31.5 
		101.6,32.3 99.5,33 97.5,33.9 95.5,34.7 93.4,35.6 91.5,36.5 89.5,37.5 87.5,38.5 85.6,39.5 83.7,40.5 81.8,41.6 79.9,42.8 
		78,43.9 76.2,45.1 74.4,46.3 72.6,47.6 70.8,48.9 69,50.2 67.3,51.5 65.6,52.9 63.9,54.3 62.3,55.7 60.6,57.2 59,58.7 57.4,60.2 
		55.9,61.7 54.4,63.3 52.9,64.9 51.4,66.5 49.9,68.2 48.5,69.9 47.2,71.6 45.8,73.3 44.5,75 43.2,76.8 41.9,78.6 40.7,80.4 
		39.5,82.3 38.3,84.1 37.2,86 36.1,87.9 35,89.8 34,91.7 33,93.7 32,95.7 31.1,97.6 30.2,99.6 29.4,101.7 28.5,103.7 27.8,105.7 
		27,107.8 26.3,109.9 25.6,112 25,114.1 24.4,116.2 23.8,118.3 23.3,120.4 22.8,122.5 22.3,124.7 21.9,126.8 21.5,129 21.2,131.2 
		20.9,133.3 20.6,135.5 20.4,137.7 20.2,139.9 20,142.1 19.9,144.2 19.8,146.4 19.8,148.6 19.8,150.8 19.8,153 19.9,155.2 20,157.4 
		20.2,159.6 20.4,161.8 20.6,163.9 20.9,166.1 21.2,168.3 21.5,170.4 21.9,172.6 22.3,174.8 22.8,176.9 23.3,179 23.8,181.2 
		24.4,183.3 25,185.4 25.6,187.5 26.3,189.6 27,191.6 27.8,193.7 28.5,195.7 29.4,197.8 30.2,199.8 31.1,201.8 32,203.8 33,205.7 
		34,207.7 35,209.6 36.1,211.5 37.2,213.4 38.3,215.3 39.5,217.2 40.7,219 41.9,220.8 43.2,222.6 44.5,224.4 45.8,226.1 47.2,227.9 
		48.5,229.6 49.9,231.2 51.4,232.9 52.9,234.5 54.4,236.1 55.9,237.7 57.4,239.2 59,240.8 60.6,242.3 62.3,243.7 63.9,245.1 
		65.6,246.6 67.3,247.9 69,249.3 70.8,250.6 72.6,251.9 74.4,253.1 76.2,254.3 78,255.5 79.9,256.7 81.8,257.8 83.7,258.9 85.6,260 
		87.5,261 89.5,262 91.5,262.9 93.4,263.8 95.5,264.7 97.5,265.6 99.5,266.4 101.6,267.2 103.6,267.9 105.7,268.6 107.8,269.3 
		109.9,269.9 112,270.5 114.1,271.1 116.2,271.6 118.4,272.1 120.5,272.5 122.7,273 124.8,273.3 127,273.7 129.2,274 131.3,274.2 
		133.5,274.4 135.7,274.6 137.9,274.8 140.1,274.9 142.3,274.9 144.5,275 146.7,274.9 148.9,274.9 151,274.8 153.2,274.7 
		155.4,274.5 157.6,274.3 159.8,274.1 162,273.8 164.1,273.5 166.3,273.1 168.4,272.7 170.6,272.3 172.7,271.9 174.9,271.3 
		177,270.8 179.1,270.2 181.2,269.6 183.3,269 185.4,268.3 187.5,267.6 189.5,266.8 191.5,266 193.6,265.2 195.6,264.3 197.6,263.4 
		199.6,262.5 201.5,261.5 203.5,260.5 205.4,259.4 207.3,258.4 209.2,257.3 211.1,256.1 212.9,254.9 214.8,253.7 216.6,252.5 
		218.4,251.2 220.1,249.9 221.9,248.6 223.6,247.2 225.3,245.9 227,244.4 228.6,243 230.2,241.5 231.8,240 233.4,238.5 234.9,236.9 
		236.4,235.3 237.9,233.7 239.4,232.1 240.8,230.4 242.2,228.7 243.6,227 244.9,225.3 246.2,223.5 247.5,221.7 248.7,219.9 
		249.9,218.1 251.1,216.3 252.3,214.4 253.4,212.5 254.5,210.6 255.5,208.7 256.5,206.7 257.5,204.8 258.5,202.8 259.4,200.8 
		260.2,198.8 261.1,196.8 261.9,194.7 262.7,192.7 263.4,190.6 264.1,188.5 264.8,186.4 265.4,184.3 266,182.2 266.5,180.1 267,178 
		267.5,175.8 267.9,173.7 268.3,171.5 268.7,169.4 269,167.2 269.3,165 269.6,162.8 269.8,160.7 270,158.5 270.1,156.3 270.2,154.1 
		270.2,151.9 270.3,149.7 	"/>
	<g>
		<text transform="matrix(1 0 0 1 1.869202e-004 225.8058)" class="st3 st4">CR</text>
		<text transform="matrix(1 0 0 1 9.486 81.7784)" class="st3 st4">F</text>
		<text transform="matrix(1 0 0 1 137.125 9.7667)" class="st3 st4">AR</text>
		<text transform="matrix(1 0 0 1 137.4358 297.8175)" class="st3 st4">TR</text>
		<text transform="matrix(1 0 0 1 268.7477 81.7785)" class="st3 st4">RC</text>
		<text transform="matrix(1 0 0 1 268.7477 225.8058)" class="st3 st4">TRC</text>
	</g>
	<polygon class="st5" points="270.3,149.7 270.2,147.5 270.2,145.3 270.1,143.1 270,141 269.8,138.8 269.6,136.6 269.3,134.4 
		269,132.2 268.7,130.1 268.3,127.9 267.9,125.8 267.5,123.6 267,121.5 266.5,119.3 266,117.2 265.4,115.1 264.8,113 264.1,110.9 
		263.4,108.8 262.7,106.8 261.9,104.7 261.1,102.7 260.2,100.7 259.4,98.6 258.5,96.7 257.5,94.7 256.5,92.7 255.5,90.8 254.5,88.8 
		253.4,86.9 252.3,85.1 251.1,83.2 249.9,81.3 248.7,79.5 247.5,77.7 246.2,75.9 244.9,74.2 243.6,72.4 242.2,70.7 240.8,69 
		239.4,67.4 237.9,65.7 236.4,64.1 234.9,62.5 233.4,61 231.8,59.4 230.2,57.9 228.6,56.5 227,55 225.3,53.6 223.6,52.2 221.9,50.8 
		220.1,49.5 218.4,48.2 216.6,46.9 214.8,45.7 212.9,44.5 211.1,43.3 209.2,42.2 207.3,41.1 205.4,40 203.5,39 201.5,38 199.6,37 
		197.6,36 195.6,35.1 193.6,34.3 191.5,33.4 189.5,32.6 187.5,31.9 185.4,31.2 183.3,30.5 181.2,29.8 179.1,29.2 177,28.6 
		174.9,28.1 172.7,27.6 170.6,27.1 168.4,26.7 166.3,26.3 164.1,25.9 162,25.6 159.8,25.4 157.6,25.1 155.4,24.9 153.2,24.8 
		151,24.6 148.9,24.5 146.7,24.5 144.5,24.5 142.3,24.5 140.1,24.6 137.9,24.7 135.7,24.8 133.5,25 131.3,25.2 129.2,25.5 127,25.8 
		124.8,26.1 122.7,26.5 120.5,26.9 118.4,27.3 116.2,27.8 114.1,28.4 112,28.9 109.9,29.5 107.8,30.1 105.7,30.8 103.6,31.5 
		101.6,32.3 99.5,33 97.5,33.9 95.5,34.7 93.4,35.6 91.5,36.5 89.5,37.5 87.5,38.5 85.6,39.5 83.7,40.5 81.8,41.6 79.9,42.8 
		78,43.9 76.2,45.1 74.4,46.3 72.6,47.6 70.8,48.9 69,50.2 67.3,51.5 65.6,52.9 63.9,54.3 62.3,55.7 60.6,57.2 59,58.7 57.4,60.2 
		55.9,61.7 54.4,63.3 52.9,64.9 51.4,66.5 49.9,68.2 48.5,69.9 47.2,71.6 45.8,73.3 44.5,75 43.2,76.8 41.9,78.6 40.7,80.4 
		39.5,82.3 38.3,84.1 37.2,86 36.1,87.9 35,89.8 34,91.7 33,93.7 32,95.7 31.1,97.6 30.2,99.6 29.4,101.7 28.5,103.7 27.8,105.7 
		27,107.8 26.3,109.9 25.6,112 25,114.1 24.4,116.2 23.8,118.3 23.3,120.4 22.8,122.5 22.3,124.7 21.9,126.8 21.5,129 21.2,131.2 
		20.9,133.3 20.6,135.5 20.4,137.7 20.2,139.9 20,142.1 19.9,144.2 19.8,146.4 19.8,148.6 19.8,150.8 19.8,153 19.9,155.2 20,157.4 
		20.2,159.6 20.4,161.8 20.6,163.9 20.9,166.1 21.2,168.3 21.5,170.4 21.9,172.6 22.3,174.8 22.8,176.9 23.3,179 23.8,181.2 
		24.4,183.3 25,185.4 25.6,187.5 26.3,189.6 27,191.6 27.8,193.7 28.5,195.7 29.4,197.8 30.2,199.8 31.1,201.8 32,203.8 33,205.7 
		34,207.7 35,209.6 36.1,211.5 37.2,213.4 38.3,215.3 39.5,217.2 40.7,219 41.9,220.8 43.2,222.6 44.5,224.4 45.8,226.1 47.2,227.9 
		48.5,229.6 49.9,231.2 51.4,232.9 52.9,234.5 54.4,236.1 55.9,237.7 57.4,239.2 59,240.8 60.6,242.3 62.3,243.7 63.9,245.1 
		65.6,246.6 67.3,247.9 69,249.3 70.8,250.6 72.6,251.9 74.4,253.1 76.2,254.3 78,255.5 79.9,256.7 81.8,257.8 83.7,258.9 85.6,260 
		87.5,261 89.5,262 91.5,262.9 93.4,263.8 95.5,264.7 97.5,265.6 99.5,266.4 101.6,267.2 103.6,267.9 105.7,268.6 107.8,269.3 
		109.9,269.9 112,270.5 114.1,271.1 116.2,271.6 118.4,272.1 120.5,272.5 122.7,273 124.8,273.3 127,273.7 129.2,274 131.3,274.2 
		133.5,274.4 135.7,274.6 137.9,274.8 140.1,274.9 142.3,274.9 144.5,275 146.7,274.9 148.9,274.9 151,274.8 153.2,274.7 
		155.4,274.5 157.6,274.3 159.8,274.1 162,273.8 164.1,273.5 166.3,273.1 168.4,272.7 170.6,272.3 172.7,271.9 174.9,271.3 
		177,270.8 179.1,270.2 181.2,269.6 183.3,269 185.4,268.3 187.5,267.6 189.5,266.8 191.5,266 193.6,265.2 195.6,264.3 197.6,263.4 
		199.6,262.5 201.5,261.5 203.5,260.5 205.4,259.4 207.3,258.4 209.2,257.3 211.1,256.1 212.9,254.9 214.8,253.7 216.6,252.5 
		218.4,251.2 220.1,249.9 221.9,248.6 223.6,247.2 225.3,245.9 227,244.4 228.6,243 230.2,241.5 231.8,240 233.4,238.5 234.9,236.9 
		236.4,235.3 237.9,233.7 239.4,232.1 240.8,230.4 242.2,228.7 243.6,227 244.9,225.3 246.2,223.5 247.5,221.7 248.7,219.9 
		249.9,218.1 251.1,216.3 252.3,214.4 253.4,212.5 254.5,210.6 255.5,208.7 256.5,206.7 257.5,204.8 258.5,202.8 259.4,200.8 
		260.2,198.8 261.1,196.8 261.9,194.7 262.7,192.7 263.4,190.6 264.1,188.5 264.8,186.4 265.4,184.3 266,182.2 266.5,180.1 267,178 
		267.5,175.8 267.9,173.7 268.3,171.5 268.7,169.4 269,167.2 269.3,165 269.6,162.8 269.8,160.7 270,158.5 270.1,156.3 270.2,154.1 
		270.2,151.9 	"/>
	<line class="st6" x1="145" y1="137.2" x2="145" y2="24.5"/>
	<line class="st6" x1="155.9" y1="143.5" x2="253.5" y2="87.1"/>
	<line class="st6" x1="155.9" y1="156" x2="253.5" y2="212.3"/>
	<line class="st6" x1="145" y1="162.2" x2="145" y2="275"/>
	<line class="st6" x1="134.2" y1="156" x2="36.6" y2="212.3"/>
	<line class="st6" x1="134.2" y1="143.5" x2="36.6" y2="87.1"/>
	<g>
		<polyline class="st7" points="144.9,24.6 165.5,137.4 174.4,166.3 144.9,172.4 121.8,162.6 120.2,135 144.9,24.6 		"/>
		<path class="st8" d="M147.2,24.6c0,3.1-4.6,3.1-4.6,0C142.6,21.5,147.2,21.5,147.2,24.6"/>
		<path class="st9" d="M167.8,137.4c0,3.1-4.6,3.1-4.6,0C163.2,134.3,167.8,134.3,167.8,137.4"/>
		<path class="st9" d="M176.7,166.3c0,3.1-4.6,3.1-4.6,0C172.1,163.3,176.7,163.3,176.7,166.3"/>
		<path class="st9" d="M147.2,172.4c0,3.1-4.6,3.1-4.6,0C142.6,169.3,147.2,169.3,147.2,172.4"/>
		<path class="st9" d="M124.1,162.6c0,3.1-4.6,3.1-4.6,0C119.5,159.6,124.1,159.6,124.1,162.6"/>
		<path class="st9" d="M122.5,135c0,3.1-4.6,3.1-4.6,0C117.9,132,122.5,132,122.5,135"/>
		<path class="st9" d="M147.2,24.6c0,3.1-4.6,3.1-4.6,0C142.6,21.5,147.2,21.5,147.2,24.6"/>
		<polyline class="st10" points="144.9,24.6 165.5,137.4 174.4,166.3 144.9,172.4 121.8,162.6 120.2,135 144.9,24.6 		"/>
	</g>
	<polyline class="st7" points="145,137.2 155.9,143.5 155.9,156 145,162.2 134.2,156 134.2,143.5 145,137.2 	"/>
	<g>
		<path class="st9" d="M136.5,143.5c0,3.1-4.6,3.1-4.6,0C131.9,140.5,136.5,140.5,136.5,143.5"/>
		<path class="st9" d="M147.4,137.3c0,3.1-4.6,3.1-4.6,0C142.8,134.2,147.4,134.2,147.4,137.3"/>
		<path class="st9" d="M136.5,155.9c0,3.1-4.6,3.1-4.6,0C131.9,152.9,136.5,152.9,136.5,155.9"/>
		<path class="st9" d="M147.4,162.5c0,3.1-4.6,3.1-4.6,0C142.8,159.4,147.4,159.4,147.4,162.5"/>
		<path class="st9" d="M158.3,155.9c0,3.1-4.6,3.1-4.6,0C153.7,152.9,158.3,152.9,158.3,155.9"/>
		<path class="st9" d="M158.3,143.5c0,3.1-4.6,3.1-4.6,0C153.7,140.5,158.3,140.5,158.3,143.5"/>
	</g>
	<text transform="matrix(1 0 0 1 125.2714 93.0437)" class="st11 st3 st12">50%</text>
	<text transform="matrix(1 0 0 1 120.2089 37.7394)" class="st11 st3 st12">100%</text>
	<g>
		<polyline class="st13" points="145,54 253.7,86.8 253.7,212.3 145,275 36.4,212.3 36.4,86.8 145,54 		"/>
		<path class="st14" d="M147.3,54c0,3.1-4.6,3.1-4.6,0C142.7,50.9,147.3,50.9,147.3,54"/>
		<path class="st15" d="M256,86.8c0,3.1-4.6,3.1-4.6,0C251.4,83.7,256,83.7,256,86.8"/>
		<path class="st15" d="M256,212.3c0,3.1-4.6,3.1-4.6,0C251.4,209.2,256,209.2,256,212.3"/>
		<path class="st15" d="M147.3,275c0,3.1-4.6,3.1-4.6,0C142.7,271.9,147.3,271.9,147.3,275"/>
		<path class="st15" d="M38.7,212.3c0,3.1-4.6,3.1-4.6,0C34.1,209.2,38.7,209.2,38.7,212.3"/>
		<path class="st15" d="M38.7,86.8c0,3.1-4.6,3.1-4.6,0C34.1,83.7,38.7,83.7,38.7,86.8"/>
		<path class="st15" d="M147.3,54c0,3.1-4.6,3.1-4.6,0C142.7,50.9,147.3,50.9,147.3,54"/>
		<polyline class="st16" points="145,54 253.7,86.8 253.7,212.3 145,275 36.4,212.3 36.4,86.8 145,54 		"/>
	</g>
</g>
<g>
	<polyline class="st0" points="516.9,150.8 516.9,150.5 516.9,150.1 516.8,149.7 516.8,149.4 516.8,149 516.7,148.8 516.7,148.6 
		516.6,148.4 516.6,148.1 516.6,147.9 516.5,147.7 516.4,147.3 516.3,146.9 516.2,146.7 516.1,146.5 516,146.1 515.8,145.6 
		515.7,145.4 515.6,145.3 515.5,145.1 515.4,144.9 515.3,144.7 515.1,144.3 515,144.1 514.8,143.9 514.7,143.7 514.6,143.6 
		514.5,143.4 514.2,143 514.1,142.9 513.9,142.7 513.8,142.5 513.5,142.2 513.3,142 513.2,141.9 513,141.7 512.9,141.6 512.7,141.4 
		512.5,141.3 512.2,141 512,140.9 511.9,140.7 511.7,140.6 511.3,140.4 511.1,140.2 511,140.1 510.8,140 510.4,139.8 510.2,139.7 
		509.8,139.5 509.6,139.4 509.4,139.3 509,139.1 508.6,139 508.4,138.9 508.2,138.8 508,138.8 507.8,138.7 507.5,138.6 507.3,138.6 
		507.1,138.5 506.9,138.5 506.7,138.5 506.5,138.4 506.3,138.4 506,138.3 505.8,138.3 505.6,138.3 505.4,138.3 505,138.2 
		504.7,138.2 504.5,138.2 504.1,138.2 503.9,138.2 503.6,138.3 503.2,138.3 502.8,138.3 502.5,138.4 502.3,138.4 502.1,138.4 
		501.7,138.5 501.5,138.6 501.3,138.6 501,138.7 500.6,138.8 500.4,138.9 500.2,138.9 500,139 499.8,139.1 499.6,139.2 499.4,139.3 
		499.2,139.3 499,139.4 498.8,139.5 498.6,139.6 498.2,139.8 498,139.9 497.8,140.1 497.6,140.2 497.5,140.3 497.3,140.4 
		497.1,140.5 496.8,140.8 496.4,141.1 496.2,141.2 496.1,141.4 495.9,141.5 495.8,141.7 495.6,141.8 495.4,142 495.3,142.1 
		495.1,142.3 495,142.4 494.8,142.6 494.7,142.8 494.6,142.9 494.4,143.1 494.3,143.3 494.2,143.5 494,143.6 493.8,144 493.7,144.2 
		493.6,144.4 493.5,144.6 493.4,144.8 493.2,145 493.1,145.4 493,145.6 492.9,145.7 492.8,146 492.7,146.2 492.6,146.4 492.5,146.6 
		492.4,147 492.3,147.4 492.2,147.8 492.1,148 492,148.5 492,148.7 492,148.9 491.9,149.1 491.9,149.3 491.9,149.6 491.9,149.8 
		491.8,150 491.8,150.2 491.8,150.4 491.8,150.6 491.8,150.9 491.8,151.1 491.8,151.3 491.8,151.5 491.9,151.7 491.9,152 
		491.9,152.2 491.9,152.4 492,152.6 492,152.8 492,153 492.1,153.5 492.2,153.7 492.2,153.9 492.3,154.1 492.4,154.5 492.5,154.9 
		492.6,155.2 492.7,155.4 492.8,155.6 492.9,155.8 493,156 493.1,156.2 493.2,156.6 493.4,156.7 493.5,156.9 493.6,157.1 
		493.7,157.3 493.8,157.5 493.9,157.7 494,157.9 494.2,158 494.3,158.2 494.4,158.4 494.7,158.7 494.8,158.9 495,159.1 495.1,159.2 
		495.3,159.4 495.4,159.6 495.6,159.7 495.8,159.9 495.9,160 496.1,160.2 496.2,160.3 496.4,160.4 496.6,160.6 496.8,160.7 
		496.9,160.8 497.1,161 497.3,161.1 497.6,161.3 498,161.6 498.2,161.7 498.4,161.8 498.6,161.9 498.8,162 499,162.1 499.2,162.2 
		499.4,162.3 499.6,162.3 499.8,162.4 500,162.5 500.2,162.6 500.4,162.6 500.6,162.7 500.8,162.8 501.3,162.9 501.5,162.9 
		501.7,163 502.1,163.1 502.3,163.1 502.5,163.2 502.8,163.2 503,163.2 503.4,163.2 503.6,163.3 504.1,163.3 504.3,163.3 
		504.5,163.3 505,163.3 505.2,163.3 505.4,163.2 505.6,163.2 505.8,163.2 506,163.2 506.3,163.1 506.5,163.1 506.7,163.1 506.9,163 
		507.1,163 507.3,162.9 507.5,162.9 507.8,162.8 508,162.7 508.2,162.7 508.4,162.6 508.6,162.5 508.8,162.5 509.2,162.3 
		509.4,162.2 509.6,162.1 509.8,162 510,161.9 510.2,161.8 510.4,161.7 510.8,161.5 511,161.4 511.1,161.3 511.3,161.2 511.7,160.9 
		512,160.6 512.2,160.5 512.4,160.4 512.5,160.2 512.7,160.1 512.9,159.9 513,159.8 513.2,159.6 513.3,159.5 513.6,159.2 513.8,159 
		514.1,158.7 514.2,158.5 514.3,158.3 514.5,158.1 514.7,157.8 515,157.4 515.1,157.2 515.2,157 515.3,156.8 515.4,156.7 
		515.5,156.5 515.6,156.3 515.8,155.9 515.9,155.7 516,155.5 516,155.3 516.1,155.1 516.2,154.8 516.3,154.6 516.3,154.4 
		516.4,154.2 516.5,153.8 516.6,153.6 516.6,153.4 516.6,153.2 516.7,152.7 516.8,152.5 516.8,152.3 516.8,152.1 516.8,151.9 
		516.9,151.4 516.9,151 516.9,150.8 	"/>
	<polyline class="st1" points="573.2,150.8 573.2,149.6 573.2,148.3 573.1,147.1 573.1,145.9 573,144.7 572.9,143.5 572.7,142.3 
		572.6,141.1 572.4,140 572.2,138.8 572,137.6 571.7,136.4 571.5,135.2 571.2,134 570.9,132.9 570.5,131.7 570.2,130.6 569.8,129.4 
		569.5,128.3 569.1,127.1 568.6,126 568.2,124.9 567.7,123.8 567.2,122.7 566.7,121.6 566.2,120.5 565.7,119.4 565.1,118.3 
		564.5,117.3 564,116.2 563.3,115.2 562.7,114.2 562.1,113.1 561.4,112.1 560.7,111.2 560,110.2 559.3,109.2 558.6,108.2 
		557.8,107.3 557,106.4 556.2,105.5 555.4,104.6 554.6,103.7 553.8,102.8 553,101.9 552.1,101.1 551.2,100.3 550.3,99.5 549.4,98.7 
		548.5,97.9 547.6,97.1 546.6,96.4 545.7,95.6 544.7,94.9 543.7,94.2 542.7,93.5 541.7,92.9 540.7,92.2 539.7,91.6 538.6,91 
		537.6,90.4 536.5,89.8 535.4,89.3 534.4,88.8 533.3,88.2 532.2,87.7 531.1,87.3 529.9,86.8 528.8,86.4 527.7,85.9 526.6,85.6 
		525.4,85.2 524.3,84.8 523.1,84.5 521.9,84.2 520.8,83.9 519.6,83.6 518.4,83.3 517.2,83.1 516,82.9 514.9,82.7 513.7,82.5 
		512.5,82.4 511.3,82.2 510.1,82.1 508.9,82 507.7,82 506.5,81.9 505.3,81.9 504,81.9 502.8,81.9 501.6,81.9 500.4,82 499.2,82.1 
		498,82.2 496.8,82.3 495.6,82.4 494.4,82.6 493.2,82.8 492.1,83 490.9,83.2 489.7,83.5 488.5,83.7 487.3,84 486.2,84.3 485,84.6 
		483.9,85 482.7,85.4 481.6,85.7 480.4,86.2 479.3,86.6 478.2,87 477.1,87.5 476,88 474.9,88.5 473.8,89 472.7,89.6 471.7,90.1 
		470.6,90.7 469.6,91.3 468.5,91.9 467.5,92.6 466.5,93.2 465.5,93.9 464.5,94.6 463.5,95.3 462.6,96 461.6,96.7 460.7,97.5 
		459.7,98.3 458.8,99.1 457.9,99.9 457,100.7 456.2,101.5 455.3,102.4 454.5,103.2 453.7,104.1 452.9,105 452.1,105.9 451.3,106.8 
		450.5,107.8 449.8,108.7 449.1,109.7 448.3,110.7 447.6,111.6 447,112.6 446.3,113.7 445.7,114.7 445.1,115.7 444.4,116.8 
		443.9,117.8 443.3,118.9 442.7,119.9 442.2,121 441.7,122.1 441.2,123.2 440.7,124.3 440.3,125.4 439.9,126.6 439.4,127.7 
		439,128.8 438.7,130 438.3,131.1 438,132.3 437.7,133.5 437.4,134.6 437.1,135.8 436.9,137 436.6,138.2 436.4,139.4 436.2,140.5 
		436.1,141.7 435.9,142.9 435.8,144.1 435.7,145.3 435.6,146.5 435.5,147.7 435.5,148.9 435.5,150.2 435.5,151.4 435.5,152.6 
		435.5,153.8 435.6,155 435.7,156.2 435.8,157.4 435.9,158.6 436.1,159.8 436.2,161 436.4,162.2 436.6,163.3 436.9,164.5 
		437.1,165.7 437.4,166.9 437.7,168.1 438,169.2 438.3,170.4 438.7,171.5 439,172.7 439.4,173.8 439.9,174.9 440.3,176.1 
		440.7,177.2 441.2,178.3 441.7,179.4 442.2,180.5 442.7,181.6 443.3,182.6 443.9,183.7 444.4,184.8 445.1,185.8 445.7,186.8 
		446.3,187.9 447,188.9 447.6,189.9 448.3,190.9 449.1,191.8 449.8,192.8 450.5,193.7 451.3,194.7 452.1,195.6 452.9,196.5 
		453.7,197.4 454.5,198.3 455.3,199.1 456.2,200 457,200.8 457.9,201.6 458.8,202.5 459.7,203.2 460.7,204 461.6,204.8 462.6,205.5 
		463.5,206.2 464.5,206.9 465.5,207.6 466.5,208.3 467.5,209 468.5,209.6 469.6,210.2 470.6,210.8 471.7,211.4 472.7,212 
		473.8,212.5 474.9,213 476,213.5 477.1,214 478.2,214.5 479.3,214.9 480.4,215.4 481.6,215.8 482.7,216.2 483.9,216.5 485,216.9 
		486.2,217.2 487.3,217.5 488.5,217.8 489.7,218.1 490.9,218.3 492.1,218.5 493.2,218.7 494.4,218.9 495.6,219.1 496.8,219.2 
		498,219.3 499.2,219.4 500.4,219.5 501.6,219.6 502.8,219.6 504,219.6 505.3,219.6 506.5,219.6 507.7,219.6 508.9,219.5 
		510.1,219.4 511.3,219.3 512.5,219.2 513.7,219 514.9,218.8 516,218.6 517.2,218.4 518.4,218.2 519.6,217.9 520.8,217.7 
		521.9,217.4 523.1,217 524.3,216.7 525.4,216.3 526.6,216 527.7,215.6 528.8,215.1 529.9,214.7 531.1,214.2 532.2,213.8 
		533.3,213.3 534.4,212.8 535.4,212.2 536.5,211.7 537.6,211.1 538.6,210.5 539.7,209.9 540.7,209.3 541.7,208.6 542.7,208 
		543.7,207.3 544.7,206.6 545.7,205.9 546.6,205.1 547.6,204.4 548.5,203.6 549.4,202.9 550.3,202.1 551.2,201.2 552.1,200.4 
		553,199.6 553.8,198.7 554.6,197.8 555.4,197 556.2,196.1 557,195.1 557.8,194.2 558.6,193.3 559.3,192.3 560,191.3 560.7,190.4 
		561.4,189.4 562.1,188.4 562.7,187.4 563.3,186.3 564,185.3 564.5,184.2 565.1,183.2 565.7,182.1 566.2,181 566.7,179.9 
		567.2,178.8 567.7,177.7 568.2,176.6 568.6,175.5 569.1,174.4 569.5,173.2 569.8,172.1 570.2,170.9 570.5,169.8 570.9,168.6 
		571.2,167.5 571.5,166.3 571.7,165.1 572,163.9 572.2,162.7 572.4,161.6 572.6,160.4 572.7,159.2 572.9,158 573,156.8 573.1,155.6 
		573.1,154.4 573.2,153.2 573.2,152 573.2,150.8 	"/>
	<polyline class="st2" points="629.6,150.8 629.6,148.6 629.5,146.4 629.4,144.2 629.3,142 629.1,139.8 628.9,137.6 628.7,135.5 
		628.4,133.3 628,131.1 627.7,128.9 627.3,126.8 626.8,124.6 626.4,122.5 625.8,120.4 625.3,118.3 624.7,116.1 624.1,114 623.4,112 
		622.7,109.9 622,107.8 621.2,105.8 620.4,103.7 619.6,101.7 618.7,99.7 617.8,97.7 616.8,95.7 615.9,93.8 614.8,91.8 613.8,89.9 
		612.7,88 611.6,86.1 610.5,84.2 609.3,82.4 608.1,80.6 606.8,78.7 605.5,77 604.2,75.2 602.9,73.5 601.5,71.8 600.1,70.1 
		598.7,68.4 597.3,66.8 595.8,65.2 594.3,63.6 592.7,62 591.1,60.5 589.6,59 587.9,57.5 586.3,56 584.6,54.6 582.9,53.2 581.2,51.9 
		579.5,50.5 577.7,49.2 575.9,48 574.1,46.7 572.3,45.5 570.4,44.4 568.5,43.2 566.7,42.1 564.7,41 562.8,40 560.9,39 558.9,38 
		556.9,37.1 554.9,36.2 552.9,35.3 550.9,34.5 548.8,33.7 546.8,32.9 544.7,32.2 542.6,31.5 540.5,30.9 538.4,30.2 536.3,29.7 
		534.2,29.1 532.1,28.6 529.9,28.2 527.8,27.7 525.6,27.3 523.5,27 521.3,26.7 519.1,26.4 516.9,26.2 514.8,25.9 512.6,25.8 
		510.4,25.7 508.2,25.6 506,25.5 503.8,25.5 501.6,25.5 499.4,25.6 497.2,25.7 495,25.9 492.9,26 490.7,26.3 488.5,26.5 486.3,26.8 
		484.2,27.2 482,27.5 479.8,27.9 477.7,28.4 475.6,28.9 473.4,29.4 471.3,30 469.2,30.6 467.1,31.2 465,31.9 463,32.6 460.9,33.3 
		458.8,34.1 456.8,34.9 454.8,35.7 452.8,36.6 450.8,37.6 448.8,38.5 446.9,39.5 444.9,40.5 443,41.6 441.1,42.7 439.2,43.8 
		437.4,44.9 435.5,46.1 433.7,47.4 431.9,48.6 430.1,49.9 428.4,51.2 426.6,52.6 424.9,53.9 423.2,55.3 421.6,56.8 420,58.2 
		418.3,59.7 416.8,61.2 415.2,62.8 413.7,64.4 412.2,66 410.7,67.6 409.3,69.2 407.9,70.9 406.5,72.6 405.1,74.3 403.8,76.1 
		402.5,77.9 401.3,79.6 400,81.5 398.8,83.3 397.7,85.2 396.5,87 395.4,88.9 394.4,90.8 393.3,92.8 392.3,94.7 391.4,96.7 
		390.5,98.7 389.6,100.7 388.7,102.7 387.9,104.7 387.1,106.8 386.3,108.8 385.6,110.9 384.9,113 384.3,115.1 383.7,117.2 
		383.1,119.3 382.6,121.4 382.1,123.6 381.6,125.7 381.2,127.9 380.8,130 380.5,132.2 380.2,134.4 379.9,136.5 379.7,138.7 
		379.5,140.9 379.3,143.1 379.2,145.3 379.2,147.5 379.1,149.7 379.1,151.9 379.2,154 379.2,156.2 379.3,158.4 379.5,160.6 
		379.7,162.8 379.9,165 380.2,167.1 380.5,169.3 380.8,171.5 381.2,173.6 381.6,175.8 382.1,177.9 382.6,180.1 383.1,182.2 
		383.7,184.3 384.3,186.4 384.9,188.5 385.6,190.6 386.3,192.7 387.1,194.7 387.9,196.8 388.7,198.8 389.6,200.8 390.5,202.8 
		391.4,204.8 392.3,206.8 393.3,208.7 394.4,210.7 395.4,212.6 396.5,214.5 397.7,216.4 398.8,218.2 400,220.1 401.3,221.9 
		402.5,223.7 403.8,225.4 405.1,227.2 406.5,228.9 407.9,230.6 409.3,232.3 410.7,233.9 412.2,235.6 413.7,237.2 415.2,238.7 
		416.8,240.3 418.3,241.8 420,243.3 421.6,244.7 423.2,246.2 424.9,247.6 426.6,249 428.4,250.3 430.1,251.6 431.9,252.9 
		433.7,254.2 435.5,255.4 437.4,256.6 439.2,257.7 441.1,258.9 443,259.9 444.9,261 446.9,262 448.8,263 450.8,264 452.8,264.9 
		454.8,265.8 456.8,266.6 458.8,267.4 460.9,268.2 463,269 465,269.7 467.1,270.3 469.2,271 471.3,271.6 473.4,272.1 475.6,272.6 
		477.7,273.1 479.8,273.6 482,274 484.2,274.4 486.3,274.7 488.5,275 490.7,275.2 492.9,275.5 495,275.6 497.2,275.8 499.4,275.9 
		501.6,276 503.8,276 506,276 508.2,275.9 510.4,275.9 512.6,275.7 514.8,275.6 516.9,275.4 519.1,275.1 521.3,274.8 523.5,274.5 
		525.6,274.2 527.8,273.8 529.9,273.4 532.1,272.9 534.2,272.4 536.3,271.8 538.4,271.3 540.5,270.7 542.6,270 544.7,269.3 
		546.8,268.6 548.8,267.8 550.9,267 552.9,266.2 554.9,265.3 556.9,264.4 558.9,263.5 560.9,262.5 562.8,261.5 564.7,260.5 
		566.7,259.4 568.5,258.3 570.4,257.2 572.3,256 574.1,254.8 575.9,253.5 577.7,252.3 579.5,251 581.2,249.6 582.9,248.3 
		584.6,246.9 586.3,245.5 587.9,244 589.6,242.5 591.1,241 592.7,239.5 594.3,237.9 595.8,236.4 597.3,234.7 598.7,233.1 
		600.1,231.4 601.5,229.8 602.9,228 604.2,226.3 605.5,224.5 606.8,222.8 608.1,221 609.3,219.1 610.5,217.3 611.6,215.4 
		612.7,213.5 613.8,211.6 614.8,209.7 615.9,207.8 616.8,205.8 617.8,203.8 618.7,201.8 619.6,199.8 620.4,197.8 621.2,195.8 
		622,193.7 622.7,191.6 623.4,189.6 624.1,187.5 624.7,185.4 625.3,183.3 625.8,181.1 626.4,179 626.8,176.9 627.3,174.7 
		627.7,172.6 628,170.4 628.4,168.2 628.7,166.1 628.9,163.9 629.1,161.7 629.3,159.5 629.4,157.3 629.5,155.1 629.6,152.9 
		629.6,150.8 	"/>
	<polygon class="st5" points="631.5,150.8 631.5,148.6 631.5,146.4 631.4,144.2 631.2,142 631.1,139.8 630.9,137.6 630.6,135.5 
		630.3,133.3 630,131.1 629.6,128.9 629.2,126.8 628.8,124.6 628.3,122.5 627.8,120.4 627.3,118.3 626.7,116.1 626,114 625.4,112 
		624.7,109.9 623.9,107.8 623.2,105.8 622.4,103.7 621.5,101.7 620.7,99.7 619.7,97.7 618.8,95.7 617.8,93.8 616.8,91.8 615.8,89.9 
		614.7,88 613.6,86.1 612.4,84.2 611.2,82.4 610,80.6 608.8,78.7 607.5,77 606.2,75.2 604.8,73.5 603.5,71.8 602.1,70.1 600.7,68.4 
		599.2,66.8 597.7,65.2 596.2,63.6 594.7,62 593.1,60.5 591.5,59 589.9,57.5 588.2,56 586.6,54.6 584.9,53.2 583.2,51.9 581.4,50.5 
		579.7,49.2 577.9,48 576.1,46.7 574.2,45.5 572.4,44.4 570.5,43.2 568.6,42.1 566.7,41 564.8,40 562.8,39 560.9,38 558.9,37.1 
		556.9,36.2 554.9,35.3 552.8,34.5 550.8,33.7 548.7,32.9 546.7,32.2 544.6,31.5 542.5,30.9 540.4,30.2 538.3,29.7 536.2,29.1 
		534,28.6 531.9,28.2 529.7,27.7 527.6,27.3 525.4,27 523.2,26.7 521.1,26.4 518.9,26.2 516.7,25.9 514.5,25.8 512.3,25.7 
		510.1,25.6 507.9,25.5 505.8,25.5 503.6,25.5 501.4,25.6 499.2,25.7 497,25.9 494.8,26 492.6,26.3 490.5,26.5 488.3,26.8 
		486.1,27.2 484,27.5 481.8,27.9 479.7,28.4 477.5,28.9 475.4,29.4 473.3,30 471.2,30.6 469.1,31.2 467,31.9 464.9,32.6 462.8,33.3 
		460.8,34.1 458.8,34.9 456.7,35.7 454.7,36.6 452.7,37.6 450.8,38.5 448.8,39.5 446.9,40.5 445,41.6 443.1,42.7 441.2,43.8 
		439.3,44.9 437.5,46.1 435.6,47.4 433.8,48.6 432.1,49.9 430.3,51.2 428.6,52.6 426.9,53.9 425.2,55.3 423.5,56.8 421.9,58.2 
		420.3,59.7 418.7,61.2 417.2,62.8 415.6,64.4 414.1,66 412.7,67.6 411.2,69.2 409.8,70.9 408.4,72.6 407.1,74.3 405.8,76.1 
		404.5,77.9 403.2,79.6 402,81.5 400.8,83.3 399.6,85.2 398.5,87 397.4,88.9 396.3,90.8 395.3,92.8 394.3,94.7 393.3,96.7 
		392.4,98.7 391.5,100.7 390.6,102.7 389.8,104.7 389,106.8 388.3,108.8 387.6,110.9 386.9,113 386.3,115.1 385.6,117.2 
		385.1,119.3 384.5,121.4 384,123.6 383.6,125.7 383.2,127.9 382.8,130 382.4,132.2 382.1,134.4 381.9,136.5 381.6,138.7 
		381.5,140.9 381.3,143.1 381.2,145.3 381.1,147.5 381.1,149.7 381.1,151.9 381.1,154 381.2,156.2 381.3,158.4 381.5,160.6 
		381.6,162.8 381.9,165 382.1,167.1 382.4,169.3 382.8,171.5 383.2,173.6 383.6,175.8 384,177.9 384.5,180.1 385.1,182.2 
		385.6,184.3 386.3,186.4 386.9,188.5 387.6,190.6 388.3,192.7 389,194.7 389.8,196.8 390.6,198.8 391.5,200.8 392.4,202.8 
		393.3,204.8 394.3,206.8 395.3,208.7 396.3,210.7 397.4,212.6 398.5,214.5 399.6,216.4 400.8,218.2 402,220.1 403.2,221.9 
		404.5,223.7 405.8,225.4 407.1,227.2 408.4,228.9 409.8,230.6 411.2,232.3 412.7,233.9 414.1,235.6 415.6,237.2 417.2,238.7 
		418.7,240.3 420.3,241.8 421.9,243.3 423.5,244.7 425.2,246.2 426.9,247.6 428.6,249 430.3,250.3 432.1,251.6 433.8,252.9 
		435.6,254.2 437.5,255.4 439.3,256.6 441.2,257.7 443.1,258.9 445,259.9 446.9,261 448.8,262 450.8,263 452.7,264 454.7,264.9 
		456.7,265.8 458.8,266.6 460.8,267.4 462.8,268.2 464.9,269 467,269.7 469.1,270.3 471.2,271 473.3,271.6 475.4,272.1 477.5,272.6 
		479.7,273.1 481.8,273.6 484,274 486.1,274.4 488.3,274.7 490.5,275 492.6,275.2 494.8,275.5 497,275.6 499.2,275.8 501.4,275.9 
		503.6,276 505.8,276 507.9,276 510.1,275.9 512.3,275.9 514.5,275.7 516.7,275.6 518.9,275.4 521.1,275.1 523.2,274.8 525.4,274.5 
		527.6,274.2 529.7,273.8 531.9,273.4 534,272.9 536.2,272.4 538.3,271.8 540.4,271.3 542.5,270.7 544.6,270 546.7,269.3 
		548.7,268.6 550.8,267.8 552.8,267 554.9,266.2 556.9,265.3 558.9,264.4 560.9,263.5 562.8,262.5 564.8,261.5 566.7,260.5 
		568.6,259.4 570.5,258.3 572.4,257.2 574.2,256 576.1,254.8 577.9,253.5 579.7,252.3 581.4,251 583.2,249.6 584.9,248.3 
		586.6,246.9 588.2,245.5 589.9,244 591.5,242.5 593.1,241 594.7,239.5 596.2,237.9 597.7,236.4 599.2,234.7 600.7,233.1 
		602.1,231.4 603.5,229.8 604.8,228 606.2,226.3 607.5,224.5 608.8,222.8 610,221 611.2,219.1 612.4,217.3 613.6,215.4 614.7,213.5 
		615.8,211.6 616.8,209.7 617.8,207.8 618.8,205.8 619.7,203.8 620.7,201.8 621.5,199.8 622.4,197.8 623.2,195.8 623.9,193.7 
		624.7,191.6 625.4,189.6 626,187.5 626.7,185.4 627.3,183.3 627.8,181.1 628.3,179 628.8,176.9 629.2,174.7 629.6,172.6 630,170.4 
		630.3,168.2 630.6,166.1 630.9,163.9 631.1,161.7 631.2,159.5 631.4,157.3 631.5,155.1 631.5,152.9 	"/>
	<line class="st6" x1="504.3" y1="138.2" x2="504.3" y2="25.5"/>
	<line class="st6" x1="515.2" y1="144.5" x2="612.8" y2="88.1"/>
	<line class="st6" x1="515.2" y1="157" x2="612.8" y2="213.4"/>
	<line class="st6" x1="504.3" y1="163.3" x2="504.3" y2="276"/>
	<line class="st6" x1="493.5" y1="157" x2="395.9" y2="213.4"/>
	<line class="st6" x1="493.5" y1="144.5" x2="395.9" y2="88.1"/>
	<polyline class="st7" points="504.3,138.2 515.2,144.5 515.2,157 504.3,163.3 493.5,157 493.5,144.5 504.3,138.2 	"/>
	<polyline class="st7" points="504.3,25.5 612.8,88.1 612.8,213.4 504.3,276 395.9,213.4 395.9,88.1 504.3,25.5 	"/>
	<path class="st9" d="M506.3,138.2c0,2.6-3.9,2.6-3.9,0C502.4,135.6,506.3,135.6,506.3,138.2"/>
	<path class="st8" d="M506.3,138.2c0,2.6-3.9,2.6-3.9,0C502.4,135.6,506.3,135.6,506.3,138.2"/>
	<path class="st9" d="M517.2,144.5c0,2.6-3.9,2.6-3.9,0C513.2,141.9,517.2,141.9,517.2,144.5"/>
	<path class="st8" d="M517.2,144.5c0,2.6-3.9,2.6-3.9,0C513.2,141.9,517.2,141.9,517.2,144.5"/>
	<path class="st9" d="M517.2,157c0,2.6-3.9,2.6-3.9,0C513.2,154.4,517.2,154.4,517.2,157"/>
	<path class="st8" d="M517.2,157c0,2.6-3.9,2.6-3.9,0C513.2,154.4,517.2,154.4,517.2,157"/>
	<path class="st9" d="M506.3,163.3c0,2.6-3.9,2.6-3.9,0S506.3,160.7,506.3,163.3"/>
	<path class="st8" d="M506.3,163.3c0,2.6-3.9,2.6-3.9,0S506.3,160.7,506.3,163.3"/>
	<path class="st9" d="M495.5,157c0,2.6-3.9,2.6-3.9,0C491.5,154.4,495.5,154.4,495.5,157"/>
	<path class="st8" d="M495.5,157c0,2.6-3.9,2.6-3.9,0C491.5,154.4,495.5,154.4,495.5,157"/>
	<path class="st9" d="M495.5,144.5c0,2.6-3.9,2.6-3.9,0C491.5,141.9,495.5,141.9,495.5,144.5"/>
	<path class="st8" d="M495.5,144.5c0,2.6-3.9,2.6-3.9,0C491.5,141.9,495.5,141.9,495.5,144.5"/>
	<path class="st9" d="M506.3,138.2c0,2.6-3.9,2.6-3.9,0C502.4,135.6,506.3,135.6,506.3,138.2"/>
	<path class="st8" d="M506.3,138.2c0,2.6-3.9,2.6-3.9,0C502.4,135.6,506.3,135.6,506.3,138.2"/>
	<path class="st9" d="M506.3,25.5c0,2.6-3.9,2.6-3.9,0C502.4,22.9,506.3,22.9,506.3,25.5"/>
	<path class="st8" d="M506.3,25.5c0,2.6-3.9,2.6-3.9,0C502.4,22.9,506.3,22.9,506.3,25.5"/>
	<path class="st9" d="M614.8,88.1c0,2.6-3.9,2.6-3.9,0C610.9,85.5,614.8,85.5,614.8,88.1"/>
	<path class="st8" d="M614.8,88.1c0,2.6-3.9,2.6-3.9,0C610.9,85.5,614.8,85.5,614.8,88.1"/>
	<path class="st9" d="M614.8,213.4c0,2.6-3.9,2.6-3.9,0C610.9,210.8,614.8,210.8,614.8,213.4"/>
	<path class="st8" d="M614.8,213.4c0,2.6-3.9,2.6-3.9,0C610.9,210.8,614.8,210.8,614.8,213.4"/>
	<path class="st9" d="M506.3,276c0,2.6-3.9,2.6-3.9,0C502.4,273.4,506.3,273.4,506.3,276"/>
	<path class="st8" d="M506.3,276c0,2.6-3.9,2.6-3.9,0C502.4,273.4,506.3,273.4,506.3,276"/>
	<path class="st9" d="M397.8,213.4c0,2.6-3.9,2.6-3.9,0C393.9,210.8,397.8,210.8,397.8,213.4"/>
	<path class="st8" d="M397.8,213.4c0,2.6-3.9,2.6-3.9,0C393.9,210.8,397.8,210.8,397.8,213.4"/>
	<path class="st9" d="M397.8,88.1c0,2.6-3.9,2.6-3.9,0C393.9,85.5,397.8,85.5,397.8,88.1"/>
	<path class="st8" d="M397.8,88.1c0,2.6-3.9,2.6-3.9,0C393.9,85.5,397.8,85.5,397.8,88.1"/>
	<path class="st9" d="M506.3,25.5c0,2.6-3.9,2.6-3.9,0C502.4,22.9,506.3,22.9,506.3,25.5"/>
	<path class="st8" d="M506.3,25.5c0,2.6-3.9,2.6-3.9,0C502.4,22.9,506.3,22.9,506.3,25.5"/>
	<text transform="matrix(1 0 0 1 484.6033 94.0808)" class="st11 st3 st12">50%</text>
	<text transform="matrix(1 0 0 1 479.5408 38.7766)" class="st11 st3 st12">100%</text>
	<g>
		<text transform="matrix(1 0 0 1 358.2838 225.8062)" class="st3 st4">CR</text>
		<text transform="matrix(1 0 0 1 367.7697 81.7788)" class="st3 st4">F</text>
		<text transform="matrix(1 0 0 1 495.4087 9.7671)" class="st3 st4">AR</text>
		<text transform="matrix(1 0 0 1 495.7195 297.8179)" class="st3 st4">TR</text>
		<text transform="matrix(1 0 0 1 627.0314 81.7788)" class="st3 st4">RC</text>
		<text transform="matrix(1 0 0 1 627.0314 225.8062)" class="st3 st4">TRC</text>
	</g>
</g>
<g>
	<polyline class="st17" points="862.6,138.2 873.5,144.5 873.5,157 862.6,163.3 851.8,157 851.8,144.5 862.6,138.2 	"/>
	<g>
		<polyline class="st7" points="862.2,26.6 882.7,139.4 891.7,168.3 862.2,174.4 839.1,164.6 837.5,137 862.2,26.6 		"/>
		<path class="st8" d="M864.5,26.6c0,3.1-4.6,3.1-4.6,0C859.9,23.5,864.5,23.5,864.5,26.6"/>
		<path class="st9" d="M885,139.4c0,3.1-4.6,3.1-4.6,0C880.4,136.3,885,136.3,885,139.4"/>
		<path class="st9" d="M894,168.3c0,3.1-4.6,3.1-4.6,0C889.4,165.3,894,165.3,894,168.3"/>
		<path class="st9" d="M864.5,174.4c0,3.1-4.6,3.1-4.6,0C859.9,171.3,864.5,171.3,864.5,174.4"/>
		<path class="st9" d="M841.4,164.6c0,3.1-4.6,3.1-4.6,0C836.8,161.6,841.4,161.6,841.4,164.6"/>
		<path class="st9" d="M839.8,137c0,3.1-4.6,3.1-4.6,0C835.2,134,839.8,134,839.8,137"/>
		<path class="st9" d="M864.5,26.6c0,3.1-4.6,3.1-4.6,0C859.9,23.5,864.5,23.5,864.5,26.6"/>
		<polyline class="st10" points="862.2,26.6 882.7,139.4 891.7,168.3 862.2,174.4 839.1,164.6 837.5,137 862.2,26.6 		"/>
	</g>
	<polyline class="st0" points="875.2,150.8 875.2,150.5 875.1,150.1 875.1,149.7 875.1,149.4 875,149 875,148.8 875,148.6 
		874.9,148.4 874.9,148.1 874.8,147.9 874.8,147.7 874.7,147.3 874.5,146.9 874.5,146.7 874.4,146.5 874.2,146.1 874.1,145.6 
		874,145.4 873.9,145.3 873.8,145.1 873.7,144.9 873.6,144.7 873.4,144.3 873.2,144.1 873.1,143.9 873,143.7 872.9,143.6 
		872.8,143.4 872.5,143 872.4,142.9 872.2,142.7 872.1,142.5 871.8,142.2 871.6,142 871.5,141.9 871.3,141.7 871.2,141.6 871,141.4 
		870.8,141.3 870.5,141 870.3,140.9 870.1,140.7 870,140.6 869.6,140.4 869.4,140.2 869.2,140.1 869.1,140 868.7,139.8 868.5,139.7 
		868.1,139.5 867.9,139.4 867.7,139.3 867.3,139.1 866.9,139 866.7,138.9 866.5,138.8 866.3,138.8 866,138.7 865.8,138.6 
		865.6,138.6 865.4,138.5 865.2,138.5 865,138.5 864.8,138.4 864.5,138.4 864.3,138.3 864.1,138.3 863.9,138.3 863.7,138.3 
		863.2,138.2 863,138.2 862.8,138.2 862.4,138.2 862.1,138.2 861.9,138.3 861.5,138.3 861,138.3 860.8,138.4 860.6,138.4 
		860.4,138.4 860,138.5 859.8,138.6 859.5,138.6 859.3,138.7 858.9,138.8 858.7,138.9 858.5,138.9 858.3,139 858.1,139.1 
		857.9,139.2 857.7,139.3 857.5,139.3 857.3,139.4 857.1,139.5 856.9,139.6 856.5,139.8 856.3,139.9 856.1,140.1 855.9,140.2 
		855.7,140.3 855.6,140.4 855.4,140.5 855,140.8 854.7,141.1 854.5,141.2 854.4,141.4 854.2,141.5 854,141.7 853.9,141.8 853.7,142 
		853.6,142.1 853.4,142.3 853.3,142.4 853.1,142.6 853,142.8 852.8,142.9 852.7,143.1 852.6,143.3 852.4,143.5 852.3,143.6 
		852.1,144 852,144.2 851.9,144.4 851.7,144.6 851.6,144.8 851.5,145 851.3,145.4 851.2,145.6 851.2,145.7 851.1,146 851,146.2 
		850.9,146.4 850.8,146.6 850.7,147 850.6,147.4 850.5,147.8 850.4,148 850.3,148.5 850.3,148.7 850.2,148.9 850.2,149.1 
		850.2,149.3 850.2,149.6 850.1,149.8 850.1,150 850.1,150.2 850.1,150.4 850.1,150.6 850.1,150.9 850.1,151.1 850.1,151.3 
		850.1,151.5 850.1,151.7 850.2,152 850.2,152.2 850.2,152.4 850.2,152.6 850.3,152.8 850.3,153 850.4,153.5 850.5,153.7 
		850.5,153.9 850.6,154.1 850.7,154.5 850.8,154.9 850.9,155.2 851,155.4 851.1,155.6 851.2,155.8 851.2,156 851.3,156.2 
		851.5,156.6 851.6,156.7 851.7,156.9 851.9,157.1 852,157.3 852.1,157.5 852.2,157.7 852.3,157.9 852.4,158 852.6,158.2 
		852.7,158.4 853,158.7 853.1,158.9 853.3,159.1 853.4,159.2 853.6,159.4 853.7,159.6 853.9,159.7 854,159.9 854.2,160 854.4,160.2 
		854.5,160.3 854.7,160.4 854.9,160.6 855,160.7 855.2,160.8 855.4,161 855.6,161.1 855.9,161.3 856.3,161.6 856.5,161.7 
		856.7,161.8 856.9,161.9 857.1,162 857.3,162.1 857.5,162.2 857.7,162.3 857.9,162.3 858.1,162.4 858.3,162.5 858.5,162.6 
		858.7,162.6 858.9,162.7 859.1,162.8 859.5,162.9 859.8,162.9 860,163 860.4,163.1 860.6,163.1 860.8,163.2 861,163.2 861.3,163.2 
		861.7,163.2 861.9,163.3 862.4,163.3 862.6,163.3 862.8,163.3 863.2,163.3 863.5,163.3 863.7,163.2 863.9,163.2 864.1,163.2 
		864.3,163.2 864.5,163.1 864.8,163.1 865,163.1 865.2,163 865.4,163 865.6,162.9 865.8,162.9 866,162.8 866.3,162.7 866.5,162.7 
		866.7,162.6 866.9,162.5 867.1,162.5 867.5,162.3 867.7,162.2 867.9,162.1 868.1,162 868.3,161.9 868.5,161.8 868.7,161.7 
		869.1,161.5 869.2,161.4 869.4,161.3 869.6,161.2 870,160.9 870.3,160.6 870.5,160.5 870.7,160.4 870.8,160.2 871,160.1 
		871.2,159.9 871.3,159.8 871.5,159.6 871.6,159.5 871.9,159.2 872.1,159 872.4,158.7 872.5,158.5 872.6,158.3 872.8,158.1 
		873,157.8 873.2,157.4 873.4,157.2 873.5,157 873.6,156.8 873.7,156.7 873.8,156.5 873.9,156.3 874.1,155.9 874.2,155.7 
		874.2,155.5 874.3,155.3 874.4,155.1 874.5,154.8 874.5,154.6 874.6,154.4 874.7,154.2 874.8,153.8 874.8,153.6 874.9,153.4 
		874.9,153.2 875,152.7 875,152.5 875.1,152.3 875.1,152.1 875.1,151.9 875.1,151.4 875.2,151 875.2,150.8 	"/>
	<polyline class="st1" points="931.5,150.8 931.5,149.6 931.5,148.3 931.4,147.1 931.3,145.9 931.2,144.7 931.1,143.5 931,142.3 
		930.8,141.1 930.7,140 930.5,138.8 930.2,137.6 930,136.4 929.7,135.2 929.5,134 929.2,132.9 928.8,131.7 928.5,130.6 928.1,129.4 
		927.7,128.3 927.3,127.1 926.9,126 926.5,124.9 926,123.8 925.5,122.7 925,121.6 924.5,120.5 924,119.4 923.4,118.3 922.8,117.3 
		922.2,116.2 921.6,115.2 921,114.2 920.3,113.1 919.7,112.1 919,111.2 918.3,110.2 917.6,109.2 916.8,108.2 916.1,107.3 
		915.3,106.4 914.5,105.5 913.7,104.6 912.9,103.7 912.1,102.8 911.2,101.9 910.4,101.1 909.5,100.3 908.6,99.5 907.7,98.7 
		906.8,97.9 905.8,97.1 904.9,96.4 903.9,95.6 903,94.9 902,94.2 901,93.5 900,92.9 899,92.2 897.9,91.6 896.9,91 895.8,90.4 
		894.8,89.8 893.7,89.3 892.6,88.8 891.5,88.2 890.4,87.7 889.3,87.3 888.2,86.8 887.1,86.4 886,85.9 884.8,85.6 883.7,85.2 
		882.5,84.8 881.4,84.5 880.2,84.2 879.1,83.9 877.9,83.6 876.7,83.3 875.5,83.1 874.3,82.9 873.1,82.7 871.9,82.5 870.8,82.4 
		869.6,82.2 868.4,82.1 867.2,82 865.9,82 864.7,81.9 863.5,81.9 862.3,81.9 861.1,81.9 859.9,81.9 858.7,82 857.5,82.1 856.3,82.2 
		855.1,82.3 853.9,82.4 852.7,82.6 851.5,82.8 850.3,83 849.2,83.2 848,83.5 846.8,83.7 845.6,84 844.5,84.3 843.3,84.6 842.2,85 
		841,85.4 839.9,85.7 838.7,86.2 837.6,86.6 836.5,87 835.4,87.5 834.3,88 833.2,88.5 832.1,89 831,89.6 829.9,90.1 828.9,90.7 
		827.8,91.3 826.8,91.9 825.8,92.6 824.8,93.2 823.8,93.9 822.8,94.6 821.8,95.3 820.8,96 819.9,96.7 818.9,97.5 818,98.3 
		817.1,99.1 816.2,99.9 815.3,100.7 814.5,101.5 813.6,102.4 812.8,103.2 811.9,104.1 811.1,105 810.3,105.9 809.6,106.8 
		808.8,107.8 808.1,108.7 807.3,109.7 806.6,110.7 805.9,111.6 805.3,112.6 804.6,113.7 804,114.7 803.3,115.7 802.7,116.8 
		802.1,117.8 801.6,118.9 801,119.9 800.5,121 800,122.1 799.5,123.2 799,124.3 798.6,125.4 798.1,126.6 797.7,127.7 797.3,128.8 
		797,130 796.6,131.1 796.3,132.3 796,133.5 795.7,134.6 795.4,135.8 795.1,137 794.9,138.2 794.7,139.4 794.5,140.5 794.3,141.7 
		794.2,142.9 794.1,144.1 794,145.3 793.9,146.5 793.8,147.7 793.8,148.9 793.8,150.2 793.8,151.4 793.8,152.6 793.8,153.8 
		793.9,155 794,156.2 794.1,157.4 794.2,158.6 794.3,159.8 794.5,161 794.7,162.2 794.9,163.3 795.1,164.5 795.4,165.7 795.7,166.9 
		796,168.1 796.3,169.2 796.6,170.4 797,171.5 797.3,172.7 797.7,173.8 798.1,174.9 798.6,176.1 799,177.2 799.5,178.3 800,179.4 
		800.5,180.5 801,181.6 801.6,182.6 802.1,183.7 802.7,184.8 803.3,185.8 804,186.8 804.6,187.9 805.3,188.9 805.9,189.9 
		806.6,190.9 807.3,191.8 808.1,192.8 808.8,193.7 809.6,194.7 810.3,195.6 811.1,196.5 811.9,197.4 812.8,198.3 813.6,199.1 
		814.5,200 815.3,200.8 816.2,201.6 817.1,202.5 818,203.2 818.9,204 819.9,204.8 820.8,205.5 821.8,206.2 822.8,206.9 823.8,207.6 
		824.8,208.3 825.8,209 826.8,209.6 827.8,210.2 828.9,210.8 829.9,211.4 831,212 832.1,212.5 833.2,213 834.3,213.5 835.4,214 
		836.5,214.5 837.6,214.9 838.7,215.4 839.9,215.8 841,216.2 842.2,216.5 843.3,216.9 844.5,217.2 845.6,217.5 846.8,217.8 
		848,218.1 849.2,218.3 850.3,218.5 851.5,218.7 852.7,218.9 853.9,219.1 855.1,219.2 856.3,219.3 857.5,219.4 858.7,219.5 
		859.9,219.6 861.1,219.6 862.3,219.6 863.5,219.6 864.7,219.6 865.9,219.6 867.2,219.5 868.4,219.4 869.6,219.3 870.8,219.2 
		871.9,219 873.1,218.8 874.3,218.6 875.5,218.4 876.7,218.2 877.9,217.9 879.1,217.7 880.2,217.4 881.4,217 882.5,216.7 
		883.7,216.3 884.8,216 886,215.6 887.1,215.1 888.2,214.7 889.3,214.2 890.4,213.8 891.5,213.3 892.6,212.8 893.7,212.2 
		894.8,211.7 895.8,211.1 896.9,210.5 897.9,209.9 899,209.3 900,208.6 901,208 902,207.3 903,206.6 903.9,205.9 904.9,205.1 
		905.8,204.4 906.8,203.6 907.7,202.9 908.6,202.1 909.5,201.2 910.4,200.4 911.2,199.6 912.1,198.7 912.9,197.8 913.7,197 
		914.5,196.1 915.3,195.1 916.1,194.2 916.8,193.3 917.6,192.3 918.3,191.3 919,190.4 919.7,189.4 920.3,188.4 921,187.4 
		921.6,186.3 922.2,185.3 922.8,184.2 923.4,183.2 924,182.1 924.5,181 925,179.9 925.5,178.8 926,177.7 926.5,176.6 926.9,175.5 
		927.3,174.4 927.7,173.2 928.1,172.1 928.5,170.9 928.8,169.8 929.2,168.6 929.5,167.5 929.7,166.3 930,165.1 930.2,163.9 
		930.5,162.7 930.7,161.6 930.8,160.4 931,159.2 931.1,158 931.2,156.8 931.3,155.6 931.4,154.4 931.5,153.2 931.5,152 931.5,150.8 
			"/>
	<polyline class="st2" points="987.9,150.8 987.9,148.6 987.8,146.4 987.7,144.2 987.6,142 987.4,139.8 987.2,137.6 986.9,135.5 
		986.6,133.3 986.3,131.1 986,128.9 985.6,126.8 985.1,124.6 984.6,122.5 984.1,120.4 983.6,118.3 983,116.1 982.4,114 981.7,112 
		981,109.9 980.3,107.8 979.5,105.8 978.7,103.7 977.9,101.7 977,99.7 976.1,97.7 975.1,95.7 974.1,93.8 973.1,91.8 972.1,89.9 
		971,88 969.9,86.1 968.7,84.2 967.6,82.4 966.3,80.6 965.1,78.7 963.8,77 962.5,75.2 961.2,73.5 959.8,71.8 958.4,70.1 957,68.4 
		955.5,66.8 954.1,65.2 952.5,63.6 951,62 949.4,60.5 947.8,59 946.2,57.5 944.6,56 942.9,54.6 941.2,53.2 939.5,51.9 937.7,50.5 
		936,49.2 934.2,48 932.4,46.7 930.6,45.5 928.7,44.4 926.8,43.2 924.9,42.1 923,41 921.1,40 919.1,39 917.2,38 915.2,37.1 
		913.2,36.2 911.2,35.3 909.2,34.5 907.1,33.7 905.1,32.9 903,32.2 900.9,31.5 898.8,30.9 896.7,30.2 894.6,29.7 892.5,29.1 
		890.3,28.6 888.2,28.2 886.1,27.7 883.9,27.3 881.7,27 879.6,26.7 877.4,26.4 875.2,26.2 873,25.9 870.8,25.8 868.7,25.7 
		866.5,25.6 864.3,25.5 862.1,25.5 859.9,25.5 857.7,25.6 855.5,25.7 853.3,25.9 851.1,26 849,26.3 846.8,26.5 844.6,26.8 
		842.4,27.2 840.3,27.5 838.1,27.9 836,28.4 833.9,28.9 831.7,29.4 829.6,30 827.5,30.6 825.4,31.2 823.3,31.9 821.2,32.6 
		819.2,33.3 817.1,34.1 815.1,34.9 813.1,35.7 811.1,36.6 809.1,37.6 807.1,38.5 805.1,39.5 803.2,40.5 801.3,41.6 799.4,42.7 
		797.5,43.8 795.6,44.9 793.8,46.1 792,47.4 790.2,48.6 788.4,49.9 786.6,51.2 784.9,52.6 783.2,53.9 781.5,55.3 779.9,56.8 
		778.2,58.2 776.6,59.7 775.1,61.2 773.5,62.8 772,64.4 770.5,66 769,67.6 767.6,69.2 766.1,70.9 764.8,72.6 763.4,74.3 762.1,76.1 
		760.8,77.9 759.5,79.6 758.3,81.5 757.1,83.3 755.9,85.2 754.8,87 753.7,88.9 752.7,90.8 751.6,92.8 750.6,94.7 749.7,96.7 
		748.7,98.7 747.8,100.7 747,102.7 746.2,104.7 745.4,106.8 744.6,108.8 743.9,110.9 743.2,113 742.6,115.1 742,117.2 741.4,119.3 
		740.9,121.4 740.4,123.6 739.9,125.7 739.5,127.9 739.1,130 738.8,132.2 738.5,134.4 738.2,136.5 738,138.7 737.8,140.9 
		737.6,143.1 737.5,145.3 737.4,147.5 737.4,149.7 737.4,151.9 737.4,154 737.5,156.2 737.6,158.4 737.8,160.6 738,162.8 738.2,165 
		738.5,167.1 738.8,169.3 739.1,171.5 739.5,173.6 739.9,175.8 740.4,177.9 740.9,180.1 741.4,182.2 742,184.3 742.6,186.4 
		743.2,188.5 743.9,190.6 744.6,192.7 745.4,194.7 746.2,196.8 747,198.8 747.8,200.8 748.7,202.8 749.7,204.8 750.6,206.8 
		751.6,208.7 752.7,210.7 753.7,212.6 754.8,214.5 755.9,216.4 757.1,218.2 758.3,220.1 759.5,221.9 760.8,223.7 762.1,225.4 
		763.4,227.2 764.8,228.9 766.1,230.6 767.6,232.3 769,233.9 770.5,235.6 772,237.2 773.5,238.7 775.1,240.3 776.6,241.8 
		778.2,243.3 779.9,244.7 781.5,246.2 783.2,247.6 784.9,249 786.6,250.3 788.4,251.6 790.2,252.9 792,254.2 793.8,255.4 
		795.6,256.6 797.5,257.7 799.4,258.9 801.3,259.9 803.2,261 805.1,262 807.1,263 809.1,264 811.1,264.9 813.1,265.8 815.1,266.6 
		817.1,267.4 819.2,268.2 821.2,269 823.3,269.7 825.4,270.3 827.5,271 829.6,271.6 831.7,272.1 833.9,272.6 836,273.1 838.1,273.6 
		840.3,274 842.4,274.4 844.6,274.7 846.8,275 849,275.2 851.1,275.5 853.3,275.6 855.5,275.8 857.7,275.9 859.9,276 862.1,276 
		864.3,276 866.5,275.9 868.7,275.9 870.8,275.7 873,275.6 875.2,275.4 877.4,275.1 879.6,274.8 881.7,274.5 883.9,274.2 
		886.1,273.8 888.2,273.4 890.3,272.9 892.5,272.4 894.6,271.8 896.7,271.3 898.8,270.7 900.9,270 903,269.3 905.1,268.6 
		907.1,267.8 909.2,267 911.2,266.2 913.2,265.3 915.2,264.4 917.2,263.5 919.1,262.5 921.1,261.5 923,260.5 924.9,259.4 
		926.8,258.3 928.7,257.2 930.6,256 932.4,254.8 934.2,253.5 936,252.3 937.7,251 939.5,249.6 941.2,248.3 942.9,246.9 944.6,245.5 
		946.2,244 947.8,242.5 949.4,241 951,239.5 952.5,237.9 954.1,236.4 955.5,234.7 957,233.1 958.4,231.4 959.8,229.8 961.2,228 
		962.5,226.3 963.8,224.5 965.1,222.8 966.3,221 967.6,219.1 968.7,217.3 969.9,215.4 971,213.5 972.1,211.6 973.1,209.7 
		974.1,207.8 975.1,205.8 976.1,203.8 977,201.8 977.9,199.8 978.7,197.8 979.5,195.8 980.3,193.7 981,191.6 981.7,189.6 
		982.4,187.5 983,185.4 983.6,183.3 984.1,181.1 984.6,179 985.1,176.9 985.6,174.7 986,172.6 986.3,170.4 986.6,168.2 986.9,166.1 
		987.2,163.9 987.4,161.7 987.6,159.5 987.7,157.3 987.8,155.1 987.9,152.9 987.9,150.8 	"/>
	<polygon class="st5" points="987.9,150.8 987.9,148.6 987.8,146.4 987.7,144.2 987.6,142 987.4,139.8 987.2,137.6 986.9,135.5 
		986.6,133.3 986.3,131.1 986,128.9 985.6,126.8 985.1,124.6 984.6,122.5 984.1,120.4 983.6,118.3 983,116.1 982.4,114 981.7,112 
		981,109.9 980.3,107.8 979.5,105.8 978.7,103.7 977.9,101.7 977,99.7 976.1,97.7 975.1,95.7 974.1,93.8 973.1,91.8 972.1,89.9 
		971,88 969.9,86.1 968.7,84.2 967.6,82.4 966.3,80.6 965.1,78.7 963.8,77 962.5,75.2 961.2,73.5 959.8,71.8 958.4,70.1 957,68.4 
		955.5,66.8 954.1,65.2 952.5,63.6 951,62 949.4,60.5 947.8,59 946.2,57.5 944.6,56 942.9,54.6 941.2,53.2 939.5,51.9 937.7,50.5 
		936,49.2 934.2,48 932.4,46.7 930.6,45.5 928.7,44.4 926.8,43.2 924.9,42.1 923,41 921.1,40 919.1,39 917.2,38 915.2,37.1 
		913.2,36.2 911.2,35.3 909.2,34.5 907.1,33.7 905.1,32.9 903,32.2 900.9,31.5 898.8,30.9 896.7,30.2 894.6,29.7 892.5,29.1 
		890.3,28.6 888.2,28.2 886.1,27.7 883.9,27.3 881.7,27 879.6,26.7 877.4,26.4 875.2,26.2 873,25.9 870.8,25.8 868.7,25.7 
		866.5,25.6 864.3,25.5 862.1,25.5 859.9,25.5 857.7,25.6 855.5,25.7 853.3,25.9 851.1,26 849,26.3 846.8,26.5 844.6,26.8 
		842.4,27.2 840.3,27.5 838.1,27.9 836,28.4 833.9,28.9 831.7,29.4 829.6,30 827.5,30.6 825.4,31.2 823.3,31.9 821.2,32.6 
		819.2,33.3 817.1,34.1 815.1,34.9 813.1,35.7 811.1,36.6 809.1,37.6 807.1,38.5 805.1,39.5 803.2,40.5 801.3,41.6 799.4,42.7 
		797.5,43.8 795.6,44.9 793.8,46.1 792,47.4 790.2,48.6 788.4,49.9 786.6,51.2 784.9,52.6 783.2,53.9 781.5,55.3 779.9,56.8 
		778.2,58.2 776.6,59.7 775.1,61.2 773.5,62.8 772,64.4 770.5,66 769,67.6 767.6,69.2 766.1,70.9 764.8,72.6 763.4,74.3 762.1,76.1 
		760.8,77.9 759.5,79.6 758.3,81.5 757.1,83.3 755.9,85.2 754.8,87 753.7,88.9 752.7,90.8 751.6,92.8 750.6,94.7 749.7,96.7 
		748.7,98.7 747.8,100.7 747,102.7 746.2,104.7 745.4,106.8 744.6,108.8 743.9,110.9 743.2,113 742.6,115.1 742,117.2 741.4,119.3 
		740.9,121.4 740.4,123.6 739.9,125.7 739.5,127.9 739.1,130 738.8,132.2 738.5,134.4 738.2,136.5 738,138.7 737.8,140.9 
		737.6,143.1 737.5,145.3 737.4,147.5 737.4,149.7 737.4,151.9 737.4,154 737.5,156.2 737.6,158.4 737.8,160.6 738,162.8 738.2,165 
		738.5,167.1 738.8,169.3 739.1,171.5 739.5,173.6 739.9,175.8 740.4,177.9 740.9,180.1 741.4,182.2 742,184.3 742.6,186.4 
		743.2,188.5 743.9,190.6 744.6,192.7 745.4,194.7 746.2,196.8 747,198.8 747.8,200.8 748.7,202.8 749.7,204.8 750.6,206.8 
		751.6,208.7 752.7,210.7 753.7,212.6 754.8,214.5 755.9,216.4 757.1,218.2 758.3,220.1 759.5,221.9 760.8,223.7 762.1,225.4 
		763.4,227.2 764.8,228.9 766.1,230.6 767.6,232.3 769,233.9 770.5,235.6 772,237.2 773.5,238.7 775.1,240.3 776.6,241.8 
		778.2,243.3 779.9,244.7 781.5,246.2 783.2,247.6 784.9,249 786.6,250.3 788.4,251.6 790.2,252.9 792,254.2 793.8,255.4 
		795.6,256.6 797.5,257.7 799.4,258.9 801.3,259.9 803.2,261 805.1,262 807.1,263 809.1,264 811.1,264.9 813.1,265.8 815.1,266.6 
		817.1,267.4 819.2,268.2 821.2,269 823.3,269.7 825.4,270.3 827.5,271 829.6,271.6 831.7,272.1 833.9,272.6 836,273.1 838.1,273.6 
		840.3,274 842.4,274.4 844.6,274.7 846.8,275 849,275.2 851.1,275.5 853.3,275.6 855.5,275.8 857.7,275.9 859.9,276 862.1,276 
		864.3,276 866.5,275.9 868.7,275.9 870.8,275.7 873,275.6 875.2,275.4 877.4,275.1 879.6,274.8 881.7,274.5 883.9,274.2 
		886.1,273.8 888.2,273.4 890.3,272.9 892.5,272.4 894.6,271.8 896.7,271.3 898.8,270.7 900.9,270 903,269.3 905.1,268.6 
		907.1,267.8 909.2,267 911.2,266.2 913.2,265.3 915.2,264.4 917.2,263.5 919.1,262.5 921.1,261.5 923,260.5 924.9,259.4 
		926.8,258.3 928.7,257.2 930.6,256 932.4,254.8 934.2,253.5 936,252.3 937.7,251 939.5,249.6 941.2,248.3 942.9,246.9 944.6,245.5 
		946.2,244 947.8,242.5 949.4,241 951,239.5 952.5,237.9 954.1,236.4 955.5,234.7 957,233.1 958.4,231.4 959.8,229.8 961.2,228 
		962.5,226.3 963.8,224.5 965.1,222.8 966.3,221 967.6,219.1 968.7,217.3 969.9,215.4 971,213.5 972.1,211.6 973.1,209.7 
		974.1,207.8 975.1,205.8 976.1,203.8 977,201.8 977.9,199.8 978.7,197.8 979.5,195.8 980.3,193.7 981,191.6 981.7,189.6 
		982.4,187.5 983,185.4 983.6,183.3 984.1,181.1 984.6,179 985.1,176.9 985.6,174.7 986,172.6 986.3,170.4 986.6,168.2 986.9,166.1 
		987.2,163.9 987.4,161.7 987.6,159.5 987.7,157.3 987.8,155.1 987.9,152.9 	"/>
	<line class="st6" x1="862.6" y1="138.2" x2="862.6" y2="25.5"/>
	<line class="st6" x1="873.5" y1="144.5" x2="971.1" y2="88.1"/>
	<line class="st6" x1="873.5" y1="157" x2="971.1" y2="213.4"/>
	<line class="st6" x1="862.6" y1="163.3" x2="862.6" y2="276"/>
	<line class="st6" x1="851.8" y1="157" x2="754.2" y2="213.4"/>
	<line class="st6" x1="851.8" y1="144.5" x2="754.2" y2="88.1"/>
	<polyline class="st18" points="862.6,138.2 873.5,144.5 873.5,157 862.6,163.3 851.8,157 851.8,144.5 862.6,138.2 	"/>
	<polyline class="st7" points="862.6,25.5 971.1,88.1 971.1,213.4 862.6,276 754.2,213.4 754.2,88.1 862.6,25.5 	"/>
	<path class="st19" d="M864.6,138.2c0,2.6-3.9,2.6-3.9,0C860.7,135.6,864.6,135.6,864.6,138.2"/>
	<path class="st20" d="M864.6,138.2c0,2.6-3.9,2.6-3.9,0C860.7,135.6,864.6,135.6,864.6,138.2"/>
	<path class="st19" d="M875.4,144.5c0,2.6-3.9,2.6-3.9,0C871.5,141.9,875.4,141.9,875.4,144.5"/>
	<path class="st19" d="M875.4,157c0,2.6-3.9,2.6-3.9,0C871.5,154.4,875.4,154.4,875.4,157"/>
	<path class="st20" d="M875.4,157c0,2.6-3.9,2.6-3.9,0C871.5,154.4,875.4,154.4,875.4,157"/>
	<path class="st19" d="M864.6,163.3c0,2.6-3.9,2.6-3.9,0S864.6,160.7,864.6,163.3"/>
	<path class="st20" d="M864.6,163.3c0,2.6-3.9,2.6-3.9,0S864.6,160.7,864.6,163.3"/>
	<path class="st19" d="M853.7,157c0,2.6-3.9,2.6-3.9,0C849.8,154.4,853.7,154.4,853.7,157"/>
	<path class="st20" d="M853.7,157c0,2.6-3.9,2.6-3.9,0C849.8,154.4,853.7,154.4,853.7,157"/>
	<path class="st19" d="M853.7,144.5c0,2.6-3.9,2.6-3.9,0C849.8,141.9,853.7,141.9,853.7,144.5"/>
	<path class="st20" d="M853.7,144.5c0,2.6-3.9,2.6-3.9,0C849.8,141.9,853.7,141.9,853.7,144.5"/>
	<path class="st19" d="M864.6,138.2c0,2.6-3.9,2.6-3.9,0C860.7,135.6,864.6,135.6,864.6,138.2"/>
	<path class="st20" d="M864.6,138.2c0,2.6-3.9,2.6-3.9,0C860.7,135.6,864.6,135.6,864.6,138.2"/>
	<path class="st9" d="M864.6,25.5c0,2.6-3.9,2.6-3.9,0C860.7,22.9,864.6,22.9,864.6,25.5"/>
	<path class="st8" d="M864.6,25.5c0,2.6-3.9,2.6-3.9,0C860.7,22.9,864.6,22.9,864.6,25.5"/>
	<path class="st9" d="M973.1,88.1c0,2.6-3.9,2.6-3.9,0C969.1,85.5,973.1,85.5,973.1,88.1"/>
	<path class="st8" d="M973.1,88.1c0,2.6-3.9,2.6-3.9,0C969.1,85.5,973.1,85.5,973.1,88.1"/>
	<path class="st9" d="M973.1,213.4c0,2.6-3.9,2.6-3.9,0C969.1,210.8,973.1,210.8,973.1,213.4"/>
	<path class="st8" d="M973.1,213.4c0,2.6-3.9,2.6-3.9,0C969.1,210.8,973.1,210.8,973.1,213.4"/>
	<path class="st9" d="M864.6,276c0,2.6-3.9,2.6-3.9,0C860.7,273.4,864.6,273.4,864.6,276"/>
	<path class="st8" d="M864.6,276c0,2.6-3.9,2.6-3.9,0C860.7,273.4,864.6,273.4,864.6,276"/>
	<path class="st9" d="M756.1,213.4c0,2.6-3.9,2.6-3.9,0C752.2,210.8,756.1,210.8,756.1,213.4"/>
	<path class="st8" d="M756.1,213.4c0,2.6-3.9,2.6-3.9,0C752.2,210.8,756.1,210.8,756.1,213.4"/>
	<path class="st9" d="M756.1,88.1c0,2.6-3.9,2.6-3.9,0C752.2,85.5,756.1,85.5,756.1,88.1"/>
	<path class="st8" d="M756.1,88.1c0,2.6-3.9,2.6-3.9,0C752.2,85.5,756.1,85.5,756.1,88.1"/>
	<path class="st9" d="M864.6,25.5c0,2.6-3.9,2.6-3.9,0C860.7,22.9,864.6,22.9,864.6,25.5"/>
	<path class="st8" d="M864.6,25.5c0,2.6-3.9,2.6-3.9,0C860.7,22.9,864.6,22.9,864.6,25.5"/>
	<text transform="matrix(1 0 0 1 842.887 94.0805)" class="st11 st3 st12">50%</text>
	<text transform="matrix(1 0 0 1 837.8245 38.7763)" class="st11 st3 st12">100%</text>
	<g>
		<text transform="matrix(1 0 0 1 716.5675 225.8059)" class="st3 st4">CR</text>
		<text transform="matrix(1 0 0 1 726.0533 81.7785)" class="st3 st4">F</text>
		<text transform="matrix(1 0 0 1 853.6923 9.7668)" class="st3 st4">AR</text>
		<text transform="matrix(1 0 0 1 854.0031 297.8176)" class="st3 st4">TR</text>
		<text transform="matrix(1 0 0 1 985.3151 81.7785)" class="st3 st4">RC</text>
		<text transform="matrix(1 0 0 1 985.3151 225.8059)" class="st3 st4">TRC</text>
	</g>
</g>
<g>
	<polyline class="st21" points="504.3,26.6 524.9,139.4 533.9,168.3 504.3,174.4 481.2,164.6 479.7,137 504.3,26.6 	"/>
	<path class="st8" d="M506.7,26.6c0,3.1-4.6,3.1-4.6,0C502,23.5,506.7,23.5,506.7,26.6"/>
	<path class="st22" d="M527.2,139.4c0,3.1-4.6,3.1-4.6,0C522.6,136.3,527.2,136.3,527.2,139.4"/>
	<path class="st22" d="M536.2,168.3c0,3.1-4.6,3.1-4.6,0C531.6,165.3,536.2,165.3,536.2,168.3"/>
	<path class="st22" d="M506.7,174.4c0,3.1-4.6,3.1-4.6,0C502,171.3,506.7,171.3,506.7,174.4"/>
	<path class="st22" d="M483.5,164.6c0,3.1-4.6,3.1-4.6,0C478.9,161.6,483.5,161.6,483.5,164.6"/>
	<path class="st22" d="M482,137c0,3.1-4.6,3.1-4.6,0C477.4,134,482,134,482,137"/>
	<path class="st22" d="M506.7,26.6c0,3.1-4.6,3.1-4.6,0C502,23.5,506.7,23.5,506.7,26.6"/>
	<polyline class="st23" points="504.3,26.6 524.9,139.4 533.9,168.3 504.3,174.4 481.2,164.6 479.7,137 504.3,26.6 	"/>
</g>
</svg>
