<svg id="Camada_1" data-name="Camada 1" xmlns="http://www.w3.org/2000/svg" viewBox="0 0 1115.41 1105.25"><defs><style>.cls-1,.cls-18,.cls-21,.cls-24{fill:none;}.cls-1{stroke:#211e1c;stroke-width:1.42px;}.cls-19,.cls-2{fill:#dfa773;}.cls-10,.cls-16,.cls-3{font-size:10.72px;font-weight:700;}.cls-20,.cls-3{fill:#f4f4f4;}.cls-10,.cls-13,.cls-16,.cls-3,.cls-5,.cls-6,.cls-8{font-family:Helvetica;}.cls-4{fill:#ffc897;}.cls-13,.cls-5,.cls-6,.cls-8{font-size:9.89px;}.cls-5{fill:#1f1f1f;}.cls-6{fill:#676767;}.cls-7{fill:#fff1e5;}.cls-8{fill:#48423d;}.cls-22,.cls-9{fill:#ef9c80;}.cls-10,.cls-23{fill:#f1f1f1;}.cls-11,.cls-14{fill:#f4b8a4;}.cls-12{fill:#fcede8;}.cls-13{fill:#434343;}.cls-14,.cls-17{stroke:#fff;stroke-width:0.43px;}.cls-15{fill:#b9cac9;}.cls-16,.cls-25{fill:#fff;}.cls-17{fill:#d3dedd;}.cls-18{stroke:#dfa773;}.cls-18,.cls-21,.cls-24{stroke-linecap:round;stroke-linejoin:round;stroke-width:2.83px;}.cls-18,.cls-21{stroke-dasharray:5.67;}.cls-19,.cls-22{opacity:0.8;}.cls-21{stroke:#ef9c80;}.cls-24{stroke:#b9cac9;}</style></defs><title>schema</title><line class="cls-1" x1="364.43" y1="420.59" x2="388.1" y2="420.59"/><path class="cls-1" d="M129.56,105.26H113.74a9.39,9.39,0,0,1-9.39-9.39V44a9.39,9.39,0,0,1,9.4-9.39l937.94,0.69a9.39,9.39,0,0,1,9.38,9.39v59.18a9.39,9.39,0,0,1-9.39,9.39h-14.86" transform="translate(0 0)"/><path class="cls-1" d="M132.86,322.32H113.74a9.39,9.39,0,0,1-9.39-9.39V122.65a9.39,9.39,0,0,1,9.39-9.39h15.82" transform="translate(0 0)"/><path class="cls-1" d="M371.26,105.26h-3a9.39,9.39,0,0,1-9.39-9.39V53.65a9.39,9.39,0,0,1,9.39-9.39h675.07a9.39,9.39,0,0,1,9.39,9.39V95.83a9.39,9.39,0,0,1-9.33,9.39l-6.57,0" transform="translate(0 0)"/><line class="cls-1" x1="817.88" y1="109.26" x2="848.41" y2="109.26"/><path class="cls-1" d="M312,317.32h36.93a9.39,9.39,0,0,0,9.39-9.36l0.52-185.34a9.39,9.39,0,0,1,9.39-9.36h2" transform="translate(0 0)"/><path class="cls-1" d="M312,327.63H579.67a9.39,9.39,0,0,0,9.39-9.39V118.65a9.39,9.39,0,0,1,9.39-9.39h0" transform="translate(0 0)"/><path class="cls-1" d="M566.9,444.86h16.62a9.39,9.39,0,0,1,9.39,9.39v35.56a9.39,9.39,0,0,1-9.39,9.39h-3" transform="translate(0 0)"/><path class="cls-1" d="M783.46,444.86h49.4a9.39,9.39,0,0,1,9.39,9.39v35.56a9.39,9.39,0,0,1-9.39,9.39h-4" transform="translate(0 0)"/><path class="cls-1" d="M1035,445h5.62a9.39,9.39,0,0,1,9.39,9.39v35.45a9.39,9.39,0,0,1-9.39,9.39h-4" transform="translate(0 0)"/><path class="cls-1" d="M135.07,346.23H114.45a9.39,9.39,0,0,0-9.39,9.39v55.45a9.39,9.39,0,0,0,9.39,9.39h21.7" transform="translate(0 0)"/><path class="cls-1" d="M312,354.81h55a9.39,9.39,0,0,1,9.39,9.39v32.45A9.39,9.39,0,0,1,367,406h-4" transform="translate(0 0)"/><path class="cls-1" d="M313.54,349.55h270a9.39,9.39,0,0,1,9.39,9.39V411.2a9.39,9.39,0,0,1-9.39,9.39H566.9" transform="translate(0 0)"/><path class="cls-1" d="M313.54,344.81H832.86a9.39,9.39,0,0,1,9.39,9.39v57a9.39,9.39,0,0,1-9.39,9.39h-49.4" transform="translate(0 0)"/><path class="cls-1" d="M313.54,339.28l725.31,0.53a9.39,9.39,0,0,1,9.38,9.39v62a9.39,9.39,0,0,1-9.39,9.39h-3" transform="translate(0 0)"/><rect class="cls-2" x="129.56" y="69.65" width="219.43" height="26.38"/><text class="cls-3" transform="translate(140.28 86.59)">DigitalLibraryBLPL</text><rect class="cls-4" x="129.56" y="96.03" width="219.43" height="23.91"/><text class="cls-5" transform="translate(140.28 111.45)">original_id</text><text class="cls-6" transform="translate(280.26 111.45)">varchar(123)</text><rect class="cls-7" x="129.56" y="119.94" width="219.43" height="23.91"/><text class="cls-8" transform="translate(140.28 135.35)">work_title</text><text class="cls-6" transform="translate(288.52 135.35)">varchar(95)</text><rect class="cls-7" x="129.56" y="143.85" width="219.43" height="23.91"/><text class="cls-8" transform="translate(140.28 159.26)">work_authors</text><text class="cls-6" transform="translate(288.52 159.26)">varchar(42)</text><rect class="cls-7" x="129.56" y="167.75" width="219.43" height="23.91"/><text class="cls-8" transform="translate(140.28 183.17)">work_publication_year</text><text class="cls-6" transform="translate(294.02 183.17)">varchar(4)</text><rect class="cls-7" x="129.56" y="191.66" width="219.43" height="23.91"/><text class="cls-8" transform="translate(140.28 207.07)">work_category</text><text class="cls-6" transform="translate(288.52 207.07)">varchar(14)</text><rect class="cls-7" x="129.56" y="215.57" width="219.43" height="23.91"/><text class="cls-8" transform="translate(140.28 230.98)">work_genre</text><text class="cls-6" transform="translate(288.52 230.98)">varchar(37)</text><rect class="cls-7" x="129.56" y="239.47" width="219.43" height="23.91"/><text class="cls-8" transform="translate(140.28 254.89)">file_available</text><text class="cls-6" transform="translate(288.52 254.89)">varchar(77)</text><rect class="cls-2" x="848.41" y="69.65" width="188.39" height="26.38"/><text class="cls-3" transform="translate(859.13 86.59)">PreliminaryDataset</text><rect class="cls-4" x="848.41" y="96.03" width="188.39" height="23.91"/><text class="cls-5" transform="translate(859.13 111.45)">original_id</text><text class="cls-6" transform="translate(973.57 111.45)">varchar(82)</text><rect class="cls-7" x="848.41" y="119.94" width="188.39" height="23.91"/><text class="cls-8" transform="translate(859.13 135.36)">download_link</text><text class="cls-6" transform="translate(976.34 135.36)">varchar(92)</text><rect class="cls-7" x="848.41" y="143.85" width="188.39" height="23.91"/><text class="cls-8" transform="translate(859.13 159.26)">data_source</text><text class="cls-6" transform="translate(976.34 159.26)">varchar(15)</text><rect class="cls-2" x="598.45" y="69.65" width="219.43" height="26.38"/><text class="cls-3" transform="translate(609.17 86.59)">DigitalLibraryAdamastor</text><rect class="cls-4" x="598.45" y="96.03" width="219.43" height="23.91"/><text class="cls-5" transform="translate(609.17 111.45)">original_id</text><text class="cls-6" transform="translate(749.14 111.45)">varchar(156)</text><rect class="cls-7" x="598.45" y="119.94" width="219.43" height="23.91"/><text class="cls-8" transform="translate(609.17 135.36)">work_title</text><text class="cls-6" transform="translate(751.91 135.36)">varchar(133)</text><rect class="cls-7" x="598.45" y="143.85" width="219.43" height="23.91"/><text class="cls-8" transform="translate(609.17 159.26)">work_authors</text><text class="cls-6" transform="translate(757.41 159.26)">varchar(80)</text><rect class="cls-7" x="598.45" y="167.75" width="219.43" height="23.91"/><text class="cls-8" transform="translate(609.17 183.17)">authors_lifetime</text><text class="cls-6" transform="translate(757.41 183.17)">varchar(14)</text><rect class="cls-7" x="598.45" y="191.66" width="219.43" height="23.91"/><text class="cls-8" transform="translate(609.17 207.08)">work_publication_year</text><text class="cls-6" transform="translate(762.91 207.08)">varchar(6)</text><rect class="cls-7" x="598.45" y="215.57" width="219.43" height="23.91"/><text class="cls-8" transform="translate(609.17 230.98)">work_category</text><text class="cls-6" transform="translate(757.41 230.98)">varchar(26)</text><rect class="cls-7" x="598.45" y="239.47" width="219.43" height="23.91"/><text class="cls-8" transform="translate(609.17 254.89)">file_format</text><text class="cls-6" transform="translate(757.41 254.89)">varchar(22)</text><rect class="cls-7" x="598.45" y="263.38" width="219.43" height="23.91"/><text class="cls-8" transform="translate(609.17 278.8)">notes</text><text class="cls-6" transform="translate(757.41 278.8)">varchar(82)</text><rect class="cls-7" x="598.45" y="287.29" width="219.43" height="23.91"/><text class="cls-8" transform="translate(609.17 302.7)">original_source</text><text class="cls-6" transform="translate(757.41 302.7)">varchar(30)</text><rect class="cls-2" x="370.26" y="69.65" width="206.91" height="26.38"/><text class="cls-3" transform="translate(380.98 86.59)">DigitalLibraryDominio</text><rect class="cls-4" x="370.26" y="96.03" width="206.91" height="23.91"/><text class="cls-5" transform="translate(380.98 111.45)">original_id</text><text class="cls-6" transform="translate(508.44 111.45)">varchar(190)</text><rect class="cls-7" x="370.26" y="119.94" width="206.91" height="23.91"/><text class="cls-8" transform="translate(380.98 135.35)">work_title</text><text class="cls-6" transform="translate(511.2 135.35)">varchar(170)</text><rect class="cls-7" x="370.26" y="143.85" width="206.91" height="23.91"/><text class="cls-8" transform="translate(380.98 159.26)">work_authors</text><text class="cls-6" transform="translate(516.7 159.26)">varchar(47)</text><rect class="cls-7" x="370.26" y="167.75" width="206.91" height="23.91"/><text class="cls-8" transform="translate(380.98 183.17)">file_format</text><text class="cls-6" transform="translate(522.21 183.17)">varchar(4)</text><rect class="cls-7" x="370.26" y="191.66" width="206.91" height="23.91"/><text class="cls-8" transform="translate(380.98 207.07)">file_size</text><text class="cls-6" transform="translate(516.7 207.07)">varchar(24)</text><rect class="cls-7" x="370.26" y="215.57" width="206.91" height="23.91"/><text class="cls-8" transform="translate(380.98 230.98)">number_of_access</text><text class="cls-6" transform="translate(516.7 230.98)">varchar(18)</text><rect class="cls-7" x="370.26" y="239.47" width="206.91" height="23.91"/><text class="cls-8" transform="translate(380.98 254.89)">original_source</text><text class="cls-6" transform="translate(516.7 254.89)">varchar(53)</text><rect class="cls-9" x="136.15" y="381.72" width="228.28" height="26.38"/><text class="cls-10" transform="translate(146.87 398.66)">GoodreadsWorks</text><rect class="cls-11" x="136.15" y="408.1" width="228.28" height="23.91"/><text class="cls-5" transform="translate(146.87 423.52)">id</text><text class="cls-6" transform="translate(295.7 423.52)">varchar(175)</text><rect class="cls-12" x="136.15" y="432.01" width="228.28" height="23.91"/><text class="cls-13" transform="translate(146.87 447.43)">title</text><text class="cls-6" transform="translate(298.46 447.43)">varchar(255)</text><rect class="cls-12" x="136.15" y="455.92" width="228.28" height="23.91"/><text class="cls-13" transform="translate(146.87 471.33)">isbn</text><text class="cls-6" transform="translate(303.96 471.33)">varchar(12)</text><rect class="cls-12" x="136.15" y="479.82" width="228.28" height="23.91"/><text class="cls-13" transform="translate(146.87 495.24)">isbn13</text><text class="cls-6" transform="translate(303.96 495.24)">varchar(15)</text><rect class="cls-12" x="136.15" y="503.73" width="228.28" height="23.91"/><text class="cls-13" transform="translate(146.87 519.15)">asin</text><text class="cls-6" transform="translate(303.96 519.15)">varchar(10)</text><rect class="cls-12" x="136.15" y="527.64" width="228.28" height="23.91"/><text class="cls-13" transform="translate(146.87 543.05)">image_url</text><text class="cls-6" transform="translate(298.46 543.05)">varchar(102)</text><rect class="cls-12" x="136.15" y="551.54" width="228.28" height="23.91"/><text class="cls-13" transform="translate(146.87 566.96)">publication_year</text><text class="cls-6" transform="translate(300.11 566.96)">decimal(5,1)</text><rect class="cls-12" x="136.15" y="575.45" width="228.28" height="23.91"/><text class="cls-13" transform="translate(146.87 590.87)">publication_month</text><text class="cls-6" transform="translate(300.11 590.87)">decimal(3,1)</text><rect class="cls-12" x="136.15" y="599.36" width="228.28" height="23.91"/><text class="cls-13" transform="translate(146.87 614.77)">publication_day</text><text class="cls-6" transform="translate(300.11 614.77)">decimal(3,1)</text><rect class="cls-12" x="136.15" y="623.27" width="228.28" height="23.91"/><text class="cls-13" transform="translate(146.87 638.68)">publisher</text><text class="cls-6" transform="translate(298.46 638.68)">varchar(644)</text><rect class="cls-12" x="136.15" y="647.17" width="228.28" height="23.91"/><text class="cls-13" transform="translate(146.87 662.59)">is_ebook</text><text class="cls-6" transform="translate(309.46 662.59)">varchar(5)</text><rect class="cls-12" x="136.15" y="671.08" width="228.28" height="23.91"/><text class="cls-13" transform="translate(146.87 686.5)">description</text><text class="cls-6" transform="translate(292.96 686.5)">varchar(5481)</text><rect class="cls-12" x="136.15" y="694.99" width="228.28" height="23.91"/><text class="cls-13" transform="translate(146.87 710.4)">num_pages</text><text class="cls-6" transform="translate(309.46 710.4)">varchar(7)</text><rect class="cls-12" x="136.15" y="718.89" width="228.28" height="23.91"/><text class="cls-13" transform="translate(146.87 734.31)">format</text><text class="cls-6" transform="translate(303.96 734.31)">varchar(21)</text><rect class="cls-12" x="136.15" y="742.8" width="228.28" height="23.91"/><text class="cls-13" transform="translate(146.87 758.21)">format_summ</text><text class="cls-6" transform="translate(309.46 758.21)">varchar(8)</text><rect class="cls-12" x="136.15" y="766.71" width="228.28" height="23.91"/><text class="cls-13" transform="translate(146.87 782.12)">edition_information</text><text class="cls-6" transform="translate(303.96 782.12)">varchar(81)</text><rect class="cls-12" x="136.15" y="790.61" width="228.28" height="23.91"/><text class="cls-13" transform="translate(146.87 806.03)">average_rating</text><text class="cls-6" transform="translate(303.96 806.03)">varchar(54)</text><rect class="cls-12" x="136.15" y="814.52" width="228.28" height="23.91"/><text class="cls-13" transform="translate(146.87 829.94)">ratings_count</text><text class="cls-6" transform="translate(327.23 829.94)">int(11)</text><rect class="cls-12" x="136.15" y="838.43" width="228.28" height="23.91"/><text class="cls-13" transform="translate(146.87 853.84)">text_reviews_count</text><text class="cls-6" transform="translate(327.23 853.84)">int(11)</text><rect class="cls-12" x="136.15" y="862.33" width="228.28" height="23.91"/><text class="cls-13" transform="translate(146.87 877.75)">num_of_authors</text><text class="cls-6" transform="translate(300.11 877.75)">decimal(3,1)</text><rect class="cls-12" x="136.15" y="886.24" width="228.28" height="23.91"/><text class="cls-13" transform="translate(146.87 901.66)">similar_books</text><text class="cls-6" transform="translate(292.96 901.66)">varchar(1322)</text><rect class="cls-12" x="136.15" y="910.15" width="228.28" height="23.91"/><text class="cls-13" transform="translate(146.87 925.56)">num_of_similar_books</text><text class="cls-6" transform="translate(300.11 925.56)">decimal(3,1)</text><rect class="cls-12" x="136.15" y="934.05" width="228.28" height="23.91"/><text class="cls-13" transform="translate(146.87 949.47)">popular_shelves</text><text class="cls-6" transform="translate(292.96 949.47)">varchar(2233)</text><rect class="cls-12" x="136.15" y="957.96" width="228.28" height="23.91"/><text class="cls-13" transform="translate(146.87 973.38)">to_read</text><text class="cls-6" transform="translate(300.11 973.38)">decimal(7,1)</text><rect class="cls-12" x="136.15" y="981.87" width="228.28" height="23.91"/><text class="cls-13" transform="translate(146.87 997.28)">currently_reading</text><text class="cls-6" transform="translate(300.11 997.28)">decimal(6,1)</text><rect class="cls-12" x="136.15" y="1005.77" width="228.28" height="23.91"/><text class="cls-13" transform="translate(146.87 1021.19)">favorites</text><text class="cls-6" transform="translate(300.11 1021.19)">decimal(5,1)</text><rect class="cls-12" x="136.15" y="1029.68" width="228.28" height="23.91"/><text class="cls-13" transform="translate(146.87 1045.1)">num_of_shelves</text><text class="cls-6" transform="translate(300.11 1045.1)">decimal(4,1)</text><rect class="cls-12" x="136.15" y="1053.59" width="228.28" height="23.91"/><text class="cls-13" transform="translate(146.87 1069)">work_url</text><text class="cls-6" transform="translate(298.46 1069)">varchar(154)</text><rect class="cls-9" x="386.76" y="381.72" width="180.13" height="26.38"/><text class="cls-10" transform="translate(397.48 398.66)">GoodreadsWorksReviews</text><rect class="cls-14" x="386.76" y="408.1" width="180.13" height="23.91"/><text class="cls-13" transform="translate(397.48 423.52)">work_id</text><text class="cls-6" transform="translate(529.7 423.52)">int(11)</text><rect class="cls-14" x="386.76" y="432.01" width="180.13" height="23.91"/><text class="cls-13" transform="translate(397.48 447.43)">review_id</text><text class="cls-6" transform="translate(515.76 447.43)">bigint(20)</text><rect class="cls-9" x="386.76" y="460.86" width="193.74" height="26.38"/><text class="cls-10" transform="translate(397.48 477.8)">GoodreadsReviews</text><rect class="cls-11" x="386.76" y="487.24" width="193.74" height="23.91"/><text class="cls-5" transform="translate(397.48 502.66)">id</text><text class="cls-6" transform="translate(506.27 502.66)">varchar(6353)</text><rect class="cls-12" x="386.76" y="511.15" width="193.74" height="23.91"/><text class="cls-13" transform="translate(397.48 526.57)">rating</text><text class="cls-6" transform="translate(525.54 526.57)">varchar(2)</text><rect class="cls-12" x="386.76" y="535.06" width="193.74" height="23.91"/><text class="cls-13" transform="translate(397.48 550.47)">votes</text><text class="cls-6" transform="translate(520.03 550.47)">varchar(48)</text><rect class="cls-12" x="386.76" y="558.96" width="193.74" height="23.91"/><text class="cls-13" transform="translate(397.48 574.38)">spoiler_flag</text><text class="cls-6" transform="translate(525.54 574.38)">varchar(5)</text><rect class="cls-12" x="386.76" y="582.87" width="193.74" height="23.91"/><text class="cls-13" transform="translate(397.48 598.29)">spoilers_state</text><text class="cls-6" transform="translate(525.54 598.29)">varchar(7)</text><rect class="cls-12" x="386.76" y="606.78" width="193.74" height="23.91"/><text class="cls-13" transform="translate(397.48 622.19)">reader_id</text><text class="cls-6" transform="translate(543.3 622.19)">int(11)</text><rect class="cls-12" x="386.76" y="630.68" width="193.74" height="23.91"/><text class="cls-13" transform="translate(397.48 646.1)">reader_location</text><text class="cls-6" transform="translate(520.03 646.1)">varchar(55)</text><rect class="cls-12" x="386.76" y="654.59" width="193.74" height="23.91"/><text class="cls-13" transform="translate(397.48 670.01)">read_status</text><text class="cls-6" transform="translate(520.03 670.01)">varchar(17)</text><rect class="cls-12" x="386.76" y="678.5" width="193.74" height="23.91"/><text class="cls-13" transform="translate(397.48 693.91)">started_at</text><text class="cls-6" transform="translate(520.03 693.91)">varchar(30)</text><rect class="cls-12" x="386.76" y="702.4" width="193.74" height="23.91"/><text class="cls-13" transform="translate(397.48 717.82)">read_at</text><text class="cls-6" transform="translate(520.03 717.82)">varchar(30)</text><rect class="cls-12" x="386.76" y="726.31" width="193.74" height="23.91"/><text class="cls-13" transform="translate(397.48 741.73)">date_added</text><text class="cls-6" transform="translate(520.03 741.73)">varchar(30)</text><rect class="cls-12" x="386.76" y="750.22" width="193.74" height="23.91"/><text class="cls-13" transform="translate(397.48 765.63)">date_updated</text><text class="cls-6" transform="translate(520.03 765.63)">varchar(30)</text><rect class="cls-12" x="386.76" y="774.13" width="193.74" height="23.91"/><text class="cls-13" transform="translate(397.48 789.54)">read_count</text><text class="cls-6" transform="translate(543.3 789.54)">int(11)</text><rect class="cls-12" x="386.76" y="798.03" width="193.74" height="23.91"/><text class="cls-13" transform="translate(397.48 813.45)">comments_count</text><text class="cls-6" transform="translate(543.3 813.45)">int(11)</text><rect class="cls-12" x="386.76" y="821.94" width="193.74" height="23.91"/><text class="cls-13" transform="translate(397.48 837.36)">review_text</text><text class="cls-6" transform="translate(554.67 837.36)">text</text><rect class="cls-12" x="386.76" y="845.85" width="193.74" height="23.91"/><text class="cls-13" transform="translate(397.48 861.26)">review_language</text><text class="cls-6" transform="translate(525.54 861.26)">varchar(2)</text><rect class="cls-12" x="386.76" y="869.75" width="193.74" height="23.91"/><text class="cls-13" transform="translate(397.48 885.17)">review_url</text><text class="cls-6" transform="translate(520.03 885.17)">varchar(48)</text><rect class="cls-9" x="603.97" y="460.86" width="224.77" height="26.38"/><text class="cls-10" transform="translate(614.68 477.8)">GoodreadsAuthors</text><rect class="cls-11" x="603.97" y="487.24" width="224.77" height="23.91"/><text class="cls-5" transform="translate(614.68 502.66)">id</text><text class="cls-6" transform="translate(754.5 502.66)">varchar(1925)</text><rect class="cls-12" x="603.97" y="511.15" width="224.77" height="23.91"/><text class="cls-13" transform="translate(614.68 526.57)">name</text><text class="cls-6" transform="translate(768.27 526.57)">varchar(59)</text><rect class="cls-12" x="603.97" y="535.06" width="224.77" height="23.91"/><text class="cls-13" transform="translate(614.68 550.47)">fans_count</text><text class="cls-6" transform="translate(791.54 550.47)">int(11)</text><rect class="cls-12" x="603.97" y="558.96" width="224.77" height="23.91"/><text class="cls-13" transform="translate(614.68 574.38)">author_followers_count</text><text class="cls-6" transform="translate(773.77 574.38)">varchar(5)</text><rect class="cls-12" x="603.97" y="582.87" width="224.77" height="23.91"/><text class="cls-13" transform="translate(614.68 598.29)">image_url</text><text class="cls-6" transform="translate(768.27 598.29)">varchar(90)</text><rect class="cls-12" x="603.97" y="606.78" width="224.77" height="23.91"/><text class="cls-13" transform="translate(614.68 622.19)">about</text><text class="cls-6" transform="translate(757.27 622.19)">varchar(3985)</text><rect class="cls-12" x="603.97" y="630.68" width="224.77" height="23.91"/><text class="cls-13" transform="translate(614.68 646.1)">influences</text><text class="cls-6" transform="translate(757.27 646.1)">varchar(1561)</text><rect class="cls-12" x="603.97" y="654.59" width="224.77" height="23.91"/><text class="cls-13" transform="translate(614.68 670.01)">works_count</text><text class="cls-6" transform="translate(768.27 670.01)">varchar(61)</text><rect class="cls-12" x="603.97" y="678.5" width="224.77" height="23.91"/><text class="cls-13" transform="translate(614.68 693.91)">hometown</text><text class="cls-6" transform="translate(768.27 693.91)">varchar(68)</text><rect class="cls-12" x="603.97" y="702.4" width="224.77" height="23.91"/><text class="cls-13" transform="translate(614.68 717.82)">born_at</text><text class="cls-6" transform="translate(780.91 717.82)">datetime</text><rect class="cls-12" x="603.97" y="726.31" width="224.77" height="23.91"/><text class="cls-13" transform="translate(614.68 741.73)">died_at</text><text class="cls-6" transform="translate(780.91 741.73)">datetime</text><rect class="cls-12" x="603.97" y="750.22" width="224.77" height="23.91"/><text class="cls-13" transform="translate(614.68 765.63)">goodreads_author</text><text class="cls-6" transform="translate(773.77 765.63)">varchar(5)</text><rect class="cls-12" x="603.97" y="774.13" width="224.77" height="23.91"/><text class="cls-13" transform="translate(614.68 789.54)">author_url</text><text class="cls-6" transform="translate(762.77 789.54)">varchar(105)</text><rect class="cls-9" x="861.6" y="381.72" width="174.2" height="26.38"/><text class="cls-10" transform="translate(872.32 398.66)">GoodreadsWorksGenres</text><rect class="cls-14" x="861.6" y="408.1" width="174.2" height="23.91"/><text class="cls-13" transform="translate(872.32 423.52)">work_id</text><text class="cls-6" transform="translate(998.61 423.52)">int(11)</text><rect class="cls-14" x="861.6" y="432.01" width="174.2" height="23.91"/><text class="cls-13" transform="translate(872.32 447.43)">genre_id</text><text class="cls-6" transform="translate(984.67 447.43)">bigint(20)</text><rect class="cls-9" x="861.6" y="460.86" width="174.94" height="26.38"/><text class="cls-10" transform="translate(872.32 477.8)">GoodreadsGenres</text><rect class="cls-11" x="861.6" y="487.24" width="174.94" height="23.91"/><text class="cls-5" transform="translate(872.32 502.66)">genre_id</text><text class="cls-6" transform="translate(982.14 502.66)">bigint(20)</text><rect class="cls-12" x="861.6" y="511.15" width="174.94" height="23.91"/><text class="cls-13" transform="translate(872.32 526.57)">supergenre</text><text class="cls-6" transform="translate(976.07 526.57)">varchar(10)</text><rect class="cls-12" x="861.6" y="535.06" width="174.94" height="23.91"/><text class="cls-13" transform="translate(872.32 550.47)">genre</text><text class="cls-6" transform="translate(976.07 550.47)">varchar(19)</text><rect class="cls-9" x="603.97" y="381.72" width="179.49" height="26.38"/><text class="cls-10" transform="translate(614.68 398.66)">GoodreadsWorksAuthors</text><rect class="cls-14" x="603.97" y="408.1" width="179.49" height="23.91"/><text class="cls-13" transform="translate(614.68 423.52)">work_id</text><text class="cls-6" transform="translate(746.26 423.52)">int(11)</text><rect class="cls-14" x="603.97" y="432.01" width="179.49" height="23.91"/><text class="cls-13" transform="translate(614.68 447.43)">author_id</text><text class="cls-6" transform="translate(746.26 447.43)">int(11)</text><rect class="cls-15" x="132.86" y="283.99" width="180.68" height="26.38"/><text class="cls-16" transform="translate(143.57 300.93)">DigitalLibraryGoodreads</text><rect class="cls-17" x="132.86" y="310.37" width="180.68" height="23.91"/><text class="cls-13" transform="translate(143.57 325.79)">original_id</text><text class="cls-6" transform="translate(242.07 325.79)">varchar(1254)</text><rect class="cls-17" x="132.86" y="334.28" width="180.68" height="23.91"/><text class="cls-13" transform="translate(143.57 349.69)">goodreads_id</text><text class="cls-6" transform="translate(276.34 349.69)">int(11)</text><path class="cls-18" d="M1077.77,66.42V44.24a22.32,22.32,0,0,0-22.32-22.32H110.59A22.32,22.32,0,0,0,88.27,44.24V253a22.32,22.32,0,0,0,22.32,22.32h203a22.32,22.32,0,0,1,22.32,22.32V312a22.32,22.32,0,0,0,22.32,22.32h697.57A22.32,22.32,0,0,0,1078.09,312V70.17A22.45,22.45,0,0,0,1077.77,66.42Z" transform="translate(0 0)"/><rect class="cls-19" x="959.19" y="158.08" width="240" height="40.04" rx="20.02" ry="20.02" transform="translate(1257.29 -901.09) rotate(90)"/><path class="cls-20" d="M1078.37,128.44a4.67,4.67,0,0,1-.9-3.07v-2.55h-4.4v-2.54h12.24v5.26a4.24,4.24,0,0,1-.95,2.9,3.7,3.7,0,0,1-2.93,1.08A3.8,3.8,0,0,1,1078.37,128.44Zm4.41-2a2.06,2.06,0,0,0,.41-1.36v-2.3h-3.6v2.3a2,2,0,0,0,.44,1.36,1.79,1.79,0,0,0,1.39.49A1.69,1.69,0,0,0,1082.78,126.48Z" transform="translate(0 0)"/><path class="cls-20" d="M1085,139.41a3,3,0,0,1-.86,1.15,3.82,3.82,0,0,1-1,.62,3.43,3.43,0,0,1-1.29.23,3.67,3.67,0,0,1-1.71-.44,2.46,2.46,0,0,1-1.19-1.45,2.29,2.29,0,0,1-1,1.2,4,4,0,0,1-1.91.35h-0.82a6.2,6.2,0,0,0-1.14.07,1,1,0,0,0-.7.47h-0.31v-2.82l0.66-.17a6,6,0,0,1,1.05-.11l1.14,0a2.32,2.32,0,0,0,1.56-.4,2.06,2.06,0,0,0,.39-1.46v-2.5h-4.8v-2.5h12.24v5.85A5.34,5.34,0,0,1,1085,139.41Zm-1.81-5.29h-3.29v2.75a2.93,2.93,0,0,0,.2,1.23,1.38,1.38,0,0,0,1.38.73,1.54,1.54,0,0,0,1.5-.7,2.54,2.54,0,0,0,.22-1.18v-2.82Z" transform="translate(0 0)"/><path class="cls-20" d="M1083.14,152.9v-6.48h-2.6v5.95h-2.13v-5.95h-3.15v6.78h-2.2v-9.28h12.24v9h-2.17Z" transform="translate(0 0)"/><path class="cls-20" d="M1085.31,155.19v2.56h-10v6.11h-2.2v-8.67h12.24Z" transform="translate(0 0)"/><path class="cls-20" d="M1073.07,167.91v-2.54h12.24v2.54h-12.24Z" transform="translate(0 0)"/><path class="cls-20" d="M1085.31,178.42v3.68h-12.24v-2.38h10.27l-10.27-2.32v-2.49l10.27-2.3h-10.27v-2.38h12.24V174l-9.62,2.23Z" transform="translate(0 0)"/><path class="cls-20" d="M1073.07,186.8v-2.54h12.24v2.54h-12.24Z" transform="translate(0 0)"/><path class="cls-20" d="M1085.31,189.15v2.68l-8.54,4.86h8.54v2.38h-12.24v-2.56l8.69-5h-8.69v-2.38h12.24Z" transform="translate(0 0)"/><path class="cls-20" d="M1085.31,205v2.89l-12.24,4.33v-2.77l2.52-.81v-4.51l-2.52-.83v-2.68Zm-7.62-.17v3.13l4.82-1.55Z" transform="translate(0 0)"/><path class="cls-20" d="M1085,221.61a3,3,0,0,1-.86,1.15,3.78,3.78,0,0,1-1,.62,3.41,3.41,0,0,1-1.29.23,3.67,3.67,0,0,1-1.71-.44,2.46,2.46,0,0,1-1.19-1.45,2.28,2.28,0,0,1-1,1.2,4,4,0,0,1-1.91.35h-0.82a6.2,6.2,0,0,0-1.14.07,1,1,0,0,0-.7.47h-0.31V221l0.66-.17a6,6,0,0,1,1.05-.11l1.14,0a2.32,2.32,0,0,0,1.56-.4,2.07,2.07,0,0,0,.39-1.46v-2.5h-4.8v-2.5h12.24v5.85A5.34,5.34,0,0,1,1085,221.61Zm-1.81-5.29h-3.29v2.75a2.93,2.93,0,0,0,.2,1.23,1.38,1.38,0,0,0,1.38.73,1.54,1.54,0,0,0,1.5-.7,2.54,2.54,0,0,0,.22-1.18v-2.82Z" transform="translate(0 0)"/><path class="cls-20" d="M1085.31,233v2.9l-7.65-4.09h-4.59v-2.56h4.59l7.65-4.24v3l-5.33,2.54Z" transform="translate(0 0)"/><rect class="cls-21" x="87.95" y="370.92" width="991.24" height="719.89" rx="22.32" ry="22.32"/><rect class="cls-22" x="-31.73" y="710.85" width="240" height="40.04" rx="20.02" ry="20.02" transform="translate(-642.6 819.14) rotate(-90)"/><path class="cls-23" d="M86,777.2a2.4,2.4,0,0,0-1.75,1.42A3.49,3.49,0,0,0,84,780a3.05,3.05,0,0,0,1.12,2.43,5.06,5.06,0,0,0,3.35,1,4.16,4.16,0,0,0,3.19-1,3.39,3.39,0,0,0,.94-2.34,3,3,0,0,0-.74-2.11,3.19,3.19,0,0,0-1.94-1v2.83h-2v-5.1h6.57v1.69l-1.53.26a5.84,5.84,0,0,1,1.22,1.33,4.69,4.69,0,0,1,.62,2.49,5.18,5.18,0,0,1-1.68,4A6.42,6.42,0,0,1,88.41,786a6.79,6.79,0,0,1-4.76-1.64,5.58,5.58,0,0,1-1.79-4.33A5.66,5.66,0,0,1,83,776.31a4.4,4.4,0,0,1,3-1.62v2.52Z" transform="translate(0 0)"/><path class="cls-23" d="M93.32,762.78a6.34,6.34,0,0,1,0,8,6.6,6.6,0,0,1-5,1.86,6.48,6.48,0,0,1-5-1.86,6.35,6.35,0,0,1,0-8,6.49,6.49,0,0,1,5-1.85A6.62,6.62,0,0,1,93.32,762.78Zm-1.86,1.6a6.14,6.14,0,0,0-6.37,0A2.92,2.92,0,0,0,84,766.79a3,3,0,0,0,1.12,2.42,6.07,6.07,0,0,0,6.38,0,3,3,0,0,0,1.12-2.42A2.92,2.92,0,0,0,91.46,764.37Z" transform="translate(0 0)"/><path class="cls-23" d="M93.32,749.55a6.34,6.34,0,0,1,0,8,6.6,6.6,0,0,1-5,1.86,6.48,6.48,0,0,1-5-1.86,6.35,6.35,0,0,1,0-8,6.49,6.49,0,0,1,5-1.85A6.62,6.62,0,0,1,93.32,749.55Zm-1.86,1.6a6.14,6.14,0,0,0-6.37,0A2.92,2.92,0,0,0,84,753.56,3,3,0,0,0,85.08,756a6.07,6.07,0,0,0,6.38,0,3,3,0,0,0,1.12-2.42A2.92,2.92,0,0,0,91.46,751.15Z" transform="translate(0 0)"/><path class="cls-23" d="M82.43,738.57A4,4,0,0,1,84,736.48a5.44,5.44,0,0,1,2-.87,9.48,9.48,0,0,1,2-.23,8.13,8.13,0,0,1,4.14,1,4.43,4.43,0,0,1,2.28,4.11v5.28H82.17v-5.28A6.47,6.47,0,0,1,82.43,738.57Zm1.86,4.69h8V740.9a2.55,2.55,0,0,0-1.79-2.53,6.29,6.29,0,0,0-2.33-.39,5.74,5.74,0,0,0-2.87.59,2.48,2.48,0,0,0-1,2.33v2.36Z" transform="translate(0 0)"/><path class="cls-23" d="M82.48,725.62a3,3,0,0,1,.86-1.15,3.82,3.82,0,0,1,1-.62,3.43,3.43,0,0,1,1.29-.23,3.67,3.67,0,0,1,1.71.44,2.46,2.46,0,0,1,1.19,1.45,2.29,2.29,0,0,1,1-1.2,4,4,0,0,1,1.91-.35h0.82a6.2,6.2,0,0,0,1.14-.07,1,1,0,0,0,.7-0.47h0.31v2.82l-0.66.17a6,6,0,0,1-1.05.11l-1.14,0a2.32,2.32,0,0,0-1.56.4,2.06,2.06,0,0,0-.39,1.46v2.5h4.8v2.5H82.17v-5.85A5.34,5.34,0,0,1,82.48,725.62Zm1.81,5.29h3.29v-2.75a2.93,2.93,0,0,0-.2-1.23,1.38,1.38,0,0,0-1.38-.73,1.54,1.54,0,0,0-1.5.7,2.54,2.54,0,0,0-.22,1.18v2.82Z" transform="translate(0 0)"/><path class="cls-23" d="M84.34,712.13v6.48h2.6v-5.95h2.13v5.95h3.15v-6.78h2.2v9.28H82.17v-9h2.17Z" transform="translate(0 0)"/><path class="cls-23" d="M82.17,706.33v-2.89l12.24-4.33v2.77l-2.52.81v4.51L94.41,708v2.68Zm7.62,0.17v-3.13L85,704.91Z" transform="translate(0 0)"/><path class="cls-23" d="M82.43,690.38A4,4,0,0,1,84,688.29a5.44,5.44,0,0,1,2-.87,9.48,9.48,0,0,1,2-.23,8.13,8.13,0,0,1,4.14,1,4.43,4.43,0,0,1,2.28,4.11v5.28H82.17v-5.28A6.47,6.47,0,0,1,82.43,690.38Zm1.86,4.69h8v-2.36a2.55,2.55,0,0,0-1.79-2.53,6.29,6.29,0,0,0-2.33-.39,5.74,5.74,0,0,0-2.87.59,2.48,2.48,0,0,0-1,2.33v2.36Z" transform="translate(0 0)"/><path class="cls-23" d="M90.63,683.43a2.48,2.48,0,0,0,1.25-.47,2.71,2.71,0,0,0,.76-2.18,4.69,4.69,0,0,0-.2-1.5A1.43,1.43,0,0,0,91,678.19a1,1,0,0,0-.94.54,5.82,5.82,0,0,0-.57,1.7l-0.29,1.33a8.26,8.26,0,0,1-.94,2.68,3,3,0,0,1-2.65,1.24,3.52,3.52,0,0,1-2.73-1.21,5.16,5.16,0,0,1-1.09-3.56,5.45,5.45,0,0,1,1-3.34,3.65,3.65,0,0,1,3-1.45v2.46a1.75,1.75,0,0,0-1.57,1,3.39,3.39,0,0,0-.31,1.52,2.9,2.9,0,0,0,.4,1.62,1.26,1.26,0,0,0,1.11.6,1.05,1.05,0,0,0,1-.6,7.42,7.42,0,0,0,.51-1.63l0.51-2.15a5.47,5.47,0,0,1,.89-2.12,3,3,0,0,1,2.5-1.09,3.51,3.51,0,0,1,2.79,1.3,5.47,5.47,0,0,1,1.11,3.66,6,6,0,0,1-1.09,3.8,3.61,3.61,0,0,1-3,1.38v-2.44Z" transform="translate(0 0)"/><rect class="cls-24" x="19.8" y="1.42" width="1094.2" height="1102.42" rx="22.32" ry="22.32"/><rect class="cls-15" x="-100.2" y="532.83" width="240" height="39.6" rx="19.8" ry="19.8" transform="translate(-532.83 572.43) rotate(-90)"/><path class="cls-25" d="M13.61,573.49v-8.73h2.13V571h2.78v-5.42h2.1V571H25.7v2.54H13.61Z" transform="translate(0 0)"/><path class="cls-25" d="M13.59,563.1v-2.6H21a4.16,4.16,0,0,0,1.82-.3,2.5,2.5,0,0,0,0-4,4.16,4.16,0,0,0-1.82-.3H13.59v-2.6H21a6.18,6.18,0,0,1,3,.61q2,1.13,2,4.3t-2,4.31a6.17,6.17,0,0,1-3,.61H13.59Z" transform="translate(0 0)"/><path class="cls-25" d="M13.59,550.82v-2.56h9.93v-6.11H25.7v8.67H13.59Z" transform="translate(0 0)"/><path class="cls-25" d="M13.59,540.43v-2.56h9.93v-6.11H25.7v8.67H13.59Z" transform="translate(0 0)"/></svg>