<?xml version="1.0" encoding="utf-8"?>
<!-- Generator: Adobe Illustrator 19.2.1, SVG Export Plug-In . SVG Version: 6.00 Build 0)  -->
<svg version="1.1" id="Camada_1" xmlns="http://www.w3.org/2000/svg" xmlns:xlink="http://www.w3.org/1999/xlink" x="0px" y="0px"
	 viewBox="0 0 874.1 733.6" style="enable-background:new 0 0 874.1 733.6;" xml:space="preserve">
<style type="text/css">
	.st0{opacity:0.8;fill:#F5CD66;}
	.st1{opacity:0.8;fill:#F6925C;}
	.st2{fill:#A5A163;}
	.st3{opacity:0.8;}
	.st4{fill:#F6925C;}
</style>
<g id="Bar_Chart_1_">
	<path class="st0" d="M436.9,641.3H162.7l137.1-274.2L436.9,641.3z"/>
	<path class="st0" d="M803.1,641.3H528.8l137.1-274.2L803.1,641.3z"/>
	<path class="st1" d="M711.6,641.3H254.1l228.8-457.5L711.6,641.3z"/>
	<path class="st2" d="M803.1,687.1v45.8h-732V0.8h45.8v686.3H803.1z"/>
	<path class="st0" d="M116.8,366.8h45.8v45.8h-45.8V366.8z"/>
	<path class="st0" d="M208.3,366.8h45.8v45.8h-45.8V366.8z"/>
	<g class="st3">
		<path class="st4" d="M116.8,183.8h45.8v45.8h-45.8V183.8z"/>
		<path class="st4" d="M208.3,183.8h45.8v45.8h-45.8V183.8z"/>
		<path class="st4" d="M299.8,183.8h45.8v45.8h-45.8V183.8z"/>
		<path class="st4" d="M391.3,183.8h45.8v45.8h-45.8V183.8z"/>
	</g>
</g>
</svg>
